<svg xmlns="http://www.w3.org/2000/svg" viewBox="0 0 52.37 89.28"><defs><style>.cls-1{fill:none;stroke:#000;stroke-linecap:round;stroke-width:3px;}</style></defs><title>資產 8</title><g id="圖層_2" data-name="圖層 2"><g id="圖層_1-2" data-name="圖層 1"><path d="M27.11,86.4a9.38,9.38,0,0,1-.67,2.88l-1-.48A12.54,12.54,0,0,0,26,86.16Zm4.71-.53H25.55v-1.1h2.62v-.92H25.9V82.77h2.27V82H25.91V77h5.6v5H29.3v.81h2.22v1.08H29.3v.92h2.52ZM28.17,81V78H26.86V81Zm-.29-.51-.57.2a15.76,15.76,0,0,0-.26-2l.56-.2A15.27,15.27,0,0,1,27.88,80.44ZM28.7,89l-1.09.14a10.73,10.73,0,0,0-.26-2.6l1-.11A14.06,14.06,0,0,1,28.7,89Zm1.73-.29-1.06.17a9.78,9.78,0,0,0-.58-2.41l1.05-.14A13.15,13.15,0,0,1,30.43,88.66ZM30.58,81V78H29.3V81Zm-.17-2.38a11.45,11.45,0,0,1-.4,2.08l-.56-.18a12.18,12.18,0,0,0,.38-2.07Zm1.53,9.72-1,.24a12.47,12.47,0,0,0-.6-2.18l1-.22A11,11,0,0,1,31.94,88.29ZM38,80.07H35.19v2.4h2.37v6.72H36.31v-.8H33.53v.8H32.31V82.47h1.63V76.73h1.25v2.14H38Zm-1.69,7.11V83.65H33.53v3.53Z"/><path d="M52.37,86.38a6.69,6.69,0,0,1-.73,2.1,1.36,1.36,0,0,1-1.18.75c-.8,0-1.59-.72-2.38-2.14a17.15,17.15,0,0,1-2.64,1.6l-.71-1.06a15.63,15.63,0,0,0,2.89-1.71,23.54,23.54,0,0,1-.48-4.34h-3v2a24.26,24.26,0,0,0,2.37-.6l0,1.25c-.86.25-1.66.45-2.4.59V88a1.24,1.24,0,0,1-.22.81,1.06,1.06,0,0,1-.56.34,5.82,5.82,0,0,1-1.23.08c-.44,0-.87,0-1.3,0l-.44-1.35c.64,0,1.16,0,1.57,0a2.55,2.55,0,0,0,.77-.06.28.28,0,0,0,.11-.26V85.07c-1,.19-2,.33-2.81.42l-.23-1.18c.92-.11,1.94-.27,3-.49V81.58h-3V80.37h3V78.75c-.64.1-1.45.19-2.42.27l-.58-1.18a21.41,21.41,0,0,0,6-1.12l.72,1a18,18,0,0,1-2.47.71v1.89h3c0-.58,0-1.79,0-3.64h1.26c0,1.24,0,2.45,0,3.64h3.9v1.21H48.41a30.92,30.92,0,0,0,.25,3.34,12.45,12.45,0,0,0,1.79-2.78l1.11.56a12,12,0,0,1-2.5,3.55,5.94,5.94,0,0,0,.76,1.23q.36.39.54.39c.33,0,.62-.74.88-2.2Zm-.49-7.22-1,.76A10.92,10.92,0,0,0,49,77.85L50,77A11.19,11.19,0,0,1,51.88,79.16Z"/></g><g id="圖層_2-2" data-name="圖層 2"><path class="cls-1" d="M1.5,1.5c5.42,5.57,27,13,28.2,46.31.17,11.3-12,9.26-17,6-6-4-6.1-13.54.73-15.79,13.27-4.38,28.87,4.49,28.87,34.25"/><line class="cls-1" x1="1.5" y1="1.5" x2="8.33" y2="17.39"/><line class="cls-1" x1="22.04" y1="8.65" x2="1.5" y2="1.5"/></g></g></svg>