<svg xmlns="http://www.w3.org/2000/svg" xmlns:xlink="http://www.w3.org/1999/xlink" viewBox="0 0 1071.55 1104.73"><defs><style>.cls-1,.cls-16{fill:none;}.cls-2{font-size:40px;fill:#230202;font-family:MicrosoftJhengHeiRegular, Microsoft JhengHei;}.cls-3{fill:#067089;}.cls-4{fill:#1e92ad;}.cls-5{fill:#0c7e9d;}.cls-11,.cls-5,.cls-6,.cls-7,.cls-8,.cls-9{fill-rule:evenodd;}.cls-6{fill:#2898b2;}.cls-7{fill:#72a743;}.cls-8{fill:#90c250;}.cls-9{fill:#a8cd5c;}.cls-10{fill:#568029;}.cls-11{fill:#e1ddcf;}.cls-12{fill:#eeece4;}.cls-13{fill:#c6c6c6;}.cls-14{fill:#023138;}.cls-15{clip-path:url(#clip-path);}.cls-16{stroke:#c15353;stroke-miterlimit:10;stroke-width:5px;}.cls-17{clip-path:url(#clip-path-2);}.cls-18{clip-path:url(#clip-path-3);}.cls-19{clip-path:url(#clip-path-4);}.cls-20{clip-path:url(#clip-path-5);}.cls-21{clip-path:url(#clip-path-6);}.cls-22{clip-path:url(#clip-path-7);}.cls-23{clip-path:url(#clip-path-8);}.cls-24{clip-path:url(#clip-path-9);}.cls-25{clip-path:url(#clip-path-10);}.cls-26{clip-path:url(#clip-path-11);}.cls-27{clip-path:url(#clip-path-12);}.cls-28{clip-path:url(#clip-path-13);}.cls-29{clip-path:url(#clip-path-14);}.cls-30{clip-path:url(#clip-path-15);}.cls-31{clip-path:url(#clip-path-16);}.cls-32{clip-path:url(#clip-path-17);}.cls-33{clip-path:url(#clip-path-18);}.cls-34{clip-path:url(#clip-path-19);}.cls-35{fill:#fff;}</style><clipPath id="clip-path" transform="translate(-204.12 -110.91)"><rect class="cls-1" x="196.62" y="604.74" width="1172" height="540"/></clipPath><clipPath id="clip-path-2" transform="translate(-204.12 -110.91)"><rect class="cls-1" x="171.62" y="595.74" width="1175" height="540" transform="translate(107.06 -83.25) rotate(6.75)"/></clipPath><clipPath id="clip-path-3" transform="translate(-204.12 -110.91)"><rect class="cls-1" x="178.62" y="623.74" width="1191" height="540"/></clipPath><clipPath id="clip-path-4" transform="translate(-204.12 -110.91)"><rect class="cls-1" x="173.62" y="641.74" width="1191" height="540"/></clipPath><clipPath id="clip-path-5" transform="translate(-204.12 -110.91)"><rect class="cls-1" x="243.62" y="474.74" width="1191" height="540" transform="translate(-276.27 623.67) rotate(-35.39)"/></clipPath><clipPath id="clip-path-6" transform="translate(-204.12 -110.91)"><rect class="cls-1" x="19.62" y="481.74" width="1191" height="540" transform="translate(1088.6 -96.38) rotate(68.47)"/></clipPath><clipPath id="clip-path-7" transform="translate(-204.12 -110.91)"><rect class="cls-1" x="37.62" y="479.74" width="1191" height="540" transform="translate(1098.13 -114.39) rotate(68.47)"/></clipPath><clipPath id="clip-path-8" transform="translate(-204.12 -110.91)"><rect class="cls-1" x="-2.38" y="420.74" width="1191" height="540" transform="translate(1235.52 45.57) rotate(85.53)"/></clipPath><clipPath id="clip-path-9" transform="translate(-204.12 -110.91)"><rect class="cls-1" x="-12.01" y="388.92" width="1166.91" height="540" transform="translate(1335.11 237.56) rotate(102.05)"/></clipPath><clipPath id="clip-path-10" transform="translate(-204.12 -110.91)"><rect class="cls-1" x="-12.38" y="386.74" width="1191" height="540" transform="translate(1349.95 228.58) rotate(102.42)"/></clipPath><clipPath id="clip-path-11" transform="translate(-204.12 -110.91)"><rect class="cls-1" x="3.62" y="383.74" width="1191" height="540" transform="translate(1446.79 393.39) rotate(115.43)"/></clipPath><clipPath id="clip-path-12" transform="translate(-204.12 -110.91)"><rect class="cls-1" x="13.62" y="392.74" width="1191" height="540" transform="translate(1387.4 210.48) rotate(102.42)"/></clipPath><clipPath id="clip-path-13" transform="translate(-204.12 -110.91)"><rect class="cls-1" x="81.62" y="574.74" width="1191" height="540" transform="translate(537.09 -228.79) rotate(31.28)"/></clipPath><clipPath id="clip-path-14" transform="translate(-204.12 -110.91)"><rect class="cls-1" x="81.62" y="555.74" width="1191" height="540" transform="translate(527.22 -231.55) rotate(31.28)"/></clipPath><clipPath id="clip-path-15" transform="translate(-204.12 -110.91)"><rect class="cls-1" x="112.62" y="504.74" width="1191" height="540" transform="translate(653.23 -273.42) rotate(39.43)"/></clipPath><clipPath id="clip-path-16" transform="translate(-204.12 -110.91)"><rect class="cls-1" x="73.82" y="617.78" width="1163.89" height="540" transform="translate(556.33 -211.44) rotate(31.28)"/></clipPath><clipPath id="clip-path-17" transform="translate(-204.12 -110.91)"><rect class="cls-1" x="53.62" y="575.74" width="1191" height="540" transform="translate(533.53 -214.11) rotate(31.28)"/></clipPath><clipPath id="clip-path-18" transform="translate(-204.12 -110.91)"><rect class="cls-1" x="280.62" y="534.74" width="1191" height="540" transform="translate(-304.19 656.19) rotate(-35.39)"/></clipPath><clipPath id="clip-path-19" transform="translate(-204.12 -110.91)"><rect class="cls-1" x="270.62" y="512.74" width="1191" height="540" transform="translate(-293.29 646.33) rotate(-35.39)"/></clipPath></defs><title>資產 3</title><g id="圖層_2" data-name="圖層 2"><g id="圖層_6" data-name="圖層 6"><text class="cls-2" transform="translate(517.25 734.1)">18.4</text><circle class="cls-3" cx="746.06" cy="662.99" r="480.56" transform="translate(-454.41 610.82) rotate(-45)"/><circle class="cls-4" cx="746.06" cy="654.76" r="472.34" transform="translate(-448.6 608.41) rotate(-45)"/><path class="cls-5" d="M554.9,1040.78c-110.33-53-195.29-155.3-229.39-272.85S308.06,519.47,368.42,413c41.46-73.14,103.13-135.08,177.32-174.62,108.73-58,243.3-65,357.48-18.69S1109,364.79,1146.68,482.12c61.76,192.58-29.46,399-193.24,509C837.5,1069,684.85,1103.18,554.9,1040.78Z" transform="translate(-204.12 -110.91)"/><path class="cls-6" d="M554.9,1040.78c-110.33-53-195.29-155.3-229.39-272.85S308.06,519.47,368.42,413c41.46-73.14,103.13-135.08,177.32-174.62,108.73-58,243.3-65,357.48-18.69S1109,364.79,1146.68,482.12c61.76,192.58-29.46,399-193.24,509C837.5,1069,684.85,1103.18,554.9,1040.78Z" transform="translate(-204.12 -110.91)"/><path class="cls-7" d="M714.33,793c-2.85-1.45-9-1.92-11.45-5.8s-9.4-7.72-11.85-6.76-6.55,1.94-9.81-.49-8.57-5.3-10.63-7.23-7.35-3.38-9.81-3.38-2-1.93-5.72,3.86,0,7.73-6.55,6.75.82-1.45,4.5-7.23-.41-9.19-4.5-7.73-1.22,4.35-7.76,5.8-6.55-3.38-2.46-4.35,11.45-5.32,11.45-7.25-.81-7.24-4.09-7.24-2.45-4.84-7.36-11.12-11.91-13.4-16.82-12.42-7.7,5.66-10.16.36-5.31-6.29-6.95-9.19-5.73,0-7-1.45l-1.23-1.44s-5.31,1.44-2.45-2.91,4.09-12.57,2.86-12.08-3.27,7.25-5.31,6.77-.41-1.46-4.49-4.36-10.64-.47-10.64,1.94a6.84,6.84,0,0,1-2,4.35,18.52,18.52,0,0,1-2.45-4.35c-1.22-2.9-6.94-3.37-9.81-.48s-4.5-7.26-6.54-7.26-6.13,2.43-8.18,6.78-1.22,10.62-2.86,10.14-2-8.7-1.63-11.59,4.91-7.73,1.63-8.69-8.18,4.83-10.22,5.3-6.13,3.86-8.58,7.74-3.69,6.28-6.14,7.72-6.13,0-5.31-1.44-6.95-6.77-8.18-4.83-4.91,3.38-8.59,5.31-6.94-2.41-7.76-4.35-2.46-2.41-2.86-8.7a50.18,50.18,0,0,1,2-16.89c1.23-3.88-6.14-11.59-9-11.13s-5.73,3.88-8.59,3.38-1.63-1.44-6.13-1.44-.82-1,0-5.31-1.64-10.14,2.86-14,2.87-13,0-13.51-8.18,1.45-11.86,1-6.54,3.39-5.31,7.73-2.05,7.25-3.27,6.77-2.86-2.9-7.36,1-6.13,2.42-10.63-1.94-9.41-8.68-10.23-15.46-1.22-13.52.42-17.39,1.63-10.62-.82-11.59,2.86-5.78,5.72-6.76,7.36-5.31,8.18-7.25,4.9-1.44,9.4-1.44,5.32,0,9.81,2.9,5.32-1.46,5.32-2.9,2.52-2.49,7.43-2,11-3.79,12.2-2.34,3.67,7.25,6.12,5.3,3.27-5.3,4.09.49,2.87,14.5,6.55,16,1.63,7.24,5.31,7.72,5.32-9.18,4.09-12.56-3.68-13.52-5.73-16,1.4-8.42,5.49-10.34,10.46-11.87,13.33-14.77,12.2-3.73,9.76-7.59S521,553.42,521,550.52s2.45-1.93,3.68,0,6.13-2.9,4.91-5.31-.83-5.79,2-5.31,3.67-2.42,2.45-4.35,2.87-4.35,5.72-3.38,12.32,1.74,13.54-.2-4.54-6.08-4.54-10,4.91-7.24,7.77-7.73,6.54,0,6.94-1.44,4.51-5.32,4.91-1.93,0,9.16,3.27,9.16,7.36-4.34,8.59-4.81,9-2.42,10.63-2.9,11.45-1.45,10.22-4.84-2.46-6.75-3.68-8.21-2.46.48-4.09,2.9-4.49,2.42-5.3.48.39-7.72-2.47-5.8-3.26,3.88-4.91,2.9-3.26-4.35-3.26-4.35,4.08-2.4,1.23-6.75-7-3.39-11.05-1-3.68,1.92-8.58,3.37a36.35,36.35,0,0,0-7.36,2.89s1.39-7.5,4.25-10.41S567.56,481.94,570,479s9,1.45,9,1.45,3.28-3.86,3.28-1.45-.83,8.71,1.64,8.71,9.39-3.87,6.53-4.84,1.77-2.76,4.63-5.17,8.45.34,10.09-.62,2.85-5.31,5.72-5.31,4.09,4.34,0,7.23-4.49,10.16-6.54,12.08-.82,4.34,2.45,3.87,6.14.47,9-.49,4.51,1,5.32,2.41,3.27-1.45,3.27-1.45,5.33-1.45,7,1,2.86-1.45,1.64-3.87-2.87-4.82-4.1-7.73-2.85-3.86-6.12-2.89-4.09-1-6.14-2.43-3.67,1.94-2-1.44,2.45-4.35,3.68-7.25,6.54-8.2,1.22-9.65-6.94-2.42-7.76-5.32-7-8.22-8.59-8.22-9.46,1.72-9.88-.69-2.38-9.45-4.42-11.86-9.82-13-11.05-14-2.85-.47-6.53,5.32-7,6.77-9.82,5.32-6,0-8.86-3.82,5.59-5.37,4.37-7.78-7.77-3.39-11.85-3.86-7-5.79-13.09-6.28-13.5,1-15.54,1-2.05,3.38-2.86,8.7,2.86,6.76-.83,7.73-5.3,1.44-1.61,3.38,8.57,9.66,8.57,9.66,0,4.34-2.87,6.76-5.7,4.83-7.35,1.94-6.13-2.42-4.91.48,3.69,4.35,3.69,7.25S512,467,509.51,469.37s-5.31.49-7.36,1-4.08-3.87-2.45-4.83-.41-8.21-.41-8.21-4.9,8.21-4.5,3.87-2-4.83-2-8.22-3.56-8.08-7.25-7.11-7.06,1.79-14,.34-9.82-2.41-15.54-5.79-7.77-1-10.63-.49-1.64-6.75-5.31-7.72-1.33-2.05-2.16-8.33-3.16-4.71,5.83-11.48,7.78-9.66,14.72-10.62,9.51,4.36,9.51,1.94,2.35-15.47,2.35-10.64,8.18,5.32,4.5,8.7-1.63,3.87,1.23,3.87,8.18-3.39,8.18-3.39,6.53-3.38,8.17-.48,1.64,5.8,4.49,5.8,9-3.87,3.69-7.25-8.6-2.9-11.86-6.77-2.46-2.41-6.14-1.45-3.68-1.45-4.91-1.45-3.25,1-4.08-1,.41-2.41,4.5-2.41a37.9,37.9,0,0,1,9,1.45l6.14-2.42c1.23-.47,7.76-1.46,6.54-5.8s-5.31-4.34-6.54-5.79,2.45-3.38,4.49-4.35,7.77,0,7.77,0,3.68.48,3.68-1.45-.81-4.36,1.64-2.91,0,5.81,3.67,4.84,4.51,0,6.55,1.45-.42,7.25-2.46,8.21-5.31,2.9-.82,3.39,7.78.49,7.78.49a31,31,0,0,0,4.09-6.29c1.22-2.9,3.26-1,4.9,0s7.77,2.41,2,4.35-7,4.34-8.18,6.75-1.63,3.87-7,2.42-8.18-1-9.41,1.45-.41,10.15,1.64,9.18,4.08-1,6.54-1.93,12.26,1,14.72.48,6.54,4.84,7.77,3.87,3.68,1.93,6.13,3.86,1.63-4.34,6.13-.49,2.05,3.88,4.5,3.88,7.77.47,7.77.47.4-4.82,4.49-3.86,7.77,6.28,7.36,2.41.41-6.75-2.86-9.66-8.59-4.83-9.4-6.28-1.64-3.38-.42-4.35,7,.49,10.23,2.9,6.13,4.84,8.59,2.9,5.31-2.9,6.54-4.35,4.09-5.79,4.09-5.79-12.27-1.92-13.9-4.35-7.37-5.79-9-5.79-6.13,3.38-7.77-1.45-1.64-10.63-3.27-11.12-18.8-3.38-21.26-4.83-12.26-4.82-15.94-7.24-9-5.8-12.26-5.8-16.77,1.93-19.22,1.45-9.82,1-12.68,1.45,3.69,6.77-2.45,8.22-5.32,2.41-4.09-4.84-4.09-9.18-9.4-6.28-13.9,4.84-11.86,8.22-.4,5.8,3.68,9.17,5.73,4.34,11,3.87a34.22,34.22,0,0,1,10.63,1s0,5.8-2,6.77-5.31,1-6.14,3.86-4.9,4.36-4.9,2.9,2.05-6.28-.82-8.7-3.68-2.89-6.95-.48-3.68,3.39-5.32-.48-6.54-7.26-6.54-7.26a63,63,0,0,0-5.72-7.24c-2.45-2.41-7-1.92-7.36.49s.83,4.84,2.45,9.18,2.36,9.86-.5,10.33-2.36,3.68-5.23,4.64-4.07-1.45-4.07-5.31-1.23-7.25-.42-8.7-3.27,1-7.36,0-7.35,1.94-3.27,3.39,4.91,7.24,1.22,8.69-17.56,0-22.08,0-11,1.45-12.25-1.45,3.68-4.83,6.54-4.83,11.45.48,14.71-4.83-4.08-6.27-7.35-6.27-5.73-1.45-9.4-5.8,2.45-7.26,1.63-9.19c-.35-.82-1.29-1-2.53-1a480.84,480.84,0,0,0-85.94,141.28c.93,2.36.65,6.16-1.07,6.57a1.27,1.27,0,0,1-1.24-.49q-3.09,8.24-5.9,16.6c-.36,5.47-1.14,14.17-1.44,18.19-.41,5.32,3.27,14.48,7.36,19.32s3.32,15.64,5.78,17.58,8.53,5.61,12.21,5.11,6.12,2.9,9.41,9.67,6.54,17.86,9,18.85,6.53,4.34,4.49,6.75-5.31,7.73-1.63,7.73,4.9-2.41,7.76,1.93,6.55,6.77,6.14,9.67,3.27,3.85,4.9,4.34,5.32,9.19,9,5.31-4.9-9.65-7.35-12.08,0-7.71-5.73-13-4.9-9.18-9-13.05-7.36-7.24-3.26-10.62,4.49,3.38,6.12,7.72,10.22,13.06,13.89,16.92,10.23,17.38,12.28,17.38,7.76,7.73,7.76,7.73,3.27,6.28,2.05,8.22,1.63,9.17,4.5,11.11,15.33,2,15.95,9.18c.16,1.87,2.21,11.11,6.71,11.11s10.45-2.41,11.68-1,4.91,7.24,7.36,3.86,2.85-4.84,6.54-4.84,5.32,3.38,7.36,5.8,7.76,8.71,10.63,8.22,6.54,3.86,8.58,2.42,5.32,1,6.95,1.93a11.33,11.33,0,0,1,4.67,10.33c-.41,5.8,5.55,7.06,8,8.51s5.73,4.82,7.78,7.24,6.54,2.9,7.77,4.35,2,4.35,5.72,1.94a7,7,0,0,0,2.86-6.77s4.09-1,6.13,1,3.28,8.21,4.5,9.17,3.68,8.21,2,13.53S514.41,752,512.77,752s-6.13,5.06-8.58,6.51-6.54,9.43-6.12,11.84,1.81,10.07,1,13.46-3.86,6.82-2.63,12.14,9.81,6.77,10.22,11.6S513.19,823,514,827.79s5.21,10.41,5.21,17.17,12.37,10.84,14.41,11.33,5.73,4.83,8.59,6.27,5.32,4.35,7.36,8.22,1.64,9.66,1.64,11.12S550,898.32,548.76,907s3,16.89.51,19.31-7,3.38-4.6,6.29-2.86,4.83-2.86,6.27,3.28,9.18,1.64,12.56-2.87,8.21-4.09,11.11-4.1,5.81-3.28,10.15-3.27,2.9-3.27,7.24,3.69,2.42,2.87,7.73-2.87,6.77-2.87,10.63,2.05,9.18,2.05,10.62-2.05,6.28-4.91,10.15-4.9,6.27-4.49,8.69,3.26,5.31,2.86,6.77-4.09,6.28-3.68,9.65,4.08,1.94,4.91,4.34-4.91,4.36-2.46,6.77,5.72,1.94,4.91,7.73,4.5,7.24,5.72,8.69,3.68,4.83,5.73,4.83,3.67-1.44,4.49-6.75,6.54-1,2.45,2.9-6.13,5.79-4.9,5.79,7.37,3.87,10.62,3.87,9.83-1.94,11-2.42,10.22-1.94,11-3.39-7-1-10.64-2.41-10.22-8.69-11-11.59-.83-8.69,2-10.63,9.81-8.69,11.45-10.13,4.08-8.23,2.86-9.19-7.36,0-8.17-1.45-.83-3.38,3.27-6.76,6.12-8.2,7.76-9.66,4.9-4.35,6.14-7.73-1.24-1.44-3.68-1.44-3.69-5.32-3.69-7.74,6.13,1,10.64,1.93,2.45-2.41,2-5.3.83-7.73,3.27-6.28,15.13-.49,16.76-1,6.13-9.19,7.77-11.59,2-4.84,0-6.29-7.73-7.09-8.54-8.53,2-9.83,2.81-12.24,0,14,5.73,15.94,9,2.89,14.31-2.89,9.41-9.67,9.81-13.53,1.64-7.72,3.67-9.18,3.73-.41,6.18-6.69,4.46-1.52,6.9-6.83-4.07-12.09.84-15.94a134.52,134.52,0,0,1,13.47-8.7,36.55,36.55,0,0,1,7.37-2.9c4.91-1.45,10.22-.48,11.86-3.39s3.26-9.16,5.72-12.54,5.31-8.7,4.09-11.12,3.26-13,2.86-15.94-4.09-9.66,2-15.45,12.69-14.5,13.08-16.91,5.32-12.57,4.91-17.39S717.19,794.46,714.33,793Zm-202-282.57c1.22,1,9.8-1.46,11.44,1s-1.64,2.89-5.73,4.83-5.32,1.44-6.93,3.85-7,3.39-9.42,6.29-6.83,4.62-7.76,2.42c-1.23-2.9.41-1.45.81-2.9s7.77-4.83,7.77-4.83S511.16,509.47,512.38,510.44ZM490.3,499.32c1.22-.48,6.94-.48,9.81,0s6.95,9.18,4.9,9.66-5.31-1.93-5.31-5.31-2.87,6.28-1.23,9.18-3.27,6.28-4.9,6.28-2.87-4.35-2.46-8.69-2.45-8.22-6.94-7.74-6.56,4.83-8.18,6.28-1.63,9.66-1.23,11.59.4,8.74-3.68,8.22c-3.68-.49-2.85-8.71-2.46-11.6s-1.22-10.14.42-14,6.54-5.31,9.8-5.8S489.07,499.8,490.3,499.32Zm-31.9-13c5.32-2.41,11.05-9.17,13.5-6.28s6.94,6.28,9.81,6.76-.81,6.29-2,6.77-5.73-1-9.41-1-2.86-2.9-4.49-2.41a36.66,36.66,0,0,0-7.78,2.9c-2.45,1.44-6.53,1.15-6.53-1.45C451.46,487.74,453.09,488.7,458.4,486.28Zm33.39-75.36c-1.09,1.94-7.11-.16-6-1.6C488.52,405.77,492.88,409,491.79,410.92Zm12.28,5.16c-2.74,1.28-6.8-2.41-2.46-3.87C505.42,410.92,506.78,414.79,504.07,416.08ZM408.93,325a17.58,17.58,0,0,1-3.87-.55c1.47-1.48,3-2.94,4.45-4.4C410.51,322.46,410.61,325,408.93,325ZM387.3,343.3c1.5-1.69,3-3.37,4.52-5-.94,1.86-1.9,4.61-3.32,5A2,2,0,0,1,387.3,343.3Zm6.13-6.76c2.09-2.25,4.18-4.48,6.31-6.69a97.3,97.3,0,0,0,10.28-.08c5.19-.64,7.37,2.58,7.09,4.19s-3.27,6.43-7.09,6.13-3.81,1.27-5.18-2.26S395.15,336.51,393.43,336.54Zm25.32,10.62c2.17,1.61,3.81,8.7,2.45,9s-1.09,2.89-6,5.79-6.82-5.79-7.37-7.73-5.72.64-8.71.31-4.08-5-2.18-6.43c3-2.25,8.71.33,10.62-.64S416.57,345.56,418.75,347.16Zm9,3.87c-.82-2.26,7.64-6.44,10.09-7.4s4.63,1.93,7.36,2.25,2.18,5.15-.28,5.47-7.63,1-11.16,1.61S428.06,351.91,427.74,351Zm-.82-13.53c1.37-3.86,8.18-2.58,9.55,1.29S425.73,340.89,426.92,337.5Zm-7.08-19.64c0,1,5.81,2.23,9.27,3.21,6.81,1.94,6.27,1.94,9.54,2.58s8.72,5.8,11.17,7.41,4.91,4.51,8.17,4.19a79.48,79.48,0,0,1,12.55,0c4.08.32,18,.32,20.44,0s12.54,2.25,12,3.54-1.36,3.23-6.54,3.55-14.44-.65-20.72-1.3a38,38,0,0,0-12.26,1l-8.72-1s-7.36-2.58-9.54-5.79-9-3.54-12.54-5.15-8.45-4.51-11.45-6.12S419.84,316.9,419.84,317.86ZM810.6,400s-7.36.32-8.45,2.25-4.9,2.9-9.55,4.5-6.8-.63-7.62-3.21-7.36-2.26-9.27-1.93-3.54-2.26-5.73-6.76,0-4.62,1.09-6.78c.81-1.6,9.82-.31,12,2.26s5.72,0,11.17,0,7.91-2.57,10.35-2.26,7.64,1.94,9.82,4.2S810.6,400,810.6,400Zm-49.71-39.29a4.9,4.9,0,0,1-3.24,7.42c-5,1.27-6.72-2.91-6.48-6.14s-8.85-7-9.85-7-.37,9.94,3.37,9.94,6.24,4.5,8,6.44-3.74,1.92-6,1.6-9.23,4.52-15.71,5.8-13.67-.28-16.42,0-7,9.94-8,11.54-10,0-13.2,0-6,4.19-11.22,5.15-2.49,4.84-2.24,8.06-1.5,4.82-4.74,3.86-3,1.29-3.24,4.19.5,6.76-2.49,9.66-4.24,3.86-7.71,3.55-3.25-7.4-4.49-7.09-7.24,4.82-8.23,2.25-8.73-8.37-11.47-9.67-4.72-6.75-6-9,3.74-2.57,2.24-2.89-6.72-1.94-7.72-3.54-4.23-9.34-4.48-11.6,4-6.11,4-7.41-4-1.28-5.74-1.28-3.73-4.83-1.24-9.66,6.23-3.55,6.23-3.55h3.73c2,0,1.51,5.48.51,8.05s1.5,2.25,3,3.54,2.24-2.25,2.5-4.5-3.74-7.73-5.48-10-7-3.22-8-1.6-5.24,8.37-6.48,6.75-1.5-16.1-3.73-20.28-10.22-5.47-13.46-7.41-15-3.86-16.94-4.18-9.48,1.93-12.47.64-3-7.73-3-7.73-1.75,6.77-3,8.69a5,5,0,0,1-6,1.94c-2-1-5-8.06-8.72-9s-5.48.65-8.48-1.94c-4.48-3.85,7.73-3.54,8.48-3.54s10.22-2.25,10.46-5.47a6.06,6.06,0,0,1,7.48-5.48c4.24,1,6-3.54,5.48-7.4s7.48-8,9.23-6.11,8.47-.33,6.22-4.2,8.72-7.71,18.7-8.37,12.46.66,14.94,2.26,11,2.25,13.95-2.26-.24-11,3.26-13.52,4,3.87,6.72,6.44,5.48-7.09,8.46-10.95c.55-.7,7.26-1.11,12.49-4.91,5.94-4.31,15-3.79,22.56-4,5.93-.17,9.76-2.3,15.7-1.95,7.55.45,17.11,3.51,23.43,4.34,1.72.22,5.67,2.52.77,3.48S712.31,266,706.39,267c-7.72,1.36-17.68-.25-16.27,0,1.8.3,11.62,4.62,23.82,1.46,1.42-.37,6.43-3.82,12-2.32,2.85.76,6.08-2.77,11.06-4,3.79-1,9.92.33,9.92.33l5.24-1c5.23-1,2.22,11.61,7.16,18,3.39,4.39,4.3,12.93,10.29,14.53s9-3.21,14.2-8.37S797,283.4,801,285s0,9-5.72,10.95-16.2,14.5-18.2,16.42-5.22,5.48-3.49,10.31,4,2.58,5.74,3.54-1.49,2.9-3,5.8-1.74,8.36-1.5,13.53S765.25,343.3,760,344s-2.87,7.72-1.87,10S759.89,359.4,760.89,360.69ZM517.68,650c-2-1.93-9.39-5.79-11-8.22s-10.22-1.44-15.13-1.44-9,1.44-8.59-3.38c0,0,9.82-3.38,12.27-3.38s8.58,0,11.86,3.38,9.4,7.25,12.26,6.76,7.77,4.84,7.37,6.76S519.73,652,517.68,650Zm-4.91-26.57c3.69-.49,6.15,3.86,1.64,4.83S509,624,512.77,623.46Zm3.69,47.85c-4.5,1.58-5.38-7-1.63-7.84S521,669.75,516.46,671.31Zm54-5.31c-4.49,1.58-5.38-7-1.64-7.85S574.93,664.43,570.43,666Zm-11.86-3.89c-.41,6.27-2.46.48-4.09.48s-6.13,3.39-8.58,1.94-4.09-3.39-7-3.39a45.46,45.46,0,0,1-7.35-1s6.94-7.25,9.41-7.74,6.12-1.45,9.39-.48S559,655.82,558.57,662.11Zm573.6,186.45c.41,5.31-2.05,14.5-3.27,17.39s-3.27,14-5.73,19.33-2.86,11.58-5.31,17.87-4.5,8.69-10.22,8.69-7.78-3.38-7-8.69-4.51-15-1.64-18.35,3.26-10.64.41-17.89,6.12-11.11,7.76-10.62,6.14-3.87,10.23-9.17,4.68-13.33,9.81-11.61C1130.12,836.48,1131.76,843.25,1132.17,848.56Zm-204-307.69c-2.45-2.41-.58-9.67,3.28-9.67,2,0,5.73,4.83,3.68,8.22S930.61,543.27,928.15,540.87Zm-27.79-1.94c2.85-5.32,4.9-1.45,4.08.49S899.37,540.76,900.36,538.93Zm53.15,13.52c-2.06-1-6-4.26-4.5-5.3,2-1.45,7.36,0,8.59,0s4.9,0,6.54,4.82-3.68,5.32-5.31,4.83S955.56,553.42,953.51,552.45ZM840.26,459.23c-.83-3.38,2-4.34,4.49-4.34s2.83-4.59,6.54-5.32c2.45-.48,5.32,0,7,1.93s2.45,5.8,2.45,10.15-4.08,7.25-7,8.69-6.54,4.35-9.81,3.86-6.12-6.28-3.67-7.73S841.07,462.62,840.26,459.23Zm15.12-15.46c-1.64-2.42-2.89-7.39.41-8.69,2.45-1,4.9,2.41,7-.48s4.91-5.81,8.18-3.39,11.94.37,14.8,3.76-8.66,9.76-6.21,11.7,6.54,10.63,10.22,12.56,7.76,7.24,8.17,10.63-4.9,8.7-8.17,8.7-9.82-2.42-13.09-2.42-4.5,4.34-6.54,3.37.41-4.34.41-4.34-11.51,1.3-10.68-1.6,10.27-12.4,13.55-14.34-5.33-3.86-9.42-5.8S857,446.18,855.38,443.77ZM1226.3,646.12a478.25,478.25,0,0,0-93.38-268.24,13.5,13.5,0,0,1-2.39.68c-7.36,1.45-11.86-1.44-13.89,1.45s-4.91,8.21-6.14,4.82,4.09-9.16,2-11.1-10.64-1-11.86.48-.42,6.77.39,8.71,2.06,9.65-.39,8.2-2.06-6.29-4.51-5.79a18.27,18.27,0,0,0-6.52,2.89c-1.23,1-6.15,1-7.37,2.9s.41,7.25-1.64,7.73-3.68,2.41-8.17-1-4.51-1.45-5.73-.48-7,4.83-7.37.48.83-5.8-2.84-8.7-.83-2.89,4.09-1,11,2.9,20-.48,12.68-4.82,9-6.76-6.64-8.08-12.37-9.05-14.21,3.25-23.21-.61-11-5.33-14.72-6.29-26.13-12.61-36.35-10.7-38.47,17.95-40.1,19.4-4.08,7.25-9.4,12.09-14.56,9.59-22.34,11.52-17.31,16-17.31,17.93,3.26,9.18,2.45,10.63,1.62,8.7,6.13,10.63,12.26,1.45,12.67-1.45,6.54-9.18,6.95-4.83,4.49,11.1,3.68,14,0,5.8,2.85,5.31,18-4.35,18-4.35,4.9-2.43,4.1-6.28,5.3-9.18,6.53-10.63,5.72-7.25.41-9.17-9.42-2.43-3.69-8.22,9.41,0,16.76-8.69-1.64-11.11,6.15-11.6,15.93-1,14.29,1.94-11,9.18-16.35,12.08-4.5,8.21-2.45,11.1,2.87,9.67,6.55,8.7,8.18-4.35,12.25-3.86,12.29-.49,13.49-.49,7,6.77,3.7,7.74-7.37.47-14.33,1-14.71.49-14.71,1.94,9.4,4.82,6.13,7.25-6.53-.49-10.63-1-6.54,6.28-7.77,10.15,2,10.63-4.08,8.22-10.63-2.42-12.25-1.45-4.64-.85-8.73.59-4.36,1.34-9.68,1.34H947l-3.29.49a10,10,0,0,1-3.67-6.28c-.4-3.88,1.64-8.22-.4-9.18s-9.4.47-10.63,3.38-2.47,8.21-.83,10.63,6.55,7.24,2.06,5.79-10.23-1.93-13.51,1-9,9.17-9,9.17-10.22,1-10.22,3.87,0,6.76-3.67,7.25-8.59,1.93-13.5,2.89-4.49,3.38-10.22,3.87-6.54,3.38-1.22,4.35,13.48,4.83,13.89,9.17a26.52,26.52,0,0,1-2.45,13.52c-1.4,3-9.81,1-14.72,1s-14.71-1.94-18.8,0-3.27,11.58-2,15.94-.41,6.76-2,8.21-2.05,5.79,0,7.72,3.67,6.27,5.32,6.77,6.94-1.45,9,1,4.09,8.22,5.32,6.77,2.85-7.73,4.9-6.29,7-.48,10.63-1,5.72-5.31,9.41-7.72,1.64-2.41.4-5.31,3.68-6.28,6.55-9.66,8.17-.48,9.39-4.35,1.64-10.62,4.9-10.15,7.79,2.89,10.64,2.89,9-5.3,10.63-6.26,7.77-.49,8.6,3.86,7.75,9.66,9.39,10.62,12.27,4.84,13.9,6.28,4.08,5.79,4.91,9.67,5.7,8.47,6.13,5.08-4.09-14.26-1.23-13.78a12.64,12.64,0,0,0,6.14-1s-7.78-6.28-10.64-7.73-8.16-4.34-10.62-9.17-8.59-5.8-8.18-10.63,6.13-1.93,9.41,1.94S969,519.61,971.9,523s7.36,4.85,8.58,9.19,4.91,9.19,6.13,11.1,2,17.32,3.21,19.73,8.67-5.23,10.7-7.17,5.72-2.89,6.13-6.76-4.9-6.76-6.54-8.2,4.08-2.9,6.13-4.84,5.73-5.31,7.35-2.42.83,14.5,1.64,16.43,9,4.82,10.65,7.25,8.56,3.38,9.8,1.93,7.77,1,9.41,1.45,6.54-1,9.81-1.93,6.54-3.88,6.12,2.42-1.64,15.93-5.71,20.76-2.45,7.26-6.54,7.26c-1.9,0-3.62,0-5,.78-1.33-2.48-3.17-4.41-5.63-3.69-4.9,1.45-11,1.45-15.12,7.25s-5.72,6.26-6.55,4.34,11.87-10.14,10.23-12.56-11.46-1.45-16.77-1.45S1000.11,580,996,579s-6,9-10.12,13.79-10.32-2.67-14-2.67-10.63-6.29-10.63-6.29-6.95-3.38-9.82-3.38-8.58-6.28-10.21-6.28-6.13-4.34-2.85-6.28,10.22,2.3,7-8.33S931,551,928.15,552.45s-23.3,1-24.94,1-13.48,4.83-17.16,6.77-10.22,4.35-11.86,5.31-10.23-1.94-13.91.49c-4.85,3.18-9.39,8.2-10.61,8.2s-4.92,3.39-7.37,10.63.41,13.51-4.09,15.94S824,607,820.73,610.89s-5.82,18.85-9.92,25.13,0,12.08.83,15.94,3.68,11.12-.83,17.87-4.08,10.14-6.13,10.63,2.05,2.42,2.87,7.25-3.68,9.65,4.09,14,14.87,4.55,16.91,10.34,8.85,19.13,8.85,19.13,7.35,7.74,11,11.11,4.91,1.45,5.72-1.92,5.72-3.87,11.44-3.87,9.82,1.45,15.53.48,9.89-9.3,11.92-10.27,10.57-2.28,15.89,1.57,4.5,9.18,7.37,12.56,7.75,1.45,11.44-1.92,2-1.94,6.54,1,6.54,5.81,2.46,10.15-1.64,11.11-4.1,17.88,2.33,6.73,6.83,9.63,8.3,21.76,10.74,25.15-.8,13,2.06,18.84,4.17,9.31.88,12.21-7.42,8.56-7.84,18.22,1.65,16.41,3.27,19.79,5.73,12.56,7.78,16,9.08,9.62,9.5,14.94-5.41,13.56-3.37,16.45,3.26,7.25,6.94,11.12,4.92,12.07,4.92,12.07A36.28,36.28,0,0,1,976,951c.41,5.33.82,8.7,4.91,11.12s6.94,2.9,9,.48,10.76-7.15,16.06-6.67,13,1.37,18.3-3,13.07-15.94,15.94-19.32,9.4-9.67,8.59-13.53-5.54-10.1-2.27-12,14.13-3.42,14.52-6.32-2.87-15-3.67-17.39,2-6.76,5.31-11.59,11-10.17,12.67-12.1,8.59-8.19,9.41-14.46-1.64-14,0-17.39.41-6.28-3.27-10.14-3.93-12.78-5.16-14.7.66-14.77,3.11-15.74,7.77-10.62,11-15,12.67-17.88,17.17-18.84,11.45-8.69,11.84-13,12.28-20.77,12.69-24.15,5.32-16,3.27-18.86-18,4.37-20,5.33-7.77,4.83-14.33,4.35-3.67-6.78-4.07-9.68-7.35-14-9-14.47-6.55-6.28-8.6-12.08-10.6-9.61-13.86-14,.38-17.9-2.9-24.67-6.12-15.46-9-21.74c-.7-1.54-1.45-3-2.2-4.43,3.8-1.12,9.31-3.15,10-.41.8,3.39,5.31,10.63,6.14,16s5.3,3.38,5.72,8.21,4.48,16.43,6.12,17.88,9,9.17,10.24,12.07a56,56,0,0,1,4.07,14c1.23,7.24,2.45,16.9,5.73,18.35s14.31-2.4,16.35-3.86,15.55-9.19,20.45-9.67,5.71-4.35,11.84-5.8,10.64-6.75,14.73-10.61,9-13.53,10.63-16.92,5.73-5.79,3.67-9.65-10.63-9.67-13.89-10.15-2.87-6.75-4.91-6.75-1.63,3.36-5.73,5.79-8.17,7.24-11,6.27.83-3.38-3.68-7.72-6.12-5.33-6.12-8.69-9-9.68-9.82-14.5,6.14-11.58,8.18-7.24,3.69,11.11,9,14,10.25,7.74,12.69,8.7,8.58-5.31,10.63-4.35,6.14,9.66,9.81,11.1,15.94,1.94,18,1.94,10.63.49,12.27-2.41,2.85-2.89,4.9-2.89,5.72,8.68,8.58,9.64,8.18.49,7.77,6.77A15.7,15.7,0,0,0,1226.3,646.12ZM1044.68,779.49c-3.68-1-2.45-12.07-1.23-14.49s8.3-3,9.41-1C1054.9,767.9,1048.35,780.45,1044.68,779.49Zm-7.77-362.29c2-6.75,13.49,1.45,11.44,4.84S1035.52,421.75,1036.91,417.2ZM1088,530.72c-3.28,1-13.09,1.94-16.76,1.45s-8.18-4.83-13.5-5.8-11.86-.48-13.89,2.9-9.43,1.93-12.69,1.93-7.35,4.83-8.17,2.91c0,0,2.46-8.7,0-9.67s.82-6.77,3.27-8.7,5.31-6.76,7.76-11.59,5.74-5.31,7.77-4.83,6.54,9.18,7.77,12.08,5.32-1,7-1.93,4.09-3.87,4.48-6.28,4.09-3.87,8.18-3.87.42,3.87-2.45,4.83-1.22,2.9,3.69,4.83,9.39,7.25,14.71,10.63S1091.28,529.75,1088,530.72Zm63.77-23.67c-1.63,1.45-9,2.9-11.46,0s-8.16.48-8.57,5.8,1.64,1.44,4.09,3.38,3.25,4.83,4.9,7.73,4.49,1.93,6.54,4.34-5.73,5.31-2.45,8.22,4.9,14.48,5.32,17.39-9,4.34-11.86,3.86-11.45-3.86-14.31-4.83-4.51-13-.82-12.56,4.5-1,8.59-5.31-6.13-6.28-9-7.24-8.58-11.6-10.63-15-.46-8.66,4.51-12.57c2.45-1.93,9,2.42,12.26,0s6.54-5.3,7.76-6.28,9.4,1.45,10.63,4.35S1153.44,505.6,1151.79,507.05Z" transform="translate(-204.12 -110.91)"/><path class="cls-8" d="M840.26,459.23c-.83-3.38,2-4.34,4.49-4.34s2.83-4.59,6.54-5.32c2.45-.48,5.32,0,7,1.93s2.45,5.8,2.45,10.15-4.08,7.25-7,8.69-6.54,4.35-9.81,3.86-6.12-6.28-3.67-7.73S841.07,462.62,840.26,459.23Zm-25.85-67c-2.18-2.26-7.35-3.87-9.82-4.2s-4.9,2.26-10.35,2.26-9,2.58-11.17,0-11.19-3.86-12-2.26c-1.09,2.16-3.26,2.26-1.09,6.78s3.83,7.07,5.73,6.76,8.45-.65,9.27,1.93,3,4.84,7.62,3.21,8.45-2.56,9.55-4.5S810.6,400,810.6,400,816.6,394.5,814.41,392.25Zm-56.26-38.32c-1-2.26-3.37-9.34,1.87-10s15.08,6.75,14.82,1.61,0-10.64,1.5-13.53,4.74-4.84,3-5.8-4,1.29-5.74-3.54,1.51-8.38,3.49-10.31,12.46-14.49,18.2-16.42S805,286.62,801,285s-12-4.51-17.18.64-8.23,10-14.2,8.37-6.9-10.14-10.29-14.53c-4.94-6.38-1.93-19-7.16-18l-5.24,1s-6.13-1.29-9.92-.33c-5,1.26-8.21,4.79-11.06,4-5.58-1.5-10.59,1.95-12,2.32-12.21,3.16-22-1.16-23.82-1.46-1.41-.25,8.55,1.36,16.27,0,5.92-1,15.89-3.44,20.79-4.4s1-3.26-.77-3.48c-6.32-.83-15.88-3.89-23.43-4.34-5.94-.35-9.77,1.78-15.7,1.95-7.58.23-16.62-.29-22.56,4-5.23,3.8-11.94,4.21-12.49,4.91-3,3.86-5.72,13.52-8.46,10.95s-3.25-9-6.72-6.44-.26,9-3.26,13.52-11.46,3.87-13.95,2.26-5-2.89-14.94-2.26-20.94,4.51-18.7,8.37-4.48,6.12-6.22,4.2-9.73,2.24-9.23,6.11-1.24,8.37-5.48,7.4a6.06,6.06,0,0,0-7.48,5.48c-.24,3.22-9.72,5.47-10.46,5.47s-13-.31-8.48,3.54c3,2.59,4.74,1,8.48,1.94s6.72,8.06,8.72,9a5,5,0,0,0,6-1.94c1.24-1.92,3-8.69,3-8.69s0,6.44,3,7.73,10.47-1,12.47-.64,13.7,2.25,16.94,4.18,11.2,3.23,13.46,7.41,2.48,18.67,3.73,20.28,5.48-5.15,6.48-6.75,6.23-.64,8,1.6,5.72,7.74,5.48,10-1,5.79-2.5,4.5-4-1-3-3.54,1.48-8.05-.51-8.05h-3.73s-3.74-1.29-6.23,3.55-.51,9.66,1.24,9.66,5.74,0,5.74,1.28-4.24,5.16-4,7.41,3.48,10,4.48,11.6,6.23,3.22,7.72,3.54-3.48.63-2.24,2.89,3.24,7.72,6,9S648,417.36,649,419.94s7-1.93,8.23-2.25,1,6.76,4.49,7.09,4.72-.65,7.71-3.55,2.25-6.76,2.49-9.66,0-5.15,3.24-4.19,5-.65,4.74-3.86-3-7.09,2.24-8.06,8-5.15,11.22-5.15,12.2,1.62,13.2,0,5.26-11.23,8-11.54,10,1.24,16.42,0,13.48-6.11,15.71-5.8,7.72.32,6-1.6-4.24-6.44-8-6.44-4.35-9.94-3.37-9.94,10.09,3.81,9.85,7,1.5,7.41,6.48,6.14a4.9,4.9,0,0,0,3.24-7.42C759.89,359.4,759.15,356.17,758.15,353.93ZM864,453.43c4.09,1.94,12.68,3.87,9.42,5.8s-12.74,11.45-13.55,14.34,10.68,1.6,10.68,1.6-2.46,3.39-.41,4.34,3.28-3.37,6.54-3.37,9.81,2.42,13.09,2.42,8.58-5.32,8.17-8.7-4.49-8.69-8.17-10.63S882,448.6,879.51,446.67s9.08-8.34,6.21-11.7-11.53-1.33-14.8-3.76-6.13.49-8.18,3.39-4.5-.49-7,.48c-3.3,1.3-2,6.27-.41,8.69S859.88,451.5,864,453.43Zm258,147.33c.82,4.82,9.82,11.11,9.82,14.5s1.64,4.35,6.12,8.69.83,6.76,3.68,7.72,7-3.87,11-6.27,3.69-5.79,5.73-5.79,1.64,6.27,4.91,6.75a9.29,9.29,0,0,1,2.34.79q-.91,18.39-3.42,36.57c-3.91,3.79-8.25,8.6-14.06,10-6.13,1.45-6.93,5.32-11.84,5.8s-18.4,8.22-20.45,9.67-13.09,5.31-16.35,3.86-4.5-11.11-5.73-18.35a56,56,0,0,0-4.07-14c-1.23-2.9-8.6-10.63-10.24-12.07s-5.71-13.05-6.12-17.88-4.9-2.91-5.72-8.21-5.34-12.56-6.14-16c-.66-2.74-6.17-.71-10,.41.75,1.41,1.5,2.89,2.2,4.43,2.87,6.28,5.71,15,9,21.74s-.38,20.33,2.9,24.67,11.82,8.18,13.86,14,7,11.59,8.6,12.08,8.58,11.58,9,14.47-2.45,9.19,4.07,9.68,12.28-3.39,14.33-4.35,18-8.22,20-5.33-2.86,15.47-3.27,18.86-12.27,19.8-12.69,24.15-7.35,12.08-11.84,13-13.91,14.5-17.17,18.84-8.59,14-11,15-4.33,13.8-3.11,15.74,1.47,10.83,5.16,14.7,4.91,6.76,3.27,10.14.82,11.11,0,17.39-7.77,12.53-9.41,14.46-9.39,7.28-12.67,12.1-6.12,9.19-5.31,11.59c.45,1.35,1.66,5.7,2.58,9.78q-5.33,6.52-10.88,12.87a14.78,14.78,0,0,0-2.55,1.06c-1,.62-1.27,1.7-1.06,3a492,492,0,0,1-48,46.79c-3.41,1.48-6.47,3.46-7.58,4.76-2,2.42-4.89,1.93-9-.48S976.4,956.29,976,951a36.28,36.28,0,0,0-1.63-8.69s-1.23-8.2-4.92-12.07-4.9-8.22-6.94-11.12,3.78-11.14,3.37-16.45-7.47-11.56-9.5-14.94-6.15-12.56-7.78-16-3.68-10.13-3.27-19.79,4.56-15.32,7.84-18.22,2-6.42-.88-12.21.42-15.48-2.06-18.84-6.23-22.26-10.74-25.15-9.27-2.87-6.83-9.63,0-13.53,4.1-17.88,2-7.24-2.46-10.15-2.86-4.34-6.54-1-8.59,5.31-11.44,1.92-2-8.69-7.37-12.56-13.83-2.53-15.89-1.57S886.87,736,881.13,737s-9.8-.48-15.53-.48-10.63.48-11.44,3.87-2,5.31-5.72,1.92-11-11.11-11-11.11-6.8-13.32-8.85-19.13-9.14-6-16.91-10.34-3.27-9.17-4.09-14-4.9-6.77-2.87-7.25,1.64-3.86,6.13-10.63,1.64-14,.83-17.87-4.91-9.66-.83-15.94,6.66-21.26,9.92-25.13,13-7.72,17.48-10.13,1.64-8.69,4.09-15.94,6.14-10.63,7.37-10.63,5.76-5,10.61-8.2c3.68-2.43,12.28.47,13.91-.49s8.17-3.39,11.86-5.31,15.54-6.77,17.16-6.77,22.08.49,24.94-1,13.94-3.5,17.19,7.13-3.69,6.41-7,8.33,1.22,6.28,2.85,6.28,7.35,6.28,10.21,6.28,9.82,3.38,9.82,3.38,6.94,6.29,10.63,6.29,9.91,7.5,14,2.67,6-14.76,10.12-13.79,8.59,4.83,13.9,4.83,15.13-1,16.77,1.45-11,10.63-10.23,12.56,2.46,1.46,6.55-4.34,10.22-5.8,15.12-7.25c2.46-.72,4.3,1.21,5.63,3.69,1.39-.77,3.11-.78,5-.78,4.09,0,2.45-2.43,6.54-7.26s5.32-14.48,5.71-20.76-2.87-3.39-6.12-2.42-8.18,2.42-9.81,1.93-8.18-2.9-9.41-1.45-8.17.48-9.8-1.93-9.82-5.32-10.65-7.25,0-13.52-1.64-16.43-5.3.5-7.35,2.42-7.75,3.39-6.13,4.84,7,4.34,6.54,8.2-4.09,4.84-6.13,6.76-9.48,9.59-10.7,7.17-2-17.79-3.21-19.73-4.9-6.75-6.13-11.1-5.71-5.8-8.58-9.19-11-8.69-14.3-12.54-9-6.77-9.41-1.94,5.73,5.79,8.18,10.63,7.77,7.73,10.62,9.17S977.63,536,977.63,536a12.64,12.64,0,0,1-6.14,1c-2.86-.48,1.61,10.42,1.23,13.78s-5.32-1.23-6.13-5.08-3.28-8.22-4.91-9.67-12.26-5.31-13.9-6.28-8.58-6.28-9.39-10.62-7-4.84-8.6-3.86-7.77,6.26-10.63,6.26-7.36-2.4-10.64-2.89-3.67,6.28-4.9,10.15-6.54,1-9.39,4.35-7.78,6.76-6.55,9.66,3.27,2.9-.4,5.31-5.74,7.25-9.41,7.72-8.57,2.42-10.63,1-3.68,4.84-4.9,6.29-3.29-4.35-5.32-6.77-7.35-.49-9-1-3.28-4.84-5.32-6.77-1.64-6.28,0-7.72,3.26-3.87,2-8.21-2-14,2-15.94,13.89,0,18.8,0,13.32,2,14.72-1a26.52,26.52,0,0,0,2.45-13.52c-.41-4.34-8.58-8.22-13.89-9.17s-4.51-3.86,1.22-4.35,5.32-2.9,10.22-3.87,9.82-2.41,13.5-2.89,3.67-4.35,3.67-7.25,10.22-3.87,10.22-3.87,5.73-6.27,9-9.17,9-2.42,13.51-1-.42-3.38-2.06-5.79-.4-7.74.83-10.63,8.58-4.36,10.63-3.38,0,5.3.4,9.18a10,10,0,0,0,3.67,6.28l3.29-.49h5.31c5.32,0,5.59.12,9.68-1.34s7.08.38,8.73-.59,6.12-1,12.25,1.45,2.86-4.35,4.08-8.22,3.68-10.62,7.77-10.15,7.37,3.39,10.63,1-6.13-5.8-6.13-7.25,7.78-1.45,14.71-1.94,11,0,14.33-1-2.45-7.74-3.7-7.74-9.4,1-13.49.49-8.58,2.89-12.25,3.86-4.51-5.8-6.55-8.7-2.87-8.2,2.45-11.1,14.73-9.19,16.35-12.08-6.53-2.41-14.29-1.94,1.22,2.9-6.15,11.6-11,2.9-16.76,8.69-1.63,6.28,3.69,8.22.82,7.73-.41,9.17-7.37,6.77-6.53,10.63-4.1,6.28-4.1,6.28-15.14,3.87-18,4.35-3.68-2.42-2.85-5.31-3.28-9.66-3.68-14-6.54,1.93-6.95,4.83-8.18,3.37-12.67,1.45-7-9.18-6.13-10.63-2.45-8.7-2.45-10.63,9.54-16,17.31-17.93,17-6.71,22.34-11.52,7.76-10.64,9.4-12.09,29.88-17.46,40.1-19.4,32.67,9.74,36.35,10.7,5.73,2.41,14.72,6.29,17.5-.36,23.21.61S1086,379,1089.66,381s0,3.39-9,6.76-15.12,2.42-20,.48-7.77-1.93-4.09,1,2.45,4.35,2.84,8.7,6.15.49,7.37-.48,1.22-2.9,5.73.48,6.13,1.45,8.17,1,.41-5.8,1.64-7.73,6.14-1.94,7.37-2.9a18.27,18.27,0,0,1,6.52-2.89c2.45-.5,2.06,4.34,4.51,5.79,1.47.87,1.61-1.58,1.31-4.08a414.32,414.32,0,0,1,44.68,95.08,407.1,407.1,0,0,1,19.29,134c-1.43-2.07-2.68-3.89-3.55-4.3-2.05-1-8.18,5.31-10.63,4.35s-7.36-5.8-12.69-8.7-6.93-9.66-9-14S1121.13,595.93,1121.94,600.76ZM1043.45,765c-1.22,2.42-2.45,13.51,1.23,14.49s10.22-11.59,8.18-15.46C1051.75,762,1044.68,762.57,1043.45,765Zm4.9-343c2.05-3.39-9.4-11.59-11.44-4.84C1035.52,421.75,1046.32,425.42,1048.35,422Zm36.8,97.57c-5.32-3.38-9.82-8.69-14.71-10.63s-6.56-3.86-3.69-4.83,6.55-4.83,2.45-4.83-7.76,1.46-8.18,3.87-2.87,5.31-4.48,6.28-5.73,4.82-7,1.93-5.71-11.6-7.77-12.08-5.32,0-7.77,4.83-5.31,9.67-7.76,11.59-5.72,7.73-3.27,8.7,0,9.67,0,9.67c.82,1.92,4.91-2.91,8.17-2.91s10.63,1.46,12.69-1.93,8.57-3.86,13.89-2.9,9.82,5.32,13.5,5.8,13.48-.48,16.76-1.45S1090.47,523,1085.15,519.61ZM1124,552.94c2.86,1,11.45,4.35,14.31,4.83s12.27-1,11.86-3.86-2.06-14.49-5.32-17.39,4.51-5.8,2.45-8.22-4.9-1.44-6.54-4.34-2.45-5.79-4.9-7.73-4.49,1.94-4.09-3.38,6.12-8.7,8.57-5.8,9.83,1.45,11.46,0-3.28-5.8-4.5-8.7-9.41-5.3-10.63-4.35-4.49,3.88-7.76,6.28-9.81-1.93-12.26,0c-5,3.91-6.55,9.19-4.51,12.57s7.77,14,10.63,15,13.09,2.89,9,7.24-4.91,5.8-8.59,5.31S1121.13,552,1124,552.94ZM445.19,335.25c2.18,3.21,9.54,5.79,9.54,5.79l8.72,1a38,38,0,0,1,12.26-1c6.28.65,15.53,1.62,20.72,1.3s6-2.25,6.54-3.55-9.54-3.87-12-3.54-16.36.32-20.44,0a79.48,79.48,0,0,0-12.55,0c-3.26.32-5.72-2.57-8.17-4.19s-7.9-6.75-11.17-7.41a33.91,33.91,0,0,1-3.38-.78c-1.83,1.92-3.63,3.89-5.42,5.85,1,.51,1.93,1,2.8,1.38C436.19,331.71,443,332,445.19,335.25ZM722.1,805.09c.41,4.82-4.5,15-4.91,17.39s-6.93,11.1-13.08,16.91-2.45,12.56-2,15.45-4.09,13.52-2.86,15.94-1.64,7.73-4.09,11.12-4.09,9.65-5.72,12.54-6.95,1.94-11.86,3.39a36.55,36.55,0,0,0-7.37,2.9,134.52,134.52,0,0,0-13.47,8.7c-4.91,3.85,1.61,10.62-.84,15.94s-4.44.56-6.9,6.83-4.13,5.25-6.18,6.69-3.26,5.31-3.67,9.18-4.49,7.72-9.81,13.53-8.6,4.83-14.31,2.89-4.9-18.35-5.73-15.94-3.62,10.78-2.81,12.24,6.5,7.09,8.54,8.53,1.63,3.86,0,6.29-6.13,11.11-7.77,11.59-14.31,2.41-16.76,1-3.67,3.38-3.27,6.28,2.45,6.26-2,5.3-10.64-4.34-10.64-1.93,1.23,7.74,3.69,7.74,4.9-1.94,3.68,1.44-4.5,6.29-6.14,7.73-3.68,6.27-7.76,9.66-4.1,5.31-3.27,6.76,6.94.49,8.17,1.45-1.23,7.74-2.86,9.19c-.69.61-2.35,2.19-4.24,3.93-3.64-1.58-7.27-3.21-10.88-4.94q-14.86-7.14-29.08-15.46c.69-1.73,2.22-3.65,4.13-6.24,2.86-3.87,4.91-8.7,4.91-10.15s-2.05-6.76-2.05-10.62,2.05-5.31,2.87-10.63-2.87-3.38-2.87-7.73,4.1-2.9,3.27-7.24,2-7.26,3.28-10.15,2.45-7.72,4.09-11.11-1.64-11.1-1.64-12.56,5.31-3.38,2.86-6.27,2.14-3.87,4.6-6.29-1.73-10.62-.51-19.31,2.46-23.68,2.46-25.12.4-7.25-1.64-11.12-4.49-6.76-7.36-8.22-6.54-5.8-8.59-6.27-14.41-4.56-14.41-11.33-4.39-12.34-5.21-17.17-6.95-15.46-7.36-20.28-9-6.28-10.22-11.6,1.82-8.77,2.63-12.14-.59-11-1-13.46,3.66-10.39,6.12-11.84,7-6.51,8.58-6.51,1.24-5.32,2.87-10.63-.81-12.55-2-13.53-2.44-7.24-4.5-9.17-6.13-1-6.13-1a7,7,0,0,1-2.86,6.77c-3.68,2.41-4.5-.49-5.72-1.94s-5.73-1.93-7.77-4.35-5.32-5.79-7.78-7.24-8.41-2.71-8-8.51a11.33,11.33,0,0,0-4.67-10.33c-1.63-1-4.9-3.38-6.95-1.93s-5.72-2.9-8.58-2.42-8.59-5.8-10.63-8.22-3.68-5.8-7.36-5.8-4.09,1.45-6.54,4.84-6.14-2.42-7.36-3.86-7.18,1-11.68,1-6.55-9.24-6.71-11.11c-.62-7.21-13.09-7.26-15.95-9.18s-5.73-9.19-4.5-11.11-2.05-8.22-2.05-8.22-5.72-7.73-7.76-7.73-8.59-13.51-12.28-17.38S345.57,598.33,343.93,594s-2.05-11.1-6.12-7.72-.83,6.76,3.26,10.62,3.27,7.74,9,13.05,3.28,10.63,5.73,13,11,8.22,7.35,12.08-7.35-4.83-9-5.31-5.31-1.45-4.9-4.34-3.27-5.32-6.14-9.67-4.09-1.93-7.76-1.93-.41-5.31,1.63-7.73-2-5.79-4.49-6.75-5.74-12.08-9-18.85-5.73-10.13-9.41-9.67a2,2,0,0,1-.35,0A466.56,466.56,0,0,1,368.42,413c6.36-11.22,13.25-22.13,20.53-32.78,1.4-.1,2.79-.21,4-.21,4.52,0,18.41,1.45,22.08,0s2.87-7.25-1.22-8.69-.81-4.35,3.27-3.39,8.18-1.45,7.36,0,.42,4.83.42,8.7,1.22,6.29,4.07,5.31,2.36-4.15,5.23-4.64,2.14-6,.5-10.33-2.86-6.77-2.45-9.18,4.91-2.9,7.36-.49a63,63,0,0,1,5.72,7.24s4.91,3.39,6.54,7.26,2.05,2.9,5.32.48,4.09-1.93,6.95.48.82,7.25.82,8.7,4.09,0,4.9-2.9,4.09-2.89,6.14-3.86,2-6.77,2-6.77a34.22,34.22,0,0,0-10.63-1c-5.31.47-6.95-.49-11-3.87s-1.63-5.8-3.68-9.17,6.54-5.32,11.86-8.22,10.62-1,9.4,6.28-2,6.29,4.09,4.84-.42-7.73,2.45-8.22,10.22-1.93,12.68-1.45,15.94-1.45,19.22-1.45,8.58,3.39,12.26,5.8,13.49,5.79,15.94,7.24,19.62,4.35,21.26,4.83,1.63,6.29,3.27,11.12,6.14,1.45,7.77,1.45,7.36,3.38,9,5.79,13.9,4.35,13.9,4.35-2.87,4.34-4.09,5.79-4.09,2.42-6.54,4.35-5.32-.48-8.59-2.9-9-3.86-10.23-2.9-.39,2.9.42,4.35,6.13,3.39,9.4,6.28,2.46,5.8,2.86,9.66-3.27-1.45-7.36-2.41-4.49,3.86-4.49,3.86-5.32-.47-7.77-.47,0,0-4.5-3.88-3.67,2.43-6.13.49-4.9-4.83-6.13-3.86-5.32-4.35-7.77-3.87-12.27-1.45-14.72-.48-4.5,1-6.54,1.93-2.86-6.77-1.64-9.18,4.1-2.89,9.41-1.45,5.72,0,7-2.42,2.45-4.81,8.18-6.75-.42-3.39-2-4.35-3.68-2.9-4.9,0a31,31,0,0,1-4.09,6.29s-3.28,0-7.78-.49-1.22-2.42.82-3.39,4.5-6.76,2.46-8.21-2.87-2.41-6.55-1.45-1.22-3.39-3.67-4.84-1.64,1-1.64,2.91-3.68,1.45-3.68,1.45-5.72-1-7.77,0-5.73,2.89-4.49,4.35,5.31,1.45,6.54,5.79-5.31,5.33-6.54,5.8L487,388.71a37.9,37.9,0,0,0-9-1.45c-4.09,0-5.32.48-4.5,2.41s2.86,1,4.08,1,1.23,2.42,4.91,1.45,2.87-2.41,6.14,1.45,6.54,3.38,11.86,6.77-.82,7.25-3.69,7.25-2.85-2.9-4.49-5.8-8.17.48-8.17.48-5.33,3.39-8.18,3.39-4.91-.49-1.23-3.87-4.5-3.87-4.5-8.7-2.35,8.22-2.35,10.64-2.55-2.91-9.51-1.94-5.72,3.87-14.72,10.62-6.64,5.2-5.83,11.48-1.52,7.36,2.16,8.33,2.45,8.21,5.31,7.72,4.91-2.9,10.63.49,8.59,4.34,15.54,5.79,10.33.63,14-.34,7.25,3.73,7.25,7.11,2.45,3.87,2,8.22,4.5-3.87,4.5-3.87,2,7.25.41,8.21.41,5.31,2.45,4.83,4.91,1.46,7.36-1-1.22-9.65-1.22-12.55-2.46-4.35-3.69-7.25,3.28-3.39,4.91-.48,4.5.48,7.35-1.94,2.87-6.76,2.87-6.76-4.9-7.73-8.57-9.66-2.06-2.42,1.61-3.38,0-2.42.83-7.73.81-8.7,2.86-8.7,9.4-1.45,15.54-1,9,5.79,13.09,6.28,10.61,1.45,11.85,3.86-7.24,3.92-4.37,7.78,6,2.37,8.86,3.82,6.13.48,9.82-5.32,5.31-6.28,6.53-5.32,9,11.6,11.05,14,4,9.43,4.42,11.86,8.25.69,9.88.69,7.77,5.32,8.59,8.22,2.45,3.87,7.76,5.32,0,6.75-1.22,9.65-2,3.87-3.68,7.25,0,0,2,1.44,2.86,3.39,6.14,2.43,4.9,0,6.12,2.89,2.87,5.32,4.1,7.73,0,6.28-1.64,3.87-7-1-7-1-2.45,2.9-3.27,1.45-2.45-3.37-5.32-2.41-5.71,0-9,.49-4.49-1.93-2.45-3.87,2.45-9.17,6.54-12.08,2.87-7.23,0-7.23-4.09,4.34-5.72,5.31-7.23-1.8-10.09.62-7.49,4.21-4.63,5.17-4.08,4.84-6.53,4.84-1.64-6.29-1.64-8.71-3.28,1.45-3.28,1.45-6.54-4.34-9-1.45-11.29,1.66-14.15,4.56S551.62,494,551.62,494a36.35,36.35,0,0,1,7.36-2.89c4.9-1.45,4.49-1,8.58-3.37s8.18-3.39,11.05,1-1.23,6.75-1.23,6.75,1.63,3.39,3.26,4.35,2.05-1,4.91-2.9,1.64,3.88,2.47,5.8,3.67,1.94,5.3-.48,2.86-4.34,4.09-2.9,2.45,4.83,3.68,8.21-8.59,4.36-10.22,4.84-9.41,2.41-10.63,2.9-5.31,4.81-8.59,4.81-2.86-5.79-3.27-9.16-4.5.48-4.91,1.93-4.08,1-6.94,1.44-7.77,3.88-7.77,7.73,5.77,8,4.54,10-10.67,1.17-13.54.2-7,1.44-5.72,3.38.41,4.83-2.45,4.35-3.27,2.9-2,5.31-3.69,7.24-4.91,5.31-3.68-2.9-3.68,0,2.39,6.9,4.86,10.77-6.9,4.7-9.76,7.59-9.25,12.83-13.33,14.77-7.53,7.93-5.49,10.34,4.5,12.56,5.73,16-.41,13-4.09,12.56-1.64-6.28-5.31-7.72-5.73-10.15-6.55-16-1.63-2.4-4.09-.49-4.9-3.85-6.12-5.3-7.3,2.82-12.2,2.34-7.43.56-7.43,2-.82,5.79-5.32,2.9-5.32-2.9-9.81-2.9-8.59-.49-9.4,1.44-5.31,6.28-8.18,7.25-8.17,5.8-5.72,6.76,2.45,7.74.82,11.59-1.23,10.63-.42,17.39,5.74,11.12,10.23,15.46,6.14,5.81,10.63,1.94,6.12-1.45,7.36-1,4.49-2.43,3.27-6.77,1.63-8.22,5.31-7.73,9-1.45,11.86-1,4.5,9.65,0,13.51-2,9.68-2.86,14-4.5,5.31,0,5.31,3.28,1,6.13,1.44,5.73-2.89,8.59-3.38,10.22,7.25,9,11.13a50.18,50.18,0,0,0-2,16.89c.4,6.29,2,6.77,2.86,8.7s4.09,6.29,7.76,4.35,7.36-3.38,8.59-5.31,9,3.38,8.18,4.83,2.85,2.9,5.31,1.44,3.68-3.86,6.14-7.72,6.54-7.25,8.58-7.74,7-6.27,10.22-5.3-1.22,5.79-1.63,8.69,0,11.11,1.63,11.59.83-5.79,2.86-10.14,6.13-6.78,8.18-6.78,3.68,10.16,6.54,7.26,8.59-2.42,9.81.48a18.52,18.52,0,0,0,2.45,4.35,6.84,6.84,0,0,0,2-4.35c0-2.41,6.54-4.84,10.64-1.94s2.45,3.88,4.49,4.36,4.09-6.28,5.31-6.77,0,7.74-2.86,12.08,2.45,2.91,2.45,2.91l1.23,1.44c1.22,1.45,5.31-1.44,7,1.45s4.5,3.86,6.95,9.19,5.26.6,10.16-.36,11.92,6.14,16.82,12.42S642.38,752,645.65,752s4.09,5.31,4.09,7.24-7.36,6.28-11.45,7.25-4.09,5.8,2.46,4.35,3.67-4.35,7.76-5.8,8.19,1.93,4.5,7.73-11,6.27-4.5,7.23,2.87-1,6.55-6.75,3.25-3.86,5.72-3.86,7.76,1.45,9.81,3.38,7.35,4.83,10.63,7.23,7.36,1.45,9.81.49,9.4,2.9,11.85,6.76,8.6,4.35,11.45,5.8S721.69,800.25,722.1,805.09Zm-219.54-284s-7.36,3.38-7.77,4.83-2,0-.81,2.9c.93,2.2,5.31.48,7.76-2.42s7.77-3.86,9.42-6.29,2.85-1.91,6.93-3.85,7.37-2.41,5.73-4.83-10.22,0-11.44-1S502.56,521.06,502.56,521.06Zm-23.72-23.67c-3.26.49-8.16,1.93-9.8,5.8s0,11.1-.42,14-1.22,11.11,2.46,11.6c4.08.52,4.08-6.28,3.68-8.22s-.4-10.13,1.23-11.59,3.68-5.79,8.18-6.28,7.35,3.38,6.94,7.74.81,8.69,2.46,8.69,6.54-3.39,4.9-6.28,1.23-12.57,1.23-9.18S503,509.47,505,509s-2-9.18-4.9-9.66-8.59-.48-9.81,0S482.12,496.9,478.84,497.39Zm-27.38-5.79c0,2.6,4.08,2.89,6.53,1.45a36.66,36.66,0,0,1,7.78-2.9c1.63-.49.82,2.41,4.49,2.41s8.18,1.44,9.41,1,4.9-6.28,2-6.77-7.35-3.86-9.81-6.76-8.18,3.87-13.5,6.28S451.46,487.74,451.46,491.6Zm507.37,65.2c1.63.49,6.93,0,5.31-4.83s-5.31-4.82-6.54-4.82-6.55-1.45-8.59,0c-1.5,1,2.44,4.34,4.5,5.3S957.18,556.32,958.83,556.8Zm-444,106.67c-3.75.8-2.87,9.42,1.63,7.84S518.5,662.68,514.83,663.47Zm-.42-35.18c4.51-1,2.05-5.32-1.64-4.83S509.92,629.25,514.41,628.29ZM445.19,345.88c-2.73-.32-4.9-3.22-7.36-2.25s-10.91,5.14-10.09,7.4c.32.88,2.46,2.57,6,1.93s8.71-1.29,11.16-1.61S447.91,346.19,445.19,345.88Zm81.5,304.63c.4-1.92-4.51-7.25-7.37-6.76s-9-3.38-12.26-6.76-9.41-3.38-11.86-3.38S482.93,637,482.93,637c-.41,4.82,3.69,3.38,8.59,3.38s13.49-1,15.13,1.44,9,6.29,11,8.22S526.27,652.44,526.69,650.51ZM935.11,539.42c2-3.39-1.64-8.22-3.68-8.22-3.86,0-5.73,7.26-3.28,9.67S933.07,542.8,935.11,539.42Zm-30.67,0c.82-1.94-1.23-5.81-4.08-.49C899.37,540.76,903.62,541.36,904.44,539.42ZM550.39,652c-3.27-1-6.94,0-9.39.48s-9.41,7.74-9.41,7.74a45.46,45.46,0,0,0,7.35,1c2.87,0,4.51,1.94,7,3.39s7-1.94,8.58-1.94,3.68,5.79,4.09-.48S553.67,652.93,550.39,652Zm18.4,6.19c-3.74.8-2.85,9.43,1.64,7.85S572.47,657.36,568.79,658.15ZM415.21,362c4.9-2.9,4.63-5.48,6-5.79s-.28-7.42-2.45-9a7.85,7.85,0,0,0-4.29-.85c-2.23,2.69-4.4,5.42-6.56,8.16C408.51,356.73,410.44,364.79,415.21,362Zm21.26-23.19c-1.37-3.87-8.18-5.15-9.55-1.29C425.73,340.89,437.83,342.66,436.47,338.79ZM402,368.9c1.65-2.67.61-4.24-1.25-5.15-2.41,3.21-4.8,6.41-7.12,9.67C396.79,373,400.19,371.82,402,368.9Zm83.81,40.42c-1.11,1.44,4.91,3.54,6,1.6S488.52,405.77,485.79,409.32Zm15.82,2.89c-4.34,1.46-.28,5.15,2.46,3.87S505.42,410.92,501.61,412.21Z" transform="translate(-204.12 -110.91)"/><path class="cls-9" d="M501.61,412.21c-4.34,1.46-.28,5.15,2.46,3.87S505.42,410.92,501.61,412.21Z" transform="translate(-204.12 -110.91)"/><path class="cls-9" d="M550.39,652c-3.27-1-6.94,0-9.39.48s-9.41,7.74-9.41,7.74a45.46,45.46,0,0,0,7.35,1c2.87,0,4.51,1.94,7,3.39s7-1.94,8.58-1.94,3.68,5.79,4.09-.48S553.67,652.93,550.39,652Z" transform="translate(-204.12 -110.91)"/><path class="cls-9" d="M568.79,658.15c-3.74.8-2.85,9.43,1.64,7.85S572.47,657.36,568.79,658.15Z" transform="translate(-204.12 -110.91)"/><path class="cls-9" d="M485.79,409.32c-1.11,1.44,4.91,3.54,6,1.6S488.52,405.77,485.79,409.32Z" transform="translate(-204.12 -110.91)"/><path class="cls-9" d="M444.91,351.35c2.46-.32,3-5.16.28-5.47-2-.24-3.66-1.8-5.36-2.29-2.63,3.12-5.21,6.27-7.72,9.49a7.93,7.93,0,0,0,1.64-.12C437.28,352.31,442.46,351.67,444.91,351.35Z" transform="translate(-204.12 -110.91)"/><path class="cls-9" d="M463.45,342a38,38,0,0,1,12.26-1c6.28.65,15.53,1.62,20.72,1.3s6-2.25,6.54-3.55-9.54-3.87-12-3.54-16.36.32-20.44,0a79.48,79.48,0,0,0-12.55,0c-3,.29-5.28-2.08-7.53-3.73-1.46,1.58-2.9,3.19-4.34,4.8,2.84,2.7,8.61,4.72,8.61,4.72Z" transform="translate(-204.12 -110.91)"/><path class="cls-9" d="M1023,593.52c-4.09,5.8-5.72,6.26-6.55,4.34s11.87-10.14,10.23-12.56-11.46-1.45-16.77-1.45S1000.11,580,996,579s-6,9-10.12,13.79-10.32-2.67-14-2.67-10.63-6.29-10.63-6.29-6.95-3.38-9.82-3.38-8.58-6.28-10.21-6.28-6.13-4.34-2.85-6.28,10.22,2.3,7-8.33S931,551,928.15,552.45s-23.3,1-24.94,1-13.48,4.83-17.16,6.77-10.22,4.35-11.86,5.31-10.23-1.94-13.91.49c-4.85,3.18-9.39,8.2-10.61,8.2s-4.92,3.39-7.37,10.63.41,13.51-4.09,15.94S824,607,820.73,610.89s-5.82,18.85-9.92,25.13,0,12.08.83,15.94,3.68,11.12-.83,17.87-4.08,10.14-6.13,10.63,2.05,2.42,2.87,7.25-3.68,9.65,4.09,14,14.87,4.55,16.91,10.34,8.85,19.13,8.85,19.13,7.35,7.74,11,11.11,4.91,1.45,5.72-1.92,5.72-3.87,11.44-3.87,9.82,1.45,15.53.48,9.89-9.3,11.92-10.27,10.57-2.28,15.89,1.57,4.5,9.18,7.37,12.56,7.75,1.45,11.44-1.92,2-1.94,6.54,1,6.54,5.81,2.46,10.15-1.64,11.11-4.1,17.88c-1.91,5.29.6,6.42,3.94,8.06a265.4,265.4,0,0,0,53.35-65.23,377.71,377.71,0,0,0,44.19-123.5C1030.19,588.11,1026,589.22,1023,593.52Z" transform="translate(-204.12 -110.91)"/><path class="cls-9" d="M758.15,353.93c-1-2.26-3.37-9.34,1.87-10s15.08,6.75,14.82,1.61,0-10.64,1.5-13.53,4.74-4.84,3-5.8-4,1.29-5.74-3.54,1.51-8.38,3.49-10.31,12.46-14.49,18.2-16.42S805,286.62,801,285s-12-4.51-17.18.64-8.23,10-14.2,8.37-6.9-10.14-10.29-14.53c-4.94-6.38-1.93-19-7.16-18l-5.24,1s-6.13-1.29-9.92-.33c-5,1.26-8.21,4.79-11.06,4-5.58-1.5-10.59,1.95-12,2.32-12.21,3.16-22-1.16-23.82-1.46-1.41-.25,8.55,1.36,16.27,0,5.92-1,15.89-3.44,20.79-4.4s1-3.26-.77-3.48c-6.32-.83-15.88-3.89-23.43-4.34-5.94-.35-9.77,1.78-15.7,1.95-7.58.23-16.62-.29-22.56,4-5.23,3.8-11.94,4.21-12.49,4.91-3,3.86-5.72,13.52-8.46,10.95s-3.25-9-6.72-6.44-.26,9-3.26,13.52-11.46,3.87-13.95,2.26-5-2.89-14.94-2.26-20.94,4.51-18.7,8.37-4.48,6.12-6.22,4.2-9.73,2.24-9.23,6.11-1.24,8.37-5.48,7.4a6.06,6.06,0,0,0-7.48,5.48c-.24,3.22-9.72,5.47-10.46,5.47s-13-.31-8.48,3.54c3,2.59,4.74,1,8.48,1.94s6.72,8.06,8.72,9a5,5,0,0,0,6-1.94c1.24-1.92,3-8.69,3-8.69s0,6.44,3,7.73,10.47-1,12.47-.64,13.7,2.25,16.94,4.18,11.2,3.23,13.46,7.41,2.48,18.67,3.73,20.28,5.48-5.15,6.48-6.75,6.23-.64,8,1.6,5.72,7.74,5.48,10-1,5.79-2.5,4.5-4-1-3-3.54,1.48-8.05-.51-8.05h-3.73s-3.74-1.29-6.23,3.55-.51,9.66,1.24,9.66,5.74,0,5.74,1.28-4.24,5.16-4,7.41,3.48,10,4.48,11.6,6.23,3.22,7.72,3.54-3.48.63-2.24,2.89,3.24,7.72,6,9S648,417.36,649,419.94s7-1.93,8.23-2.25,1,6.76,4.49,7.09,4.72-.65,7.71-3.55,2.25-6.76,2.49-9.66,0-5.15,3.24-4.19,5-.65,4.74-3.86-3-7.09,2.24-8.06,8-5.15,11.22-5.15,12.2,1.62,13.2,0,5.26-11.23,8-11.54,10,1.24,16.42,0,13.48-6.11,15.71-5.8,7.72.32,6-1.6-4.24-6.44-8-6.44-4.35-9.94-3.37-9.94,10.09,3.81,9.85,7,1.5,7.41,6.48,6.14a4.9,4.9,0,0,0,3.24-7.42C759.89,359.4,759.15,356.17,758.15,353.93Z" transform="translate(-204.12 -110.91)"/><path class="cls-9" d="M714.33,793c-2.85-1.45-9-1.92-11.45-5.8s-9.4-7.72-11.85-6.76-6.55,1.94-9.81-.49-8.57-5.3-10.63-7.23-7.35-3.38-9.81-3.38-2-1.93-5.72,3.86,0,7.73-6.55,6.75.82-1.45,4.5-7.23-.41-9.19-4.5-7.73-1.22,4.35-7.76,5.8-6.55-3.38-2.46-4.35,11.45-5.32,11.45-7.25-.81-7.24-4.09-7.24-2.45-4.84-7.36-11.12-11.91-13.4-16.82-12.42-7.7,5.66-10.16.36-5.31-6.29-6.95-9.19-5.73,0-7-1.45l-1.23-1.44s-5.31,1.44-2.45-2.91,4.09-12.57,2.86-12.08-3.27,7.25-5.31,6.77-.41-1.46-4.49-4.36-10.64-.47-10.64,1.94a6.84,6.84,0,0,1-2,4.35,18.52,18.52,0,0,1-2.45-4.35c-1.22-2.9-6.94-3.37-9.81-.48s-4.5-7.26-6.54-7.26-6.13,2.43-8.18,6.78-1.22,10.62-2.86,10.14-2-8.7-1.63-11.59,4.91-7.73,1.63-8.69-8.18,4.83-10.22,5.3-6.13,3.86-8.58,7.74-3.69,6.28-6.14,7.72-6.13,0-5.31-1.44-6.95-6.77-8.18-4.83-4.91,3.38-8.59,5.31-6.94-2.41-7.76-4.35-2.46-2.41-2.86-8.7a50.18,50.18,0,0,1,2-16.89c1.23-3.88-6.14-11.59-9-11.13s-5.73,3.88-8.59,3.38-1.63-1.44-6.13-1.44-.82-1,0-5.31-1.64-10.14,2.86-14,2.87-13,0-13.51-8.18,1.45-11.86,1-6.54,3.39-5.31,7.73-2.05,7.25-3.27,6.77-2.86-2.9-7.36,1-6.13,2.42-10.63-1.94-9.41-8.68-10.23-15.46-1.22-13.52.42-17.39,1.63-10.62-.82-11.59,2.86-5.78,5.72-6.76,7.36-5.31,8.18-7.25,4.9-1.44,9.4-1.44,5.32,0,9.81,2.9,5.32-1.46,5.32-2.9,2.52-2.49,7.43-2,11-3.79,12.2-2.34,3.67,7.25,6.12,5.3,3.27-5.3,4.09.49,2.87,14.5,6.55,16,1.63,7.24,5.31,7.72,5.32-9.18,4.09-12.56-3.68-13.52-5.73-16,1.4-8.42,5.49-10.34,10.46-11.87,13.33-14.77,12.2-3.73,9.76-7.59S521,553.42,521,550.52s2.45-1.93,3.68,0,6.13-2.9,4.91-5.31-.83-5.79,2-5.31,3.67-2.42,2.45-4.35,2.87-4.35,5.72-3.38,12.32,1.74,13.54-.2-4.54-6.08-4.54-10,4.91-7.24,7.77-7.73,6.54,0,6.94-1.44,4.51-5.32,4.91-1.93,0,9.16,3.27,9.16,7.36-4.34,8.59-4.81,9-2.42,10.63-2.9,11.45-1.45,10.22-4.84-2.46-6.75-3.68-8.21-2.46.48-4.09,2.9-4.49,2.42-5.3.48.39-7.72-2.47-5.8-3.26,3.88-4.91,2.9-3.26-4.35-3.26-4.35,4.08-2.4,1.23-6.75-7-3.39-11.05-1-3.68,1.92-8.58,3.37a36.35,36.35,0,0,0-7.36,2.89s1.39-7.5,4.25-10.41S567.56,481.94,570,479s9,1.45,9,1.45,3.28-3.86,3.28-1.45-.83,8.71,1.64,8.71,9.39-3.87,6.53-4.84,1.77-2.76,4.63-5.17,8.45.34,10.09-.62,2.85-5.31,5.72-5.31,4.09,4.34,0,7.23-4.49,10.16-6.54,12.08-.82,4.34,2.45,3.87,6.14.47,9-.49,4.51,1,5.32,2.41,3.27-1.45,3.27-1.45,5.33-1.45,7,1,2.86-1.45,1.64-3.87-2.87-4.82-4.1-7.73-2.85-3.86-6.12-2.89-4.09-1-6.14-2.43-3.67,1.94-2-1.44,2.45-4.35,3.68-7.25,6.54-8.2,1.22-9.65-6.94-2.42-7.76-5.32-7-8.22-8.59-8.22-9.46,1.72-9.88-.69-2.38-9.45-4.42-11.86-9.82-13-11.05-14-2.85-.47-6.53,5.32-7,6.77-9.82,5.32-6,0-8.86-3.82,5.59-5.37,4.37-7.78-7.77-3.39-11.85-3.86-7-5.79-13.09-6.28-13.5,1-15.54,1-2.05,3.38-2.86,8.7,2.86,6.76-.83,7.73-5.3,1.44-1.61,3.38,8.57,9.66,8.57,9.66,0,4.34-2.87,6.76-5.7,4.83-7.35,1.94-6.13-2.42-4.91.48,3.69,4.35,3.69,7.25S512,467,509.51,469.37s-5.31.49-7.36,1-4.08-3.87-2.45-4.83-.41-8.21-.41-8.21-4.9,8.21-4.5,3.87-2-4.83-2-8.22-3.56-8.08-7.25-7.11-7.06,1.79-14,.34-9.82-2.41-15.54-5.79-7.77-1-10.63-.49-1.64-6.75-5.31-7.72-1.33-2.05-2.16-8.33-3.16-4.71,5.83-11.48,7.78-9.66,14.72-10.62,9.51,4.36,9.51,1.94,2.35-15.47,2.35-10.64,8.18,5.32,4.5,8.7-1.63,3.87,1.23,3.87,8.18-3.39,8.18-3.39,6.53-3.38,8.17-.48,1.64,5.8,4.49,5.8,9-3.87,3.69-7.25-8.6-2.9-11.86-6.77-2.46-2.41-6.14-1.45-3.68-1.45-4.91-1.45-3.25,1-4.08-1,.41-2.41,4.5-2.41a37.9,37.9,0,0,1,9,1.45l6.14-2.42c1.23-.47,7.76-1.46,6.54-5.8s-5.31-4.34-6.54-5.79,2.45-3.38,4.49-4.35,7.77,0,7.77,0,3.68.48,3.68-1.45-.81-4.36,1.64-2.91,0,5.81,3.67,4.84,4.51,0,6.55,1.45-.42,7.25-2.46,8.21-5.31,2.9-.82,3.39,7.78.49,7.78.49a31,31,0,0,0,4.09-6.29c1.22-2.9,3.26-1,4.9,0s7.77,2.41,2,4.35-7,4.34-8.18,6.75-1.63,3.87-7,2.42-8.18-1-9.41,1.45-.41,10.15,1.64,9.18,4.08-1,6.54-1.93,12.26,1,14.72.48,6.54,4.84,7.77,3.87,3.68,1.93,6.13,3.86,1.63-4.34,6.13-.49,2.05,3.88,4.5,3.88,7.77.47,7.77.47.4-4.82,4.49-3.86,7.77,6.28,7.36,2.41.41-6.75-2.86-9.66-8.59-4.83-9.4-6.28-1.64-3.38-.42-4.35,7,.49,10.23,2.9,6.13,4.84,8.59,2.9,5.31-2.9,6.54-4.35,4.09-5.79,4.09-5.79-12.27-1.92-13.9-4.35-7.37-5.79-9-5.79-6.13,3.38-7.77-1.45-1.64-10.63-3.27-11.12-18.8-3.38-21.26-4.83-12.26-4.82-15.94-7.24-9-5.8-12.26-5.8-16.77,1.93-19.22,1.45-9.82,1-12.68,1.45,3.69,6.77-2.45,8.22-5.32,2.41-4.09-4.84-4.09-9.18-9.4-6.28-13.9,4.84-11.86,8.22-.41,5.8,3.68,9.17,5.73,4.34,11,3.87a34.22,34.22,0,0,1,10.63,1s0,5.8-2,6.77-5.31,1-6.14,3.86-4.9,4.36-4.9,2.9,2.05-6.28-.82-8.7-3.68-2.89-6.95-.48-3.68,3.39-5.32-.48-6.54-7.26-6.54-7.26a63,63,0,0,0-5.72-7.24c-2.45-2.41-7-1.92-7.36.49s.83,4.84,2.45,9.18,2.36,9.86-.5,10.33-2.36,3.68-5.23,4.64-4.07-1.45-4.07-5.31-1.23-7.25-.42-8.7c.53-.94-1-.25-3.31.08-1.43,2.06-2.82,4.15-4.2,6.25,1,2.19.43,4.84-1.9,5.75a8.69,8.69,0,0,1-2.06.44,322,322,0,0,0-45.58,125c-5.74,39.48-2.42,84.84,7.25,126.59,1.72,2,3.19,3.95,3.19,3.95s3.27,6.28,2.05,8.22,1.63,9.17,4.5,11.11,15.33,2,15.95,9.18c.16,1.87,2.21,11.11,6.71,11.11s10.45-2.41,11.68-1,4.91,7.24,7.36,3.86,2.85-4.84,6.54-4.84,5.32,3.38,7.36,5.8,7.76,8.71,10.63,8.22,6.54,3.86,8.58,2.42,5.32,1,6.95,1.93a11.33,11.33,0,0,1,4.67,10.33c-.41,5.8,5.55,7.06,8,8.51s5.73,4.82,7.78,7.24,6.54,2.9,7.77,4.35,2,4.35,5.72,1.94a7,7,0,0,0,2.86-6.77s4.09-1,6.13,1,3.28,8.21,4.5,9.17,3.68,8.21,2,13.53S514.41,752,512.77,752s-6.13,5.06-8.58,6.51-6.54,9.43-6.12,11.84,1.81,10.07,1,13.46-3.86,6.82-2.63,12.14c0,.08.05.16.07.24,24.56,13.52,51.19,24.43,78.36,34.08,41.08,14.58,84,23.62,127.21,25.46a4.8,4.8,0,0,0,0-.85c-.41-2.89-4.09-9.66,2-15.45s12.69-14.5,13.08-16.91,5.32-12.57,4.91-17.39S717.19,794.46,714.33,793Zm-202-282.57c1.22,1,9.8-1.46,11.44,1s-1.64,2.89-5.73,4.83-5.32,1.44-6.93,3.85-7,3.39-9.42,6.29-6.83,4.62-7.76,2.42c-1.23-2.9.41-1.45.81-2.9s7.77-4.83,7.77-4.83S511.16,509.47,512.38,510.44ZM490.3,499.32c1.22-.48,6.94-.48,9.81,0s6.95,9.18,4.9,9.66-5.31-1.93-5.31-5.31-2.87,6.28-1.23,9.18-3.27,6.28-4.9,6.28-2.87-4.35-2.46-8.69-2.45-8.22-6.94-7.74-6.56,4.83-8.18,6.28-1.63,9.66-1.23,11.59.4,8.74-3.68,8.22c-3.68-.49-2.85-8.71-2.46-11.6s-1.22-10.14.42-14,6.54-5.31,9.8-5.8S489.07,499.8,490.3,499.32Zm-31.9-13c5.32-2.41,11.05-9.17,13.5-6.28s6.94,6.28,9.81,6.76-.81,6.29-2,6.77-5.73-1-9.41-1-2.86-2.9-4.49-2.41a36.66,36.66,0,0,0-7.78,2.9c-2.45,1.44-6.53,1.15-6.53-1.45C451.46,487.74,453.09,488.7,458.4,486.28Z" transform="translate(-204.12 -110.91)"/><path class="cls-9" d="M958.83,556.8c1.63.49,6.93,0,5.31-4.83s-5.31-4.82-6.54-4.82-6.55-1.45-8.59,0c-1.5,1,2.44,4.34,4.5,5.3S957.18,556.32,958.83,556.8Z" transform="translate(-204.12 -110.91)"/><path class="cls-9" d="M904.44,539.42c.82-1.94-1.23-5.81-4.08-.49C899.37,540.76,903.62,541.36,904.44,539.42Z" transform="translate(-204.12 -110.91)"/><path class="cls-9" d="M935.11,539.42c2-3.39-1.64-8.22-3.68-8.22-3.86,0-5.73,7.26-3.28,9.67S933.07,542.8,935.11,539.42Z" transform="translate(-204.12 -110.91)"/><path class="cls-9" d="M840.26,466.47c-2.45,1.45.4,7.25,3.67,7.73s7-2.4,9.81-3.86,7-4.34,7-8.69-.81-8.22-2.45-10.15-4.5-2.41-7-1.93c-3.71.73-4.09,5.32-6.54,5.32s-5.32,1-4.49,4.34S842.71,465,840.26,466.47Z" transform="translate(-204.12 -110.91)"/><path class="cls-9" d="M864,453.43c4.09,1.94,12.68,3.87,9.42,5.8s-12.74,11.45-13.55,14.34,10.68,1.6,10.68,1.6-2.46,3.39-.41,4.34,3.28-3.37,6.54-3.37,9.81,2.42,13.09,2.42,8.58-5.32,8.17-8.7-4.49-8.69-8.17-10.63S882,448.6,879.51,446.67s9.08-8.34,6.21-11.7-11.53-1.33-14.8-3.76-6.13.49-8.18,3.39-4.5-.49-7,.48c-3.3,1.3-2,6.27-.41,8.69S859.88,451.5,864,453.43Z" transform="translate(-204.12 -110.91)"/><path class="cls-9" d="M992.34,415.75c2,2.9,2.87,9.67,6.55,8.7s8.18-4.35,12.25-3.86a68.23,68.23,0,0,0,10.93-.31,270.49,270.49,0,0,0-11.37-27.08c-2.44,3.1-11,8.75-15.91,11.45C989.47,407.55,990.29,412.86,992.34,415.75Z" transform="translate(-204.12 -110.91)"/><path class="cls-9" d="M814.41,392.25c-2.18-2.26-7.35-3.87-9.82-4.2s-4.9,2.26-10.35,2.26-9,2.58-11.17,0-11.19-3.86-12-2.26c-1.09,2.16-3.26,2.26-1.09,6.78s3.83,7.07,5.73,6.76,8.45-.65,9.27,1.93,3,4.84,7.62,3.21,8.45-2.56,9.55-4.5S810.6,400,810.6,400,816.6,394.5,814.41,392.25Z" transform="translate(-204.12 -110.91)"/><path class="cls-9" d="M514.83,663.47c-3.75.8-2.87,9.42,1.63,7.84S518.5,662.68,514.83,663.47Z" transform="translate(-204.12 -110.91)"/><path class="cls-9" d="M1031.18,531.2c-3.26,0-7.35,4.83-8.17,2.91,0,0,2.46-8.7,0-9.67s.82-6.77,3.27-8.7,5.31-6.76,7.76-11.59c1.36-2.67,3-4,4.48-4.57a307,307,0,0,0-13.69-71.2c-2.72.2-6.11.09-10.83.41-6.93.49-14.71.49-14.71,1.94s9.4,4.82,6.13,7.25-6.53-.49-10.63-1-6.54,6.28-7.77,10.15,2,10.63-4.08,8.22-10.63-2.42-12.25-1.45-4.64-.85-8.73.59-4.36,1.34-9.68,1.34H947l-3.29.49a10,10,0,0,1-3.67-6.28c-.4-3.88,1.64-8.22-.4-9.18s-9.4.47-10.63,3.38-2.47,8.21-.83,10.63,6.55,7.24,2.06,5.79-10.23-1.93-13.51,1-9,9.17-9,9.17-10.22,1-10.22,3.87,0,6.76-3.67,7.25-8.59,1.93-13.5,2.89-4.49,3.38-10.22,3.87-6.54,3.38-1.22,4.35,13.48,4.83,13.89,9.17a26.52,26.52,0,0,1-2.45,13.52c-1.4,3-9.81,1-14.72,1s-14.71-1.94-18.8,0-3.27,11.58-2,15.94-.41,6.76-2,8.21-2.05,5.79,0,7.72,3.67,6.27,5.32,6.77,6.94-1.45,9,1,4.09,8.22,5.32,6.77,2.85-7.73,4.9-6.29,7-.48,10.63-1,5.72-5.31,9.41-7.72,1.64-2.41.4-5.31,3.68-6.28,6.55-9.66,8.17-.48,9.39-4.35,1.64-10.62,4.9-10.15,7.79,2.89,10.64,2.89,9-5.3,10.63-6.26,7.77-.49,8.6,3.86,7.75,9.66,9.39,10.62,12.27,4.84,13.9,6.28,4.08,5.79,4.91,9.67,5.7,8.47,6.13,5.08-4.09-14.26-1.23-13.78a12.64,12.64,0,0,0,6.14-1s-7.78-6.28-10.64-7.73-8.16-4.34-10.62-9.17-8.59-5.8-8.18-10.63,6.13-1.93,9.41,1.94S969,519.61,971.9,523s7.36,4.85,8.58,9.19,4.91,9.19,6.13,11.1,2,17.32,3.21,19.73,8.67-5.23,10.7-7.17,5.72-2.89,6.13-6.76-4.9-6.76-6.54-8.2,4.08-2.9,6.13-4.84,5.73-5.31,7.35-2.42.83,14.5,1.64,16.43,9,4.82,10.65,7.25,8.56,3.38,9.8,1.93c.36-.42,1.21-.49,2.22-.4q1.29-13.7,1.54-27.42C1036.56,531.71,1033.14,531.2,1031.18,531.2Z" transform="translate(-204.12 -110.91)"/><path class="cls-9" d="M514.41,628.29c4.51-1,2.05-5.32-1.64-4.83S509.92,629.25,514.41,628.29Z" transform="translate(-204.12 -110.91)"/><path class="cls-9" d="M916.31,425.9c-.83,1.45,1.62,8.7,6.13,10.63s12.26,1.45,12.67-1.45,6.54-9.18,6.95-4.83,4.49,11.1,3.68,14,0,5.8,2.85,5.31,18-4.35,18-4.35,4.9-2.43,4.1-6.28,5.3-9.18,6.53-10.63,5.72-7.25.41-9.17-9.42-2.43-3.69-8.22,9.41,0,16.76-8.69-1.64-11.11,6.15-11.6c4.87-.3,9.91-.6,12.57-.07-3.67-7.36-7.65-14.57-12-21.59-2.15-3.43-4.38-6.8-6.66-10.13-12,5.46-26.65,13.86-27.81,14.89-1.64,1.45-4.08,7.25-9.4,12.09s-14.56,9.59-22.34,11.52-17.31,16-17.31,17.93S917.12,424.45,916.31,425.9Z" transform="translate(-204.12 -110.91)"/><path class="cls-9" d="M526.69,650.51c.4-1.92-4.51-7.25-7.37-6.76s-9-3.38-12.26-6.76-9.41-3.38-11.86-3.38S482.93,637,482.93,637c-.41,4.82,3.69,3.38,8.59,3.38s13.49-1,15.13,1.44,9,6.29,11,8.22S526.27,652.44,526.69,650.51Z" transform="translate(-204.12 -110.91)"/><path class="cls-10" d="M403.19,329.91l-3.45-.06c-2.13,2.21-4.22,4.44-6.31,6.69.66,0,2.27-.33,4.09-.54Q400.33,332.92,403.19,329.91Z" transform="translate(-204.12 -110.91)"/><path class="cls-10" d="M410.21,322.67a9.54,9.54,0,0,0-.7-2.67c-1.49,1.46-3,2.92-4.45,4.4a22,22,0,0,0,3,.48C408.77,324.14,409.49,323.4,410.21,322.67Z" transform="translate(-204.12 -110.91)"/><path class="cls-10" d="M388.5,343.3c1.42-.42,2.38-3.17,3.32-5-1.52,1.66-3,3.34-4.52,5A2,2,0,0,0,388.5,343.3Z" transform="translate(-204.12 -110.91)"/><path class="cls-10" d="M386.93,348a1.45,1.45,0,0,0-.07-.35c-.35-.82-1.29-1-2.53-1a480.84,480.84,0,0,0-85.94,141.28c.93,2.36.65,6.16-1.07,6.57a1.27,1.27,0,0,1-1.24-.49q-3.09,8.24-5.9,16.6c-.36,5.47-1.14,14.17-1.44,18.19a17.92,17.92,0,0,0,.58,5.25A470.94,470.94,0,0,1,386.93,348Z" transform="translate(-204.12 -110.91)"/><path class="cls-10" d="M1226.3,646.12a478.25,478.25,0,0,0-93.38-268.24,13.5,13.5,0,0,1-2.39.68c-.41.08-.78.11-1.18.16a469.77,469.77,0,0,1,88.38,251c2.86.58,6.34,1.19,6,6.33A15.7,15.7,0,0,0,1226.3,646.12Z" transform="translate(-204.12 -110.91)"/><path class="cls-11" d="M893.71,205.57c-.06.17-.09.34-.14.5-1.54,4.72-101.3,13.07-108,5.87A14.93,14.93,0,0,1,772.61,220c-5.6.25-11.14-1.4-16.74-1.23-7.48.22-14.61,3.67-22.1,3.72-7.81,0-13.74-4.94-14.94-12.46-24.26,10.55-48.12-1.76-72.47,9.22-6.27-7.93-12.9-5-20.88-.92-19.67,10.06-44,10.11-64,.8a482.07,482.07,0,0,1,332.18-13.59ZM874.5,1115.92c-3.61-9.32-13.34-12.66-22.83-11.14s-18.14,6.27-27.61,6.31-20.13-8-17.43-17.11c-21.49,10.77-47.76,21.47-68.31,9q-2.93,8.15-5.86,16.28a56.88,56.88,0,0,0-53.8-12.24l-15.42-6.73q-3.6,7.21-7.19,14.44a23.29,23.29,0,0,1-14.26-11.28,28,28,0,0,0-12.42,23.8c-13.15-5.88-26.75-8.74-40.56-10a482.25,482.25,0,0,0,327.42-4.68C900.76,1108.27,883.39,1106.05,874.5,1115.92Z" transform="translate(-204.12 -110.91)"/><path class="cls-12" d="M733.77,222.52c7.49-.05,14.61-3.5,22.1-3.72,5.6-.17,11.14,1.48,16.74,1.23a14.93,14.93,0,0,0,12.93-8.09c5,5.38,62,2.07,91.11-1.91-97.55-31.81-206.78-26.7-301,14,16.61,3.91,34.6,2.15,49.82-5.63,8-4.08,14.6-7,20.87.92,24.35-11,48.21,1.33,72.47-9.22C720,217.58,726,222.57,733.77,222.52Z" transform="translate(-204.12 -110.91)"/><path class="cls-13" d="M851.67,1104.78c-9.35,1.51-18.14,6.27-27.61,6.31s-20.13-8-17.43-17.11c-21.49,10.77-47.76,21.47-68.31,9q-2.93,8.15-5.86,16.28a56.88,56.88,0,0,0-53.8-12.24l-15.42-6.73q-3.6,7.21-7.19,14.44a23.29,23.29,0,0,1-14.26-11.28,27.55,27.55,0,0,0-9,10,474.81,474.81,0,0,0,238.24-3C866.31,1105.33,858.93,1103.61,851.67,1104.78Z" transform="translate(-204.12 -110.91)"/><ellipse class="cls-14" cx="541.94" cy="1091.32" rx="131.1" ry="13.41"/><g class="cls-15"><path class="cls-16" d="M1273.17,664.24c0,82.57-233.72,149.5-522,149.5s-522-66.93-522-149.5" transform="translate(-204.12 -110.91)"/><path class="cls-16" d="M229.1,664.24c0-82.56,233.72-149.5,522-149.5s522,66.94,522,149.5" transform="translate(-204.12 -110.91)"/></g><g class="cls-17"><path class="cls-16" d="M1272.27,714.53c-9.71,82-250.28,120.91-537.32,86.92s-511.88-128-502.17-210" transform="translate(-204.12 -110.91)"/><path class="cls-16" d="M232.78,591.45c9.71-82,250.27-120.91,537.32-86.92s511.87,128,502.17,210" transform="translate(-204.12 -110.91)"/></g><g class="cls-18"><path class="cls-16" d="M1272.62,683.24c0,82.57-237.51,149.5-530.5,149.5s-530.5-66.93-530.5-149.5" transform="translate(-204.12 -110.91)"/><path class="cls-16" d="M211.62,683.24c0-82.56,237.52-149.5,530.5-149.5s530.5,66.94,530.5,149.5" transform="translate(-204.12 -110.91)"/></g><g class="cls-19"><path class="cls-16" d="M1267.62,701.24c0,82.57-237.51,149.5-530.5,149.5s-530.5-66.93-530.5-149.5" transform="translate(-204.12 -110.91)"/><path class="cls-16" d="M206.62,701.24c0-82.56,237.52-149.5,530.5-149.5s530.5,66.94,530.5,149.5" transform="translate(-204.12 -110.91)"/></g><g class="cls-20"><path class="cls-16" d="M1123.57,284.41c47.82,67.31-107,259.44-345.86,429.14S306.49,966.26,258.66,899" transform="translate(-204.12 -110.91)"/><path class="cls-16" d="M258.66,899c-47.82-67.3,107-259.44,345.86-429.14s471.22-252.7,519.05-185.4" transform="translate(-204.12 -110.91)"/></g><g class="cls-21"><path class="cls-16" d="M993.91,1138.18c-76.8,30.31-226.25-166.06-333.79-438.59s-132.47-518-55.66-548.35" transform="translate(-204.12 -110.91)"/><path class="cls-16" d="M604.46,151.24c76.8-30.31,226.24,166.06,333.79,438.59s132.46,518,55.66,548.35" transform="translate(-204.12 -110.91)"/></g><g class="cls-22"><path class="cls-16" d="M1011.91,1136.18c-76.8,30.31-226.25-166.06-333.79-438.59s-132.47-518-55.66-548.35" transform="translate(-204.12 -110.91)"/><path class="cls-16" d="M622.46,149.24c76.8-30.31,226.24,166.06,333.79,438.59s132.46,518,55.66,548.35" transform="translate(-204.12 -110.91)"/></g><g class="cls-23"><path class="cls-16" d="M841.85,1171.31c-82.31,6.44-167.56-225.13-190.41-517.23S676.81,120,759.12,113.54" transform="translate(-204.12 -110.91)"/><path class="cls-16" d="M759.12,113.54c82.32-6.44,167.57,225.13,190.41,517.23s-25.36,534.1-107.68,540.54" transform="translate(-204.12 -110.91)"/></g><g class="cls-24"><path class="cls-16" d="M675.39,1180.51c-80.75-17.23-97.65-258.78-37.74-539.52S811.58,146.63,892.32,163.86" transform="translate(-204.12 -110.91)"/><path class="cls-16" d="M892.32,163.86c80.75,17.23,97.65,258.79,37.74,539.53s-173.92,494.35-254.67,477.12" transform="translate(-204.12 -110.91)"/></g><g class="cls-25"><path class="cls-16" d="M681.44,1188.86c-80.63-17.77-94.9-264.12-31.86-550.24S829.09,134.94,909.72,152.71" transform="translate(-204.12 -110.91)"/><path class="cls-16" d="M909.72,152.71c80.63,17.76,94.9,264.11,31.86,550.24s-179.51,503.67-260.14,485.91" transform="translate(-204.12 -110.91)"/></g><g class="cls-26"><path class="cls-16" d="M575.17,1194.33C500.6,1158.88,542.14,915.64,668,651S956.2,200.68,1030.77,236.13" transform="translate(-204.12 -110.91)"/><path class="cls-16" d="M1030.77,236.13c74.57,35.46,33,278.7-92.79,543.3s-288.24,450.36-362.81,414.9" transform="translate(-204.12 -110.91)"/></g><g class="cls-27"><path class="cls-16" d="M707.44,1194.86c-80.63-17.77-94.9-264.12-31.86-550.24S855.09,140.94,935.72,158.71" transform="translate(-204.12 -110.91)"/><path class="cls-16" d="M935.72,158.71c80.63,17.76,94.9,264.11,31.86,550.24s-179.51,503.67-260.14,485.91" transform="translate(-204.12 -110.91)"/></g><g class="cls-28"><path class="cls-16" d="M1212.45,923.7c-42.87,70.56-280.61,4.43-531-147.71S262.83,443.32,305.71,372.76" transform="translate(-204.12 -110.91)"/><path class="cls-16" d="M305.71,372.76c42.87-70.56,280.61-4.43,531,147.7s418.62,332.67,375.74,403.24" transform="translate(-204.12 -110.91)"/></g><g class="cls-29"><path class="cls-16" d="M1212.45,904.7c-42.87,70.56-280.61,4.43-531-147.71S262.83,424.32,305.71,353.76" transform="translate(-204.12 -110.91)"/><path class="cls-16" d="M305.71,353.76c42.87-70.56,280.61-4.43,531,147.7s418.62,332.67,375.74,403.24" transform="translate(-204.12 -110.91)"/></g><g class="cls-30"><path class="cls-16" d="M1216,919.81c-52.44,63.77-271.87-30-490.1-209.45S373.23,333.73,425.67,270" transform="translate(-204.12 -110.91)"/><path class="cls-16" d="M425.67,270c52.44-63.78,271.87,30,490.1,209.45S1268.41,856,1216,919.81" transform="translate(-204.12 -110.91)"/></g><g class="cls-31"><path class="cls-16" d="M1181.39,960.84c-42.87,70.56-276,7.24-520.68-141.43s-408.3-326.4-365.42-397" transform="translate(-204.12 -110.91)"/><path class="cls-16" d="M295.29,422.44c42.87-70.56,276-7.24,520.68,141.44s408.3,326.4,365.42,397" transform="translate(-204.12 -110.91)"/></g><g class="cls-32"><path class="cls-16" d="M1184.45,924.7c-42.87,70.56-280.61,4.43-531-147.71S234.83,444.32,277.71,373.76" transform="translate(-204.12 -110.91)"/><path class="cls-16" d="M277.71,373.76c42.87-70.56,280.61-4.43,531,147.7s418.62,332.67,375.74,403.24" transform="translate(-204.12 -110.91)"/></g><g class="cls-33"><path class="cls-16" d="M1160.57,344.41c47.82,67.31-107,259.44-345.86,429.14s-471.22,252.71-519,185.4" transform="translate(-204.12 -110.91)"/><path class="cls-16" d="M295.66,959c-47.82-67.3,107-259.44,345.86-429.14s471.22-252.7,519.05-185.4" transform="translate(-204.12 -110.91)"/></g><g class="cls-34"><path class="cls-16" d="M1150.57,322.41c47.82,67.31-107,259.44-345.86,429.14s-471.22,252.71-519,185.4" transform="translate(-204.12 -110.91)"/><path class="cls-16" d="M285.66,937c-47.82-67.3,107-259.44,345.86-429.14s471.22-252.7,519.05-185.4" transform="translate(-204.12 -110.91)"/></g><ellipse class="cls-35" cx="659.99" cy="729.99" rx="6.49" ry="6.63" transform="translate(-295.88 1254.19) rotate(-88.08)"/><path class="cls-35" d="M668.3,738.84l-17.15-.58a7.58,7.58,0,0,0-7.95,7.11v0l-.77,23a3.2,3.2,0,0,0,6.39.21l.78-23a1.35,1.35,0,0,1,1.4-1.09l-1.8,53.77a3.84,3.84,0,0,0,7.68.25l1-30,1.66.06-1,30a3.84,3.84,0,0,0,7.68.26L668,745.1a1.35,1.35,0,0,1,1.32,1.17l-.78,23a3.2,3.2,0,0,0,6.4.22l.77-23a7.57,7.57,0,0,0-7.44-7.63Z" transform="translate(-204.12 -110.91)"/><ellipse class="cls-35" cx="618.18" cy="727.05" rx="6.49" ry="6.63" transform="translate(-354.41 1182.02) rotate(-85.99)"/><path class="cls-35" d="M626.17,736.2,609.05,735a7.57,7.57,0,0,0-8.2,6.81v0l-1.61,22.95a3.2,3.2,0,0,0,6.38.45l1.61-22.94a1.35,1.35,0,0,1,1.45-1l-3.76,53.66a3.85,3.85,0,0,0,7.67.54l2.1-30,1.65.12-2.1,30a3.85,3.85,0,0,0,7.67.54l3.76-53.66a1.34,1.34,0,0,1,1.27,1.22l-1.6,23a3.2,3.2,0,0,0,6.38.45l1.61-23a7.57,7.57,0,0,0-7.16-7.89Z" transform="translate(-204.12 -110.91)"/><ellipse class="cls-35" cx="576.17" cy="724.05" rx="6.49" ry="6.63" transform="matrix(0.07, -1, 1, 0.07, -390.25, 1137.67)"/><path class="cls-35" d="M584.16,733.19,567,732a7.59,7.59,0,0,0-8.2,6.82v0l-1.59,22.95a3.2,3.2,0,0,0,6.38.45l1.59-23a1.37,1.37,0,0,1,1.45-1l-3.74,53.67a3.85,3.85,0,0,0,7.67.53l2.09-30,1.65.12-2.08,30a3.85,3.85,0,0,0,7.67.54l3.73-53.66a1.34,1.34,0,0,1,1.28,1.21l-1.6,23a3.2,3.2,0,0,0,6.38.44l1.6-23a7.57,7.57,0,0,0-7.16-7.89Z" transform="translate(-204.12 -110.91)"/><ellipse class="cls-35" cx="533.58" cy="720.08" rx="6.49" ry="6.63" transform="translate(-431.88 1082.03) rotate(-85.31)"/><path class="cls-35" d="M541.46,729.32l-17.11-1.4a7.57,7.57,0,0,0-8.28,6.72h0l-1.88,22.93a3.2,3.2,0,0,0,6.37.53l1.88-22.93a1.37,1.37,0,0,1,1.46-1l-4.4,53.62a3.84,3.84,0,0,0,7.66.63l2.46-29.95,1.65.14-2.46,29.94a3.85,3.85,0,0,0,7.67.63l4.4-53.61a1.34,1.34,0,0,1,1.26,1.23l-1.88,22.93a3.2,3.2,0,0,0,6.37.53l1.88-23a7.57,7.57,0,0,0-7-8Z" transform="translate(-204.12 -110.91)"/><ellipse class="cls-35" cx="494.47" cy="712.17" rx="6.49" ry="6.63" transform="translate(-471.4 1015.3) rotate(-83.75)"/><path class="cls-35" d="M502.09,721.62,485,719.75a7.58,7.58,0,0,0-8.46,6.49v0l-2.5,22.87a3.19,3.19,0,0,0,6.35.7L482.93,727a1.35,1.35,0,0,1,1.48-1l-5.85,53.47a3.84,3.84,0,0,0,7.64.84l3.27-29.86,1.65.18-3.27,29.86a3.84,3.84,0,0,0,7.64.84l5.86-53.48a1.34,1.34,0,0,1,1.22,1.27L500.07,752a3.2,3.2,0,0,0,6.36.69l2.5-22.89a7.56,7.56,0,0,0-6.84-8.16Z" transform="translate(-204.12 -110.91)"/><ellipse class="cls-35" cx="456.25" cy="707.41" rx="6.49" ry="6.63" transform="translate(-520.16 931.42) rotate(-80.63)"/><path class="cls-35" d="M463.35,717.26l-16.94-2.8a7.59,7.59,0,0,0-8.8,6h0l-3.75,22.7a3.2,3.2,0,0,0,6.31,1l3.75-22.7a1.34,1.34,0,0,1,1.53-.89l-8.76,53.07a3.85,3.85,0,0,0,7.59,1.25l4.89-29.64,1.64.27-4.9,29.64a3.85,3.85,0,0,0,7.59,1.25l8.76-53.07a1.35,1.35,0,0,1,1.16,1.33l-3.75,22.71a3.2,3.2,0,0,0,6.31,1l3.75-22.72a7.57,7.57,0,0,0-6.38-8.53Z" transform="translate(-204.12 -110.91)"/><ellipse class="cls-35" cx="414.93" cy="698.73" rx="6.49" ry="6.63" transform="translate(-560.52 843.67) rotate(-77.65)"/><path class="cls-35" d="M421.51,708.94l-16.77-3.68a7.58,7.58,0,0,0-9.1,5.56v0l-4.93,22.47a3.2,3.2,0,0,0,6.25,1.37l4.92-22.46a1.35,1.35,0,0,1,1.58-.82L392,764a3.85,3.85,0,0,0,7.52,1.64l6.42-29.35,1.62.36L401.08,766a3.85,3.85,0,0,0,7.52,1.64L420.11,715a1.35,1.35,0,0,1,1.08,1.39l-4.93,22.48a3.2,3.2,0,0,0,6.25,1.37l4.93-22.49a7.57,7.57,0,0,0-5.93-8.85Z" transform="translate(-204.12 -110.91)"/><ellipse class="cls-35" cx="373.62" cy="686.89" rx="6.49" ry="6.63" transform="translate(-585.94 777.81) rotate(-76.42)"/><path class="cls-35" d="M380,697.24l-16.69-4a7.59,7.59,0,0,0-9.22,5.36v0l-5.4,22.36a3.2,3.2,0,0,0,6.21,1.51l5.4-22.36a1.35,1.35,0,0,1,1.6-.78L349.25,751.6a3.84,3.84,0,0,0,7.47,1.8l7.06-29.2,1.61.39-7.06,29.2a3.85,3.85,0,0,0,7.48,1.81l12.63-52.29a1.35,1.35,0,0,1,1.06,1.41l-5.41,22.37a3.2,3.2,0,0,0,6.22,1.5l5.41-22.38a7.57,7.57,0,0,0-5.74-9Z" transform="translate(-204.12 -110.91)"/><ellipse class="cls-35" cx="335.19" cy="673.31" rx="6.49" ry="6.63" transform="translate(-609.51 693.74) rotate(-73.59)"/><path class="cls-35" d="M341,684l-16.47-4.85a7.57,7.57,0,0,0-9.47,4.9h0l-6.5,22.07a3.2,3.2,0,0,0,6.13,1.81l6.5-22.06a1.35,1.35,0,0,1,1.63-.71l-15.19,51.61a3.84,3.84,0,0,0,7.37,2.17l8.49-28.82,1.59.47-8.49,28.82a3.85,3.85,0,0,0,7.38,2.17L339.2,690a1.34,1.34,0,0,1,1,1.46l-6.5,22.07a3.2,3.2,0,0,0,6.13,1.81l6.51-22.09A7.57,7.57,0,0,0,341,684Z" transform="translate(-204.12 -110.91)"/><ellipse class="cls-35" cx="297.26" cy="655.33" rx="6.49" ry="6.63" transform="translate(-619.7 642.87) rotate(-73.46)"/><path class="cls-35" d="M303.07,666l-16.45-4.89a7.58,7.58,0,0,0-9.48,4.88v0l-6.55,22a3.2,3.2,0,0,0,6.14,1.83l6.54-22a1.35,1.35,0,0,1,1.64-.7l-15.31,51.56a3.85,3.85,0,0,0,7.37,2.19l8.55-28.8,1.59.48-8.55,28.79a3.85,3.85,0,0,0,7.37,2.19L301.23,672a1.33,1.33,0,0,1,1,1.46l-6.55,22.06a3.2,3.2,0,0,0,6.13,1.82l6.55-22.07a7.56,7.56,0,0,0-5.27-9.26Z" transform="translate(-204.12 -110.91)"/><ellipse class="cls-35" cx="702.97" cy="731.98" rx="6.49" ry="6.63" transform="translate(-246.9 1309.42) rotate(-88.87)"/><path class="cls-35" d="M711.4,740.71l-17.16-.34a7.58,7.58,0,0,0-7.84,7.22v0l-.46,23a3.2,3.2,0,0,0,6.4.13l.45-23a1.37,1.37,0,0,1,1.39-1.11l-1.06,53.79a3.85,3.85,0,0,0,7.69.15l.59-30,1.66,0-.6,30a3.85,3.85,0,0,0,7.69.15L711.22,747a1.35,1.35,0,0,1,1.33,1.15l-.46,23a3.2,3.2,0,0,0,6.4.13l.45-23a7.57,7.57,0,0,0-7.54-7.53Z" transform="translate(-204.12 -110.91)"/><ellipse class="cls-35" cx="541.27" cy="621.06" rx="6.63" ry="6.49"/><path class="cls-35" d="M754,740.54H736.83a7.57,7.57,0,0,0-7.7,7.37v23a3.2,3.2,0,0,0,6.4,0v-23a1.35,1.35,0,0,1,1.37-1.14v53.79a3.85,3.85,0,0,0,7.69,0v-30h1.65v30a3.85,3.85,0,0,0,7.7,0V746.8a1.33,1.33,0,0,1,1.35,1.13v23a3.2,3.2,0,0,0,6.4,0v-23a7.57,7.57,0,0,0-7.69-7.37Z" transform="translate(-204.12 -110.91)"/><ellipse class="cls-35" cx="788.97" cy="729.98" rx="6.49" ry="6.63" transform="translate(-148.74 1404.68) rotate(-89.74)"/><path class="cls-35" d="M797.55,738.58l-17.17-.08a7.58,7.58,0,0,0-7.74,7.34h0l-.1,23a3.2,3.2,0,0,0,6.39,0l.11-23a1.36,1.36,0,0,1,1.37-1.13l-.24,53.79a3.85,3.85,0,0,0,7.69,0l.14-30h1.65l-.14,30.05a3.85,3.85,0,0,0,7.7,0l.24-53.79A1.34,1.34,0,0,1,798.8,746l-.1,23a3.2,3.2,0,0,0,6.39,0l.11-23a7.56,7.56,0,0,0-7.65-7.41Z" transform="translate(-204.12 -110.91)"/><ellipse class="cls-35" cx="829.8" cy="728.98" rx="6.63" ry="6.49" transform="translate(-214.15 -99.34) rotate(-0.79)"/><path class="cls-35" d="M838.53,737.42l-17.17.24a7.57,7.57,0,0,0-7.59,7.48h0l.31,23a3.2,3.2,0,0,0,6.4-.09l-.32-23a1.36,1.36,0,0,1,1.35-1.16l.75,53.79a3.85,3.85,0,0,0,7.69-.11l-.42-30,1.66,0,.42,30a3.85,3.85,0,0,0,7.69-.11l-.75-53.79a1.35,1.35,0,0,1,1.37,1.11l.32,23a3.2,3.2,0,0,0,6.39-.09l-.31-23a7.57,7.57,0,0,0-7.79-7.27Z" transform="translate(-204.12 -110.91)"/><ellipse class="cls-35" cx="871.88" cy="727.01" rx="6.63" ry="6.49" transform="translate(-233.82 -73.75) rotate(-2.4)"/><path class="cls-35" d="M880.84,735.2l-17.16.72a7.57,7.57,0,0,0-7.38,7.69h0l1,23a3.2,3.2,0,0,0,6.39-.27l-1-23a1.36,1.36,0,0,1,1.32-1.2l2.26,53.75a3.84,3.84,0,0,0,7.68-.32l-1.26-30,1.66-.07,1.25,30a3.85,3.85,0,0,0,7.69-.33L881,741.46a1.35,1.35,0,0,1,1.4,1.07l1,23a3.2,3.2,0,0,0,6.39-.27l-1-23a7.57,7.57,0,0,0-8-7Z" transform="translate(-204.12 -110.91)"/><ellipse class="cls-35" cx="917.57" cy="723.02" rx="6.63" ry="6.49" transform="translate(-239.85 -63.11) rotate(-2.93)"/><path class="cls-35" d="M926.61,731.13l-17.15.88a7.58,7.58,0,0,0-7.31,7.75v0l1.18,23a3.2,3.2,0,0,0,6.39-.33l-1.18-23a1.35,1.35,0,0,1,1.31-1.2L912.6,792a3.85,3.85,0,0,0,7.68-.39l-1.54-30,1.66-.09,1.53,30a3.85,3.85,0,0,0,7.68-.39l-2.74-53.72a1.34,1.34,0,0,1,1.41,1.05l1.17,23a3.2,3.2,0,0,0,6.39-.32l-1.18-23a7.56,7.56,0,0,0-8-7Z" transform="translate(-204.12 -110.91)"/><ellipse class="cls-35" cx="963.28" cy="717.22" rx="6.63" ry="6.49" transform="translate(-283.65 10.6) rotate(-6.93)"/><path class="cls-35" d="M972.86,724.68l-17,2.07a7.57,7.57,0,0,0-6.75,8.25v0l2.78,22.84a3.19,3.19,0,0,0,6.34-.78l-2.77-22.83a1.35,1.35,0,0,1,1.22-1.29l6.49,53.4a3.85,3.85,0,0,0,7.64-.93l-3.63-29.82,1.65-.2,3.62,29.82a3.85,3.85,0,0,0,7.64-.93l-6.5-53.4a1.34,1.34,0,0,1,1.48,1l2.78,22.84a3.2,3.2,0,0,0,6.35-.77l-2.78-22.86a7.57,7.57,0,0,0-8.52-6.39Z" transform="translate(-204.12 -110.91)"/><ellipse class="cls-35" cx="1006.78" cy="710.44" rx="6.63" ry="6.49" transform="translate(-308.18 66.26) rotate(-9.57)"/><path class="cls-35" d="M1016.7,717.45l-16.93,2.85a7.58,7.58,0,0,0-6.37,8.55v0l3.83,22.69a3.2,3.2,0,0,0,6.3-1.07l-3.82-22.68a1.36,1.36,0,0,1,1.16-1.34l8.94,53a3.84,3.84,0,0,0,7.58-1.28l-5-29.62,1.64-.28,5,29.63a3.84,3.84,0,0,0,7.58-1.28l-8.94-53a1.35,1.35,0,0,1,1.53.89l3.82,22.69a3.2,3.2,0,0,0,6.31-1.06l-3.83-22.71a7.57,7.57,0,0,0-8.8-6Z" transform="translate(-204.12 -110.91)"/><ellipse class="cls-35" cx="1051.21" cy="702.54" rx="6.63" ry="6.49" transform="translate(-315.16 93.85) rotate(-10.57)"/><path class="cls-35" d="M1061.25,709.37l-16.88,3.15a7.57,7.57,0,0,0-6.21,8.66v0l4.22,22.62a3.2,3.2,0,0,0,6.29-1.17L1044.45,720a1.35,1.35,0,0,1,1.14-1.37l9.86,52.88a3.85,3.85,0,0,0,7.56-1.41l-5.51-29.53,1.63-.31,5.51,29.53a3.85,3.85,0,0,0,7.56-1.41l-9.87-52.88a1.34,1.34,0,0,1,1.54.86l4.22,22.62a3.2,3.2,0,0,0,6.29-1.17l-4.22-22.64a7.58,7.58,0,0,0-8.91-5.84Z" transform="translate(-204.12 -110.91)"/><ellipse class="cls-35" cx="1093.19" cy="691.25" rx="6.63" ry="6.49" transform="translate(-352.15 216.63) rotate(-15.97)"/><path class="cls-35" d="M1103.83,697.11l-16.51,4.73a7.57,7.57,0,0,0-5.37,9.21h0l6.33,22.12a3.2,3.2,0,0,0,6.15-1.76l-6.33-22.11a1.37,1.37,0,0,1,1-1.47l14.8,51.72a3.85,3.85,0,0,0,7.39-2.12L1103,728.56l1.59-.46L1112.9,757a3.85,3.85,0,0,0,7.39-2.12l-14.8-51.72a1.35,1.35,0,0,1,1.61.71l6.33,22.12a3.2,3.2,0,0,0,6.15-1.76l-6.34-22.13a7.56,7.56,0,0,0-9.41-5Z" transform="translate(-204.12 -110.91)"/><ellipse class="cls-35" cx="1140.9" cy="676.34" rx="6.63" ry="6.49" transform="translate(-349.26 241.1) rotate(-16.51)"/><path class="cls-35" d="M1151.59,682.1,1135.12,687a7.57,7.57,0,0,0-5.28,9.26h0l6.54,22.06a3.2,3.2,0,0,0,6.13-1.81L1136,694.44a1.36,1.36,0,0,1,1-1.48l15.28,51.58a3.84,3.84,0,0,0,7.37-2.18l-8.53-28.81,1.59-.47,8.53,28.81a3.85,3.85,0,0,0,7.38-2.19l-15.29-51.58a1.34,1.34,0,0,1,1.62.7l6.54,22.06a3.2,3.2,0,0,0,6.13-1.82L1161.05,687a7.56,7.56,0,0,0-9.46-4.89Z" transform="translate(-204.12 -110.91)"/><ellipse class="cls-35" cx="1180.73" cy="657.46" rx="6.63" ry="6.49" transform="translate(-365.46 387.71) rotate(-22.36)"/><path class="cls-35" d="M1192,662.1l-15.88,6.53a7.59,7.59,0,0,0-4.32,9.75v0l8.75,21.28a3.2,3.2,0,0,0,5.92-2.44L1177.68,676a1.36,1.36,0,0,1,.83-1.57L1199,724.15a3.85,3.85,0,0,0,7.11-2.93l-11.43-27.78,1.53-.63,11.43,27.78a3.84,3.84,0,0,0,7.11-2.92l-20.46-49.75a1.34,1.34,0,0,1,1.68.52l8.75,21.28a3.2,3.2,0,0,0,5.92-2.43L1201.86,666a7.57,7.57,0,0,0-9.91-3.9Z" transform="translate(-204.12 -110.91)"/></g></g></svg>