<svg xmlns="http://www.w3.org/2000/svg" viewBox="0 0 538 499.92"><defs><style>.cls-1,.cls-2{stroke:#000;stroke-miterlimit:10;}.cls-2{fill:none;stroke-linecap:round;stroke-width:42px;}</style></defs><g id="圖層_2" data-name="圖層 2"><g id="圖層_1-2" data-name="圖層 1"><path class="cls-1" d="M499.28,82.42H50.7c-21.86,0-40.2,17.5-41,39.1L.52,382.14c-.76,21.59,16.34,39.09,38.2,39.09h197.9l-.92,26.07H90.57a13.69,13.69,0,0,0-13.65,13L76,486.39a12.56,12.56,0,0,0,12.73,13h343a13.68,13.68,0,0,0,13.65-13l.93-26.06a12.57,12.57,0,0,0-12.74-13H288.48l.92-26.07H487.3c21.86,0,40.2-17.5,41-39.09l9.22-260.62C538.24,99.92,521.14,82.42,499.28,82.42ZM476,369.11H53.76l8.29-234.56H484.24Z"/><circle class="cls-1" cx="430.05" cy="198.25" r="29.45"/><circle class="cls-1" cx="423.95" cy="285.59" r="29.45"/><line class="cls-2" x1="211.95" y1="21" x2="265.88" y2="102.61"/><line class="cls-2" x1="364.71" y1="22.56" x2="309.12" y2="103.05"/></g></g></svg>