<svg xmlns="http://www.w3.org/2000/svg" viewBox="0 0 346 346"><defs><style>.cls-1{isolation:isolate;}.cls-2{fill:#fff;}.cls-3{fill:#6d6e71;opacity:0.3;mix-blend-mode:multiply;}.cls-4{fill:#f4f4f4;}.cls-5{fill:#c4c4c4;}.cls-6{fill:#999;}.cls-7,.cls-8{fill:none;stroke-linecap:round;stroke-linejoin:round;}.cls-7{stroke:gray;}.cls-8{stroke:#33314f;}</style></defs><title>資產 2</title><g class="cls-1"><g id="圖層_2" data-name="圖層 2"><g id="圖層_1-2" data-name="圖層 1"><circle class="cls-2" cx="173" cy="173" r="173"/><path class="cls-2" d="M77,199.15s-8-36.4-27.3-23.89-1.14,58,30.71,47.78"/><path class="cls-2" d="M255.57,199.15s7.95-36.4,27.3-23.89,1.13,58-30.72,47.78"/><path class="cls-2" d="M75.85,175.26l.19,0-.19,0Z"/><path class="cls-2" d="M263.52,108.15C260,78.7,226,58.11,161.15,55.83c-55-1.93-61.41,31.85-61.41,31.85s-20.48-6.82-27.31,9.1c-5.41,12.63,3.42,78.48,3.42,78.48h0c-.11,1.9,0,3.77,0,5.76,0,52.78,40.48,118.23,90.42,118.23S256.7,233.8,256.7,181C256.7,181,266.93,136.59,263.52,108.15Z"/><path class="cls-3" d="M263.52,108.15c-1.22-10.26-6.25-19.42-14.9-27.13a40,40,0,0,1,3.22,11.56C255.25,121,245,165.45,245,165.45c0,52.76-40.47,118.21-90.42,118.21-21.16,0-40.61-11.77-56-29.32,16.57,25.84,40.74,44.91,67.69,44.91,49.95,0,90.43-65.45,90.43-118.23C256.7,181,266.93,136.59,263.52,108.15Z"/><path class="cls-4" d="M110.07,210.42H218.7s5.19,57.45-27.4,57.45H136S106.29,265.22,110.07,210.42Z"/><path class="cls-2" d="M178.24,220.81a10.71,10.71,0,0,1-10.71,10.71H120.79a10.72,10.72,0,0,1-10.71-10.71h0a10.72,10.72,0,0,1,10.71-10.72h46.74a10.71,10.71,0,0,1,10.71,10.72Z"/><path class="cls-4" d="M222.06,210.42H210.58c-.72,17-5.48,43.82-28.44,43.82h-57a22.93,22.93,0,0,1-9.46-3.71c8,16.2,21.14,17.34,21.14,17.34h57C227.42,267.87,222.06,210.42,222.06,210.42Z"/><path class="cls-5" d="M263.52,108.15C260,78.7,226,58.11,161.15,55.83c-55-1.93-61.41,31.85-61.41,31.85s-20.48-6.82-27.31,9.1c-3.51,8.21-1,38.87,1.16,59.35.9.07,1.44.09,1.44.09s27.26-11,35.7-38.3c0,0,40.9,52.58,149.31,37.65l1.4-.65C263.55,140.32,265.22,122.27,263.52,108.15Z"/><path class="cls-6" d="M99.74,87.68h0s-20.48-6.82-27.31,9.1c-3.51,8.21-1,38.87,1.16,59.35.9.07,1.44.09,1.44.09s27.26-11,35.7-38.3c0,0,13.85,17.75,46.7,29.69C119.63,127,104.62,104.35,99.74,87.68Z"/><path class="cls-7" d="M110.08,210.42h112s5.36,57.45-28.24,57.45h-57S106.19,265.22,110.08,210.42Z"/><line class="cls-7" x1="76.97" y1="174.07" x2="110.08" y2="210.42"/><line class="cls-7" x1="222.06" y1="210.42" x2="259.06" y2="181.21"/><line class="cls-8" x1="219.14" y1="248.4" x2="232.77" y2="256.19"/><line class="cls-8" x1="113.97" y1="250.34" x2="99.78" y2="256.19"/><path class="cls-3" d="M78.92,205.55s-11-16.23-19.48-9.74,7.79,27.92,20.13,23.38"/><path class="cls-3" d="M256.41,205.55s11-16.23,19.47-9.74-7.79,27.92-20.12,23.38"/><path class="cls-7" d="M77,199.15s-8-36.4-27.3-23.89-1.14,58,30.71,47.78"/><path class="cls-7" d="M255.57,199.15s7.95-36.4,27.3-23.89,1.13,58-30.72,47.78"/><path class="cls-7" d="M75.85,175.26l.19,0-.19,0Z"/><path class="cls-7" d="M263.52,108.15C260,78.7,226,58.11,161.15,55.83c-55-1.93-61.41,31.85-61.41,31.85s-20.48-6.82-27.31,9.1c-5.41,12.63,3.42,78.48,3.42,78.48l.19,0c-.11,1.9-.19,3.82-.19,5.81,0,52.78,40.48,118.23,90.42,118.23S256.7,233.8,256.7,181C256.7,181,266.93,136.59,263.52,108.15Z"/></g></g></g></svg>