<svg xmlns="http://www.w3.org/2000/svg" viewBox="0 0 346 346"><defs><style>.cls-1{isolation:isolate;}.cls-2{fill:#fff;}.cls-3,.cls-4{fill:#c4c4c4;}.cls-4,.cls-5{opacity:0.3;mix-blend-mode:multiply;}.cls-5{fill:#6d6e71;}.cls-6{fill:none;stroke:gray;stroke-linecap:round;stroke-linejoin:round;}</style></defs><title>資產 4</title><g class="cls-1"><g id="圖層_2" data-name="圖層 2"><g id="圖層_1-2" data-name="圖層 1"><circle class="cls-2" cx="173" cy="173" r="173"/><path class="cls-3" d="M283.94,158.37s-42.84,17.92-66.21-5.45a46.29,46.29,0,0,1-31.81,30.34c-.07,1.3-.13,2.62-.13,4,0,36.14,27.73,81,61.93,81s61.93-44.82,61.93-81C309.65,187.24,291,176.29,283.94,158.37Z"/><path class="cls-3" d="M185.79,183.3s-6-45.1-2.33-53.75c4.67-10.91,18.69-6.23,18.69-6.23s4.41-23.13,42.06-21.81c44.4,1.56,67.69,15.66,70.11,35.83,2.33,19.47-4.67,49.9-4.67,49.9s-18.7-11-25.71-28.87c0,0-42.84,17.92-66.21-5.45A46.29,46.29,0,0,1,185.79,183.3Z"/><path class="cls-3" d="M186.57,199.66s-5.45-24.93-18.69-16.36-.78,39.73,21,32.71"/><path class="cls-3" d="M308.87,199.66s5.45-24.93,18.69-16.36.78,39.73-21,32.71"/><path class="cls-4" d="M306.15,188s-14.23,76.46-86.25,66.68l15.7,11.59a40.65,40.65,0,0,0,12.12,1.89c33.69,0,61.08-43.49,61.89-79.33Z"/><path class="cls-4" d="M187,204s-7.56-11.11-13.34-6.67,5.34,19.12,13.78,16"/><path class="cls-4" d="M308.56,204s7.55-11.11,13.33-6.67-5.33,19.12-13.78,16"/><path class="cls-3" d="M186.57,199.66s-5.45-24.93-18.69-16.36-.78,39.73,21,32.71"/><path class="cls-3" d="M308.87,199.66s5.45-24.93,18.69-16.36.78,39.73-21,32.71"/><path class="cls-3" d="M185.92,183.26c-.07,1.3-.13,2.62-.13,4,0,36.14,27.73,81,61.93,81s61.93-44.82,61.93-81"/><path class="cls-3" d="M184.1,180.43s-4-45.32.09-53.79c5.16-10.69,19-5.39,19-5.39s5.44-22.91,43-19.89c44.28,3.55,66.91,18.69,68.42,39C316,159.87,307.65,190,307.65,190"/><path class="cls-2" d="M127.15,158.37s-42.84,17.92-66.21-5.45a46.29,46.29,0,0,1-31.81,30.34c-.07,1.3-.13,2.62-.13,4,0,36.14,27.73,81,61.93,81s61.92-44.82,61.92-81C152.85,187.24,134.16,176.29,127.15,158.37Z"/><path class="cls-2" d="M29,183.3s-6-45.1-2.34-53.75c4.68-10.91,18.7-6.23,18.7-6.23s4.4-23.13,42.06-21.81c44.4,1.56,67.69,15.66,70.11,35.83,2.33,19.47-4.68,49.9-4.68,49.9s-18.69-11-25.7-28.87c0,0-42.84,17.92-66.21-5.45A46.29,46.29,0,0,1,29,183.3Z"/><path class="cls-2" d="M29.78,199.66s-5.45-24.93-18.69-16.36S10.31,223,32.12,216"/><path class="cls-2" d="M152.07,199.66s5.46-24.93,18.7-16.36.78,39.73-21,32.71"/><path class="cls-5" d="M149.36,188s-14.23,76.46-86.25,66.68l15.7,11.59a40.65,40.65,0,0,0,12.12,1.89c33.69,0,61.08-43.49,61.89-79.33Z"/><path class="cls-5" d="M30.22,204s-7.56-11.11-13.34-6.67,5.33,19.12,13.78,16"/><path class="cls-5" d="M151.77,204s7.55-11.11,13.33-6.67-5.33,19.12-13.78,16"/><path class="cls-6" d="M29.78,199.66s-5.45-24.93-18.69-16.36S10.31,223,32.12,216"/><path class="cls-6" d="M152.07,199.66s5.46-24.93,18.7-16.36.78,39.73-21,32.71"/><path class="cls-6" d="M29.13,183.26c-.07,1.3-.13,2.62-.13,4,0,36.14,27.73,81,61.93,81s61.92-44.82,61.92-81"/><path class="cls-6" d="M29,183.3s-6-45.1-2.34-53.75c4.68-10.91,18.7-6.23,18.7-6.23s4.4-23.13,42.06-21.81c44.4,1.56,67.69,15.66,70.11,35.83,2.33,19.47-4.68,49.9-4.68,49.9"/></g></g></g></svg>