<svg xmlns="http://www.w3.org/2000/svg" viewBox="0 0 346 346"><defs><style>.cls-1{fill:#fff;}.cls-2{fill:gray;}</style></defs><title>資產 5</title><g id="圖層_2" data-name="圖層 2"><g id="圖層_1-2" data-name="圖層 1"><circle class="cls-1" cx="173" cy="173" r="173"/><path class="cls-2" d="M87.72,88.62a13.48,13.48,0,1,0-22.45,0,19.24,19.24,0,0,0-8,15.66v5.78A1.92,1.92,0,0,0,59.16,112H93.83a1.92,1.92,0,0,0,1.92-1.92v-5.78A19.24,19.24,0,0,0,87.72,88.62ZM76.5,71.54a9.63,9.63,0,1,1-9.63,9.63A9.64,9.64,0,0,1,76.5,71.54Zm15.4,36.59H61.09v-3.85a15.39,15.39,0,0,1,6.78-12.76,13.45,13.45,0,0,0,17.25,0,15.38,15.38,0,0,1,6.78,12.76Z"/><path class="cls-2" d="M137.79,87.87a13.33,13.33,0,0,0,2.26-7.45,13.48,13.48,0,0,0-27,0,13.33,13.33,0,0,0,2.26,7.45,19.25,19.25,0,0,0-8,15.66v5.78a1.92,1.92,0,0,0,1.93,1.92H143.9a1.92,1.92,0,0,0,1.93-1.92v-5.78A19.25,19.25,0,0,0,137.79,87.87ZM126.57,70.79a9.63,9.63,0,1,1-9.63,9.63A9.64,9.64,0,0,1,126.57,70.79ZM142,107.38H111.16v-3.85A15.36,15.36,0,0,1,118,90.77a13.43,13.43,0,0,0,17.24,0A15.36,15.36,0,0,1,142,103.53Z"/><path class="cls-2" d="M187.87,87.12a13.49,13.49,0,1,0-22.45,0,19.24,19.24,0,0,0-8,15.66v5.78a1.92,1.92,0,0,0,1.92,1.92H194a1.92,1.92,0,0,0,1.92-1.92v-5.78A19.24,19.24,0,0,0,187.87,87.12ZM176.64,70A9.63,9.63,0,1,1,167,79.67,9.64,9.64,0,0,1,176.64,70Zm15.41,36.59H161.24v-3.85A15.38,15.38,0,0,1,168,90a13.45,13.45,0,0,0,17.25,0,15.38,15.38,0,0,1,6.78,12.76Z"/><path class="cls-2" d="M237.94,86.37a13.48,13.48,0,1,0-22.44,0,19.25,19.25,0,0,0-8,15.66v5.77a1.92,1.92,0,0,0,1.93,1.93h34.66A1.92,1.92,0,0,0,246,107.8V102A19.25,19.25,0,0,0,237.94,86.37ZM226.72,69.29a9.63,9.63,0,1,1-9.63,9.62A9.64,9.64,0,0,1,226.72,69.29Zm15.41,36.59H211.31V102a15.36,15.36,0,0,1,6.79-12.76,13.43,13.43,0,0,0,17.24,0A15.39,15.39,0,0,1,242.13,102Z"/><path class="cls-2" d="M288,85.62a13.48,13.48,0,1,0-22.44,0,19.24,19.24,0,0,0-8,15.65v5.78a1.92,1.92,0,0,0,1.93,1.93h34.67a1.92,1.92,0,0,0,1.92-1.93v-5.78A19.24,19.24,0,0,0,288,85.62ZM276.79,68.53a9.63,9.63,0,1,1-9.63,9.63A9.64,9.64,0,0,1,276.79,68.53Zm15.41,36.6H261.38v-3.86a15.37,15.37,0,0,1,6.79-12.75,13.43,13.43,0,0,0,17.24,0,15.35,15.35,0,0,1,6.79,12.75Z"/><path class="cls-2" d="M87.72,147.35a13.48,13.48,0,1,0-22.45,0,19.23,19.23,0,0,0-8,15.65v5.78a1.92,1.92,0,0,0,1.92,1.93H93.83a1.92,1.92,0,0,0,1.92-1.93V163A19.23,19.23,0,0,0,87.72,147.35ZM76.5,130.26a9.63,9.63,0,1,1-9.63,9.63A9.64,9.64,0,0,1,76.5,130.26Zm15.4,36.6H61.09V163a15.35,15.35,0,0,1,6.79-12.75,13.47,13.47,0,0,0,17.24,0A15.36,15.36,0,0,1,91.9,163Z"/><path class="cls-2" d="M137.79,146.6a13.48,13.48,0,1,0-22.44,0,19.24,19.24,0,0,0-8,15.65V168a1.92,1.92,0,0,0,1.93,1.93H143.9a1.92,1.92,0,0,0,1.93-1.93v-5.78A19.24,19.24,0,0,0,137.79,146.6Zm-11.22-17.09a9.63,9.63,0,1,1-9.63,9.63A9.64,9.64,0,0,1,126.57,129.51ZM142,166.11H111.16v-3.86A15.35,15.35,0,0,1,118,149.5a13.47,13.47,0,0,0,17.24,0A15.35,15.35,0,0,1,142,162.25Z"/><path class="cls-2" d="M187.87,145.85a13.49,13.49,0,1,0-22.45,0,19.22,19.22,0,0,0-8,15.65v5.78a1.92,1.92,0,0,0,1.92,1.93H194a1.92,1.92,0,0,0,1.92-1.93V161.5A19.22,19.22,0,0,0,187.87,145.85Zm-11.23-17.09a9.63,9.63,0,1,1-9.63,9.63A9.64,9.64,0,0,1,176.64,128.76Zm15.41,36.6H161.24V161.5A15.39,15.39,0,0,1,168,148.74a13.45,13.45,0,0,0,17.25,0,15.39,15.39,0,0,1,6.78,12.76Z"/><path class="cls-2" d="M237.94,145.1a13.48,13.48,0,1,0-22.44,0,19.23,19.23,0,0,0-8,15.65v5.78a1.92,1.92,0,0,0,1.93,1.92h34.66a1.92,1.92,0,0,0,1.93-1.92v-5.78A19.23,19.23,0,0,0,237.94,145.1ZM226.72,128a9.63,9.63,0,1,1-9.63,9.63A9.64,9.64,0,0,1,226.72,128Zm15.41,36.59H211.31v-3.85A15.38,15.38,0,0,1,218.1,148a13.43,13.43,0,0,0,17.24,0,15.4,15.4,0,0,1,6.79,12.76Z"/><path class="cls-2" d="M288,144.35a13.48,13.48,0,1,0-22.44,0,19.21,19.21,0,0,0-8,15.65v5.78a1.92,1.92,0,0,0,1.93,1.92h34.67a1.92,1.92,0,0,0,1.92-1.92V160A19.21,19.21,0,0,0,288,144.35Zm-11.22-17.09a9.63,9.63,0,1,1-9.63,9.63A9.64,9.64,0,0,1,276.79,127.26Zm15.41,36.59H261.38V160a15.4,15.4,0,0,1,6.79-12.76,13.43,13.43,0,0,0,17.24,0A15.38,15.38,0,0,1,292.2,160Z"/><path class="cls-2" d="M87.72,206.07a13.48,13.48,0,1,0-22.45,0,19.24,19.24,0,0,0-8,15.66v5.78a1.92,1.92,0,0,0,1.92,1.92H93.83a1.92,1.92,0,0,0,1.92-1.92v-5.78A19.24,19.24,0,0,0,87.72,206.07ZM76.5,189a9.63,9.63,0,1,1-9.63,9.63A9.64,9.64,0,0,1,76.5,189Zm15.4,36.59H61.09v-3.85A15.36,15.36,0,0,1,67.88,209a13.43,13.43,0,0,0,17.24,0,15.38,15.38,0,0,1,6.78,12.76Z"/><path class="cls-2" d="M137.79,205.32a13.33,13.33,0,0,0,2.26-7.45,13.48,13.48,0,1,0-27,0,13.33,13.33,0,0,0,2.26,7.45,19.25,19.25,0,0,0-8,15.66v5.78a1.92,1.92,0,0,0,1.93,1.92H143.9a1.92,1.92,0,0,0,1.93-1.92V221A19.25,19.25,0,0,0,137.79,205.32Zm-11.22-17.08a9.63,9.63,0,1,1-9.63,9.63A9.64,9.64,0,0,1,126.57,188.24ZM142,224.83H111.16V221A15.36,15.36,0,0,1,118,208.22a13.43,13.43,0,0,0,17.24,0A15.36,15.36,0,0,1,142,221Z"/><path class="cls-2" d="M187.87,204.57a13.49,13.49,0,1,0-22.45,0,19.24,19.24,0,0,0-8,15.66V226a1.92,1.92,0,0,0,1.92,1.93H194A1.92,1.92,0,0,0,195.9,226v-5.77A19.24,19.24,0,0,0,187.87,204.57Zm-11.23-17.08a9.63,9.63,0,1,1-9.63,9.63A9.64,9.64,0,0,1,176.64,187.49Zm15.41,36.59H161.24v-3.85A15.38,15.38,0,0,1,168,207.47a13.45,13.45,0,0,0,17.25,0,15.38,15.38,0,0,1,6.78,12.76Z"/><path class="cls-2" d="M237.94,203.82a13.48,13.48,0,1,0-22.44,0,19.25,19.25,0,0,0-8,15.66v5.77a1.92,1.92,0,0,0,1.93,1.93h34.66a1.92,1.92,0,0,0,1.93-1.93v-5.77A19.25,19.25,0,0,0,237.94,203.82Zm-11.22-17.09a9.63,9.63,0,1,1-9.63,9.63A9.64,9.64,0,0,1,226.72,186.73Zm15.41,36.6H211.31v-3.85a15.36,15.36,0,0,1,6.79-12.76,13.43,13.43,0,0,0,17.24,0,15.39,15.39,0,0,1,6.79,12.76Z"/><path class="cls-2" d="M288,203.07a13.48,13.48,0,1,0-22.44,0,19.24,19.24,0,0,0-8,15.65v5.78a1.92,1.92,0,0,0,1.93,1.93h34.67a1.92,1.92,0,0,0,1.92-1.93v-5.78A19.24,19.24,0,0,0,288,203.07ZM276.79,186a9.63,9.63,0,1,1-9.63,9.63A9.64,9.64,0,0,1,276.79,186Zm15.41,36.6H261.38v-3.86A15.37,15.37,0,0,1,268.17,206a13.47,13.47,0,0,0,17.24,0,15.35,15.35,0,0,1,6.79,12.75Z"/><path class="cls-2" d="M87.72,264.8a13.48,13.48,0,1,0-22.44,0,19.21,19.21,0,0,0-8,15.65v5.78a1.92,1.92,0,0,0,1.92,1.93H93.83a1.92,1.92,0,0,0,1.92-1.93v-5.78A19.23,19.23,0,0,0,87.72,264.8ZM76.5,247.71a9.63,9.63,0,1,1-9.63,9.63A9.64,9.64,0,0,1,76.5,247.71Zm15.4,36.6H61.09v-3.86a15.35,15.35,0,0,1,6.79-12.75,13.47,13.47,0,0,0,17.24,0,15.36,15.36,0,0,1,6.78,12.75Z"/><path class="cls-2" d="M137.79,264.05a13.48,13.48,0,1,0-22.44,0,19.23,19.23,0,0,0-8,15.65v5.78a1.92,1.92,0,0,0,1.93,1.93H143.9a1.92,1.92,0,0,0,1.93-1.93V279.7A19.23,19.23,0,0,0,137.79,264.05ZM126.57,247a9.63,9.63,0,1,1-9.63,9.63A9.64,9.64,0,0,1,126.57,247ZM142,283.56H111.16V279.7A15.35,15.35,0,0,1,118,267a13.47,13.47,0,0,0,17.24,0A15.35,15.35,0,0,1,142,279.7Z"/><path class="cls-2" d="M187.87,263.3a13.49,13.49,0,1,0-22.45,0,19.22,19.22,0,0,0-8,15.65v5.78a1.92,1.92,0,0,0,1.92,1.92H194a1.92,1.92,0,0,0,1.92-1.92V279A19.22,19.22,0,0,0,187.87,263.3Zm-11.23-17.09a9.63,9.63,0,1,1-9.63,9.63A9.64,9.64,0,0,1,176.64,246.21Zm15.41,36.59H161.24V279A15.39,15.39,0,0,1,168,266.19a13.45,13.45,0,0,0,17.25,0A15.39,15.39,0,0,1,192.05,279Z"/><path class="cls-2" d="M237.94,262.55a13.48,13.48,0,1,0-22.44,0,19.21,19.21,0,0,0-8,15.65V284a1.92,1.92,0,0,0,1.93,1.92h34.66A1.92,1.92,0,0,0,246,284V278.2A19.21,19.21,0,0,0,237.94,262.55Zm-11.22-17.09a9.63,9.63,0,1,1-9.63,9.63A9.64,9.64,0,0,1,226.72,245.46Zm15.41,36.59H211.31V278.2a15.38,15.38,0,0,1,6.79-12.76,13.43,13.43,0,0,0,17.24,0,15.38,15.38,0,0,1,6.79,12.76Z"/><path class="cls-2" d="M288,261.79a13.33,13.33,0,0,0,2.26-7.45,13.48,13.48,0,1,0-27,0,13.33,13.33,0,0,0,2.26,7.45,19.25,19.25,0,0,0-8,15.66v5.78a1.92,1.92,0,0,0,1.93,1.92h34.67a1.92,1.92,0,0,0,1.92-1.92v-5.78A19.25,19.25,0,0,0,288,261.79Zm-11.22-17.08a9.63,9.63,0,1,1-9.63,9.63A9.64,9.64,0,0,1,276.79,244.71ZM292.2,281.3H261.38v-3.85a15.39,15.39,0,0,1,6.79-12.76,13.43,13.43,0,0,0,17.24,0,15.36,15.36,0,0,1,6.79,12.76Z"/></g></g></svg>