<svg xmlns="http://www.w3.org/2000/svg" viewBox="0 0 346 346"><defs><style>.cls-1{isolation:isolate;}.cls-2{fill:#fff;}.cls-3{fill:#999;}.cls-4{opacity:0.3;mix-blend-mode:multiply;}.cls-5{fill:#6d6e71;}.cls-6{fill:gray;}.cls-7{fill:#74d2e8;}</style></defs><title>資產 3</title><g class="cls-1"><g id="圖層_2" data-name="圖層 2"><g id="圖層_1-2" data-name="圖層 1"><circle class="cls-2" cx="173" cy="173" r="173"/><rect class="cls-2" x="100.31" y="201.96" width="19.65" height="74.73"/><path class="cls-2" d="M208.58,295.24h46.86a7.71,7.71,0,0,0,7.71-7.71v-5.89a7.71,7.71,0,0,0-7.71-7.71H208.58v-1.36h68.49a10.74,10.74,0,0,0,10.75-10.74v-7a10.75,10.75,0,0,0-10.75-10.75H208.58v-1.9h82.19a10.74,10.74,0,0,0,10.75-10.74v-7a10.74,10.74,0,0,0-10.75-10.74H208.58v-1.9h72.86a10.74,10.74,0,0,0,10.75-10.74v-7a10.74,10.74,0,0,0-10.75-10.74H184.36l4.4-4.4a21.85,21.85,0,0,0,0-30.9L185,144.36a8.2,8.2,0,0,0-11.61,0L122.85,194.9a26,26,0,0,0-5.49,8.08,35.35,35.35,0,0,0-3.8,16v40.72a35.55,35.55,0,0,0,35.55,35.55Z"/><rect class="cls-3" x="71.78" y="255.78" width="15.22" height="41.84" transform="translate(356.09 197.31) rotate(90)"/><g class="cls-4"><path class="cls-5" d="M184.36,183.42l4.4-4.4a21.86,21.86,0,0,0,3.75-25.87,21.69,21.69,0,0,1-6.22,12.78l-17.48,17.49Z"/></g><g class="cls-4"><path class="cls-2" d="M208.58,295.24h46.86a7.71,7.71,0,0,0,7.71-7.71v-5.89A7.72,7.72,0,0,0,263,280a7.71,7.71,0,0,1-7.52,6H149.11a35.55,35.55,0,0,1-35.55-35.55v9.26a35.55,35.55,0,0,0,35.55,35.55Z"/></g><path class="cls-6" d="M149.11,297.94H255.44a10.41,10.41,0,0,0,10.4-10.4v-5.89a10.33,10.33,0,0,0-2.18-6.37h13.41a13.46,13.46,0,0,0,13.44-13.44v-7a13.4,13.4,0,0,0-4.41-10h4.67a13.46,13.46,0,0,0,13.44-13.44v-7a13.46,13.46,0,0,0-13.44-13.44h-.3a13.38,13.38,0,0,0,4.41-9.94v-7a13.46,13.46,0,0,0-13.44-13.44H190.86a24.54,24.54,0,0,0-.2-34.51l-3.76-3.76a10.91,10.91,0,0,0-15.41,0L121,193a28.45,28.45,0,0,0-4.75,6.28H103v-4.92a2.7,2.7,0,0,0-2.7-2.69H58.47a2.69,2.69,0,0,0-2.69,2.69v90A2.69,2.69,0,0,0,58.47,287h41.84a2.7,2.7,0,0,0,2.7-2.69v-4.92h13.32A38.24,38.24,0,0,0,149.11,297.94Zm-88-16.33V197.05H97.62v84.56Zm41.85-77h14.82a2.69,2.69,0,0,0,2.42-1.52,23.25,23.25,0,0,1,4.51-6.34l50.54-50.54a5.51,5.51,0,0,1,7.79,0l3.76,3.76a19.13,19.13,0,0,1,0,27.09l-3.6,3.61H166.46a2.7,2.7,0,0,0,0,5.39h115a8.07,8.07,0,0,1,8.06,8v7a8.07,8.07,0,0,1-8.06,8.05H208.58a2.69,2.69,0,0,0-2.69,2.69v1.9a2.68,2.68,0,0,0,2.69,2.69h82.19a8.06,8.06,0,0,1,8.05,8v7a8.06,8.06,0,0,1-8.05,8.05H208.58a2.69,2.69,0,0,0-2.69,2.69v1.9a2.68,2.68,0,0,0,2.69,2.69h68.49a8.07,8.07,0,0,1,8.05,8.06v7a8.06,8.06,0,0,1-8.05,8.05H208.58a2.69,2.69,0,0,0-2.69,2.69v1.36a2.68,2.68,0,0,0,2.69,2.69h46.86a5,5,0,0,1,5,5v5.89a5,5,0,0,1-5,5H149.11a32.87,32.87,0,0,1-28.86-17.14,2.69,2.69,0,0,0-2.36-1.41H103Z"/><path class="cls-7" d="M274.42,101.46h.42L273,98.57a35.27,35.27,0,0,0-2.16-3.34l-25.64-39.6a2.65,2.65,0,0,0-4.45,0l-25.64,39.6a33.4,33.4,0,0,0-2.16,3.34l-1.45,2.89a34.28,34.28,0,0,0-2.65,18.8,34.46,34.46,0,1,0,65.6-18.8Z"/><path class="cls-7" d="M274.42,101.46h.42L273,98.57a35.27,35.27,0,0,0-2.16-3.34l-25.64-39.6a2.65,2.65,0,0,0-4.45,0l-25.64,39.6a33.4,33.4,0,0,0-2.16,3.34l-1.45,2.89a34.28,34.28,0,0,0-2.65,18.8,34.46,34.46,0,1,0,65.6-18.8Z"/><path class="cls-7" d="M274.42,101.46h.42L273,98.57a35.27,35.27,0,0,0-2.16-3.34l-25.64-39.6a2.65,2.65,0,0,0-4.45,0l-25.64,39.6a33.4,33.4,0,0,0-2.16,3.34l-1.45,2.89a34.28,34.28,0,0,0-2.65,18.8,34.46,34.46,0,1,0,65.6-18.8Z"/><path class="cls-7" d="M274.42,101.46h.42L273,98.57a35.27,35.27,0,0,0-2.16-3.34l-25.64-39.6a2.65,2.65,0,0,0-4.45,0l-.25.38,18.8,29a36.7,36.7,0,0,1,2.17,3.34l1.87,2.9h-.42a34.44,34.44,0,0,1-35,48.26,33.69,33.69,0,0,1-12.83-4,34.42,34.42,0,0,0,59.41-34.07Z"/><path class="cls-7" d="M222.33,113.33h0a7.81,7.81,0,0,1-2.86-10.66L232.7,79.76a7.8,7.8,0,0,1,10.66-2.86h0a7.8,7.8,0,0,1,2.85,10.66L233,110.47A7.8,7.8,0,0,1,222.33,113.33Z"/><path class="cls-7" d="M274.42,101.46h.42L273,98.57a35.27,35.27,0,0,0-2.16-3.34l-25.64-39.6a2.65,2.65,0,0,0-4.45,0l-25.64,39.6a33.4,33.4,0,0,0-2.16,3.34l-1.45,2.89a34.28,34.28,0,0,0-2.65,18.8,34.46,34.46,0,1,0,65.6-18.8Z"/></g></g></g></svg>