<svg height="448pt" viewBox="0 0 448 448" width="448pt" xmlns="http://www.w3.org/2000/svg"><path d="m224 0c-123.710938 0-224 100.289062-224 224s100.289062 224 224 224 224-100.289062 224-224c-.140625-123.652344-100.347656-223.859375-224-224zm101.824219 178.742188-45.257813 45.257812c-13.449218 13.414062-34.472656 15.539062-50.335937 5.078125l-1.152344 1.152344c10.460937 15.863281 8.335937 36.886719-5.078125 50.335937l-45.257812 45.257813c-15.640626 15.503906-40.871094 15.449219-56.441407-.125-15.574219-15.570313-15.628906-40.800781-.125-56.441407l45.257813-45.257812c13.449218-13.414062 34.472656-15.539062 50.335937-5.078125l1.152344-1.152344c-10.460937-15.863281-8.335937-36.886719 5.078125-50.335937l45.257812-45.257813c15.640626-15.503906 40.871094-15.449219 56.441407.125 15.574219 15.570313 15.628906 40.800781.125 56.441407zm0 0"/><path d="m297.535156 126.464844c-6.367187-.015625-12.476562 2.515625-16.96875 7.03125l-45.253906 45.246094c-7.140625 7.199218-8.984375 18.105468-4.617188 27.25l15.929688-15.929688c3.136719-3.03125 8.128906-2.988281 11.214844.097656 3.085937 3.085938 3.128906 8.078125.097656 11.214844l-15.929688 15.929688c9.144532 4.367187 20.050782 2.523437 27.25-4.617188l45.246094-45.253906c6.863282-6.867188 8.914063-17.1875 5.199219-26.152344-3.710937-8.96875-12.460937-14.816406-22.167969-14.816406zm0 0"/><path d="m201.375 257.9375c-3.136719 3.03125-8.128906 2.988281-11.214844-.097656-3.085937-3.085938-3.128906-8.078125-.097656-11.214844l15.921875-15.929688c-9.132813-4.453124-20.085937-2.597656-27.242187 4.617188l-45.246094 45.253906c-9.371094 9.375-9.371094 24.566406 0 33.9375 9.496094 9.0625 24.4375 9.0625 33.9375 0l45.253906-45.246094c7.140625-7.199218 8.984375-18.105468 4.617188-27.25zm0 0"/></svg>