<svg xmlns="http://www.w3.org/2000/svg" viewBox="0 0 867.77 904.13"><defs><style>.cls-1{fill:#c15353;}</style></defs><title>資產 3</title><g id="圖層_2" data-name="圖層 2"><g id="圖層_1-2" data-name="圖層 1"><circle cx="13.98" cy="13.64" r="13.4"/><circle cx="49.02" cy="13.64" r="13.4"/><circle cx="83.45" cy="13.64" r="13.4"/><circle cx="118.49" cy="13.64" r="13.4"/><circle cx="154.37" cy="13.64" r="13.4"/><circle cx="189.41" cy="13.64" r="13.4"/><circle cx="223.83" cy="13.64" r="13.4"/><circle cx="258.87" cy="13.64" r="13.4"/><circle cx="294.06" cy="13.64" r="13.4"/><circle cx="329.1" cy="13.64" r="13.4"/><circle cx="364.63" cy="13.4" r="13.4"/><circle cx="399.67" cy="13.4" r="13.4"/><circle cx="434.1" cy="13.4" r="13.4"/><circle cx="467.13" cy="13.4" r="13.4"/><circle cx="503.02" cy="13.4" r="13.4"/><circle cx="538.06" cy="13.4" r="13.4"/><circle cx="572.48" cy="13.4" r="13.4"/><circle cx="607.52" cy="13.4" r="13.4"/><circle cx="642.71" cy="13.4" r="13.4"/><circle class="cls-1" cx="677.75" cy="13.4" r="13.4"/><circle class="cls-1" cx="713.08" cy="13.64" r="13.4"/><circle class="cls-1" cx="748.12" cy="13.64" r="13.4"/><circle class="cls-1" cx="782.55" cy="13.64" r="13.4"/><circle class="cls-1" cx="817.59" cy="13.64" r="13.4"/><circle class="cls-1" cx="853.47" cy="13.64" r="13.4"/><circle class="cls-1" cx="13.98" cy="42.24" r="13.4"/><circle class="cls-1" cx="49.02" cy="42.24" r="13.4"/><circle class="cls-1" cx="83.45" cy="42.24" r="13.4"/><circle class="cls-1" cx="118.49" cy="42.24" r="13.4"/><circle class="cls-1" cx="154.37" cy="42.24" r="13.4"/><circle class="cls-1" cx="189.41" cy="42.24" r="13.4"/><circle class="cls-1" cx="223.83" cy="42.24" r="13.4"/><circle class="cls-1" cx="258.87" cy="42.24" r="13.4"/><circle class="cls-1" cx="294.06" cy="42.24" r="13.4"/><circle class="cls-1" cx="329.1" cy="42.24" r="13.4"/><circle class="cls-1" cx="364.63" cy="42" r="13.4"/><circle class="cls-1" cx="399.67" cy="42" r="13.4"/><circle class="cls-1" cx="434.1" cy="42" r="13.4"/><circle class="cls-1" cx="467.13" cy="42" r="13.4"/><circle class="cls-1" cx="503.02" cy="42" r="13.4"/><circle class="cls-1" cx="538.06" cy="42" r="13.4"/><circle class="cls-1" cx="572.48" cy="42" r="13.4"/><circle class="cls-1" cx="607.52" cy="42" r="13.4"/><circle class="cls-1" cx="642.71" cy="42" r="13.4"/><circle class="cls-1" cx="677.75" cy="42" r="13.4"/><circle class="cls-1" cx="713.08" cy="42.24" r="13.4"/><circle class="cls-1" cx="748.12" cy="42.24" r="13.4"/><circle class="cls-1" cx="782.55" cy="42.24" r="13.4"/><circle class="cls-1" cx="817.59" cy="42.24" r="13.4"/><circle class="cls-1" cx="853.47" cy="42.24" r="13.4"/><circle class="cls-1" cx="13.98" cy="72.18" r="13.4"/><circle class="cls-1" cx="49.02" cy="72.18" r="13.4"/><circle class="cls-1" cx="83.45" cy="72.18" r="13.4"/><circle class="cls-1" cx="118.49" cy="72.18" r="13.4"/><circle class="cls-1" cx="154.37" cy="72.18" r="13.4"/><circle class="cls-1" cx="189.41" cy="72.18" r="13.4"/><circle class="cls-1" cx="223.83" cy="72.18" r="13.4"/><circle class="cls-1" cx="258.87" cy="72.18" r="13.4"/><circle class="cls-1" cx="294.06" cy="72.18" r="13.4"/><circle class="cls-1" cx="329.1" cy="72.18" r="13.4"/><circle class="cls-1" cx="364.63" cy="71.94" r="13.4"/><circle class="cls-1" cx="399.67" cy="71.94" r="13.4"/><circle class="cls-1" cx="434.1" cy="71.94" r="13.4"/><circle class="cls-1" cx="467.13" cy="71.94" r="13.4"/><circle class="cls-1" cx="503.02" cy="71.94" r="13.4"/><circle class="cls-1" cx="538.06" cy="71.94" r="13.4"/><circle class="cls-1" cx="572.48" cy="71.94" r="13.4"/><circle class="cls-1" cx="607.52" cy="71.94" r="13.4"/><circle class="cls-1" cx="642.71" cy="71.94" r="13.4"/><circle class="cls-1" cx="677.75" cy="71.94" r="13.4"/><circle class="cls-1" cx="713.08" cy="72.18" r="13.4"/><circle class="cls-1" cx="748.12" cy="72.18" r="13.4"/><circle class="cls-1" cx="782.55" cy="72.18" r="13.4"/><circle class="cls-1" cx="817.59" cy="72.18" r="13.4"/><circle class="cls-1" cx="853.47" cy="72.18" r="13.4"/><circle class="cls-1" cx="13.73" cy="103.61" r="13.4"/><circle class="cls-1" cx="48.77" cy="103.61" r="13.4"/><circle class="cls-1" cx="83.2" cy="103.61" r="13.4"/><circle class="cls-1" cx="118.24" cy="103.61" r="13.4"/><circle class="cls-1" cx="154.12" cy="103.61" r="13.4"/><circle class="cls-1" cx="189.16" cy="103.61" r="13.4"/><circle class="cls-1" cx="223.59" cy="103.61" r="13.4"/><circle class="cls-1" cx="258.63" cy="103.61" r="13.4"/><circle class="cls-1" cx="293.81" cy="103.61" r="13.4"/><circle class="cls-1" cx="328.85" cy="103.61" r="13.4"/><circle class="cls-1" cx="364.38" cy="103.37" r="13.4"/><circle class="cls-1" cx="399.42" cy="103.37" r="13.4"/><circle class="cls-1" cx="433.85" cy="103.37" r="13.4"/><circle class="cls-1" cx="466.89" cy="103.37" r="13.4"/><circle class="cls-1" cx="502.77" cy="103.37" r="13.4"/><circle class="cls-1" cx="537.81" cy="103.37" r="13.4"/><circle class="cls-1" cx="572.23" cy="103.37" r="13.4"/><circle class="cls-1" cx="607.27" cy="103.37" r="13.4"/><circle class="cls-1" cx="642.46" cy="103.37" r="13.4"/><circle class="cls-1" cx="677.5" cy="103.37" r="13.4"/><circle class="cls-1" cx="712.83" cy="103.61" r="13.4"/><circle class="cls-1" cx="747.87" cy="103.61" r="13.4"/><circle class="cls-1" cx="782.3" cy="103.61" r="13.4"/><circle class="cls-1" cx="817.34" cy="103.61" r="13.4"/><circle class="cls-1" cx="853.22" cy="103.61" r="13.4"/><circle class="cls-1" cx="13.73" cy="132.21" r="13.4"/><circle class="cls-1" cx="48.77" cy="132.21" r="13.4"/><circle class="cls-1" cx="83.2" cy="132.21" r="13.4"/><circle class="cls-1" cx="118.24" cy="132.21" r="13.4"/><circle class="cls-1" cx="154.12" cy="132.21" r="13.4"/><circle class="cls-1" cx="189.16" cy="132.21" r="13.4"/><circle class="cls-1" cx="223.59" cy="132.21" r="13.4"/><circle class="cls-1" cx="258.63" cy="132.21" r="13.4"/><circle class="cls-1" cx="293.81" cy="132.21" r="13.4"/><circle class="cls-1" cx="328.85" cy="132.21" r="13.4"/><circle class="cls-1" cx="364.38" cy="131.97" r="13.4"/><circle class="cls-1" cx="399.42" cy="131.97" r="13.4"/><circle class="cls-1" cx="433.85" cy="131.97" r="13.4"/><circle class="cls-1" cx="466.89" cy="131.97" r="13.4"/><circle class="cls-1" cx="502.77" cy="131.97" r="13.4"/><circle class="cls-1" cx="537.81" cy="131.97" r="13.4"/><circle class="cls-1" cx="572.23" cy="131.97" r="13.4"/><circle class="cls-1" cx="607.27" cy="131.97" r="13.4"/><circle class="cls-1" cx="642.46" cy="131.97" r="13.4"/><circle class="cls-1" cx="677.5" cy="131.97" r="13.4"/><circle class="cls-1" cx="712.83" cy="132.21" r="13.4"/><circle class="cls-1" cx="747.87" cy="132.21" r="13.4"/><circle class="cls-1" cx="782.3" cy="132.21" r="13.4"/><circle class="cls-1" cx="817.34" cy="132.21" r="13.4"/><circle class="cls-1" cx="853.22" cy="132.21" r="13.4"/><circle class="cls-1" cx="13.73" cy="162.15" r="13.4"/><circle class="cls-1" cx="48.77" cy="162.15" r="13.4"/><circle class="cls-1" cx="83.2" cy="162.15" r="13.4"/><circle class="cls-1" cx="118.24" cy="162.15" r="13.4"/><circle class="cls-1" cx="154.12" cy="162.15" r="13.4"/><circle class="cls-1" cx="189.16" cy="162.15" r="13.4"/><circle class="cls-1" cx="223.59" cy="162.15" r="13.4"/><circle class="cls-1" cx="258.63" cy="162.15" r="13.4"/><circle class="cls-1" cx="293.81" cy="162.15" r="13.4"/><circle class="cls-1" cx="328.85" cy="162.15" r="13.4"/><circle class="cls-1" cx="364.38" cy="161.91" r="13.4"/><circle class="cls-1" cx="399.42" cy="161.91" r="13.4"/><circle class="cls-1" cx="433.85" cy="161.91" r="13.4"/><circle class="cls-1" cx="466.89" cy="161.91" r="13.4"/><circle class="cls-1" cx="502.77" cy="161.91" r="13.4"/><circle class="cls-1" cx="537.81" cy="161.91" r="13.4"/><circle class="cls-1" cx="572.23" cy="161.91" r="13.4"/><circle class="cls-1" cx="607.27" cy="161.91" r="13.4"/><circle class="cls-1" cx="642.46" cy="161.91" r="13.4"/><circle class="cls-1" cx="677.5" cy="161.91" r="13.4"/><circle class="cls-1" cx="712.83" cy="162.15" r="13.4"/><circle class="cls-1" cx="747.87" cy="162.15" r="13.4"/><circle class="cls-1" cx="782.3" cy="162.15" r="13.4"/><circle class="cls-1" cx="817.34" cy="162.15" r="13.4"/><circle class="cls-1" cx="853.22" cy="162.15" r="13.4"/><circle class="cls-1" cx="14.55" cy="193.5" r="13.4"/><circle class="cls-1" cx="49.59" cy="193.5" r="13.4"/><circle class="cls-1" cx="84.01" cy="193.5" r="13.4"/><circle class="cls-1" cx="119.05" cy="193.5" r="13.4"/><circle class="cls-1" cx="154.94" cy="193.5" r="13.4"/><circle class="cls-1" cx="189.97" cy="193.5" r="13.4"/><circle class="cls-1" cx="224.4" cy="193.5" r="13.4"/><circle class="cls-1" cx="259.44" cy="193.5" r="13.4"/><circle class="cls-1" cx="294.63" cy="193.5" r="13.4"/><circle class="cls-1" cx="329.67" cy="193.5" r="13.4"/><circle class="cls-1" cx="365.2" cy="193.25" r="13.4"/><circle class="cls-1" cx="400.23" cy="193.25" r="13.4"/><circle class="cls-1" cx="434.66" cy="193.25" r="13.4"/><circle class="cls-1" cx="467.7" cy="193.25" r="13.4"/><circle class="cls-1" cx="503.58" cy="193.25" r="13.4"/><circle class="cls-1" cx="538.62" cy="193.25" r="13.4"/><circle class="cls-1" cx="573.05" cy="193.25" r="13.4"/><circle class="cls-1" cx="608.09" cy="193.25" r="13.4"/><circle class="cls-1" cx="643.27" cy="193.25" r="13.4"/><circle class="cls-1" cx="678.31" cy="193.25" r="13.4"/><circle class="cls-1" cx="713.65" cy="193.5" r="13.4"/><circle class="cls-1" cx="748.69" cy="193.5" r="13.4"/><circle class="cls-1" cx="783.12" cy="193.5" r="13.4"/><circle class="cls-1" cx="818.16" cy="193.5" r="13.4"/><circle class="cls-1" cx="854.04" cy="193.5" r="13.4"/><circle class="cls-1" cx="14.55" cy="222.09" r="13.4"/><circle class="cls-1" cx="49.59" cy="222.09" r="13.4"/><circle class="cls-1" cx="84.01" cy="222.09" r="13.4"/><circle class="cls-1" cx="119.05" cy="222.09" r="13.4"/><circle class="cls-1" cx="154.94" cy="222.09" r="13.4"/><circle class="cls-1" cx="189.97" cy="222.09" r="13.4"/><circle class="cls-1" cx="224.4" cy="222.09" r="13.4"/><circle class="cls-1" cx="259.44" cy="222.09" r="13.4"/><circle class="cls-1" cx="294.63" cy="222.09" r="13.4"/><circle class="cls-1" cx="329.67" cy="222.09" r="13.4"/><circle class="cls-1" cx="365.2" cy="221.85" r="13.4"/><circle class="cls-1" cx="400.23" cy="221.85" r="13.4"/><circle class="cls-1" cx="434.66" cy="221.85" r="13.4"/><circle class="cls-1" cx="467.7" cy="221.85" r="13.4"/><circle class="cls-1" cx="503.58" cy="221.85" r="13.4"/><circle class="cls-1" cx="538.62" cy="221.85" r="13.4"/><circle class="cls-1" cx="573.05" cy="221.85" r="13.4"/><circle class="cls-1" cx="608.09" cy="221.85" r="13.4"/><circle class="cls-1" cx="643.27" cy="221.85" r="13.4"/><circle class="cls-1" cx="678.31" cy="221.85" r="13.4"/><circle class="cls-1" cx="713.65" cy="222.09" r="13.4"/><circle class="cls-1" cx="748.69" cy="222.09" r="13.4"/><circle class="cls-1" cx="783.12" cy="222.09" r="13.4"/><circle class="cls-1" cx="818.16" cy="222.09" r="13.4"/><circle class="cls-1" cx="854.04" cy="222.09" r="13.4"/><circle class="cls-1" cx="14.55" cy="252.03" r="13.4"/><circle class="cls-1" cx="49.59" cy="252.03" r="13.4"/><circle class="cls-1" cx="84.01" cy="252.03" r="13.4"/><circle class="cls-1" cx="119.05" cy="252.03" r="13.4"/><circle class="cls-1" cx="154.94" cy="252.03" r="13.4"/><circle class="cls-1" cx="189.97" cy="252.03" r="13.4"/><circle class="cls-1" cx="224.4" cy="252.03" r="13.4"/><circle class="cls-1" cx="259.44" cy="252.03" r="13.4"/><circle class="cls-1" cx="294.63" cy="252.03" r="13.4"/><circle class="cls-1" cx="329.67" cy="252.03" r="13.4"/><circle class="cls-1" cx="365.2" cy="251.79" r="13.4"/><circle class="cls-1" cx="400.23" cy="251.79" r="13.4"/><circle class="cls-1" cx="434.66" cy="251.79" r="13.4"/><circle class="cls-1" cx="467.7" cy="251.79" r="13.4"/><circle class="cls-1" cx="503.58" cy="251.79" r="13.4"/><circle class="cls-1" cx="538.62" cy="251.79" r="13.4"/><circle class="cls-1" cx="573.05" cy="251.79" r="13.4"/><circle class="cls-1" cx="608.09" cy="251.79" r="13.4"/><circle class="cls-1" cx="643.27" cy="251.79" r="13.4"/><circle class="cls-1" cx="678.31" cy="251.79" r="13.4"/><circle class="cls-1" cx="713.65" cy="252.03" r="13.4"/><circle class="cls-1" cx="748.69" cy="252.03" r="13.4"/><circle class="cls-1" cx="783.12" cy="252.03" r="13.4"/><circle class="cls-1" cx="818.16" cy="252.03" r="13.4"/><circle class="cls-1" cx="854.04" cy="252.03" r="13.4"/><circle class="cls-1" cx="14.3" cy="283.47" r="13.4"/><circle class="cls-1" cx="49.34" cy="283.47" r="13.4"/><circle class="cls-1" cx="83.77" cy="283.47" r="13.4"/><circle class="cls-1" cx="118.8" cy="283.47" r="13.4"/><circle class="cls-1" cx="154.69" cy="283.47" r="13.4"/><circle class="cls-1" cx="189.73" cy="283.47" r="13.4"/><circle class="cls-1" cx="224.15" cy="283.47" r="13.4"/><circle class="cls-1" cx="259.19" cy="283.47" r="13.4"/><circle class="cls-1" cx="294.38" cy="283.47" r="13.4"/><circle class="cls-1" cx="329.42" cy="283.47" r="13.4"/><circle class="cls-1" cx="364.95" cy="283.22" r="13.4"/><circle class="cls-1" cx="399.99" cy="283.22" r="13.4"/><circle class="cls-1" cx="434.41" cy="283.22" r="13.4"/><circle class="cls-1" cx="467.45" cy="283.22" r="13.4"/><circle class="cls-1" cx="503.33" cy="283.22" r="13.4"/><circle class="cls-1" cx="538.37" cy="283.22" r="13.4"/><circle class="cls-1" cx="572.8" cy="283.22" r="13.4"/><circle class="cls-1" cx="607.84" cy="283.22" r="13.4"/><circle class="cls-1" cx="643.03" cy="283.22" r="13.4"/><circle class="cls-1" cx="678.06" cy="283.22" r="13.4"/><circle class="cls-1" cx="713.4" cy="283.47" r="13.4"/><circle class="cls-1" cx="748.44" cy="283.47" r="13.4"/><circle class="cls-1" cx="782.87" cy="283.47" r="13.4"/><circle class="cls-1" cx="817.91" cy="283.47" r="13.4"/><circle class="cls-1" cx="853.79" cy="283.47" r="13.4"/><circle class="cls-1" cx="14.3" cy="312.06" r="13.4"/><circle class="cls-1" cx="49.34" cy="312.06" r="13.4"/><circle class="cls-1" cx="83.77" cy="312.06" r="13.4"/><circle class="cls-1" cx="118.8" cy="312.06" r="13.4"/><circle class="cls-1" cx="154.69" cy="312.06" r="13.4"/><circle class="cls-1" cx="189.73" cy="312.06" r="13.4"/><circle class="cls-1" cx="224.15" cy="312.06" r="13.4"/><circle class="cls-1" cx="259.19" cy="312.06" r="13.4"/><circle class="cls-1" cx="294.38" cy="312.06" r="13.4"/><circle class="cls-1" cx="329.42" cy="312.06" r="13.4"/><circle class="cls-1" cx="364.95" cy="311.82" r="13.4"/><circle class="cls-1" cx="399.99" cy="311.82" r="13.4"/><circle class="cls-1" cx="434.41" cy="311.82" r="13.4"/><circle class="cls-1" cx="467.45" cy="311.82" r="13.4"/><circle class="cls-1" cx="503.33" cy="311.82" r="13.4"/><circle class="cls-1" cx="538.37" cy="311.82" r="13.4"/><circle class="cls-1" cx="572.8" cy="311.82" r="13.4"/><circle class="cls-1" cx="607.84" cy="311.82" r="13.4"/><circle class="cls-1" cx="643.03" cy="311.82" r="13.4"/><circle class="cls-1" cx="678.06" cy="311.82" r="13.4"/><circle class="cls-1" cx="713.4" cy="312.06" r="13.4"/><circle class="cls-1" cx="748.44" cy="312.06" r="13.4"/><circle class="cls-1" cx="782.87" cy="312.06" r="13.4"/><circle class="cls-1" cx="817.91" cy="312.06" r="13.4"/><circle class="cls-1" cx="853.79" cy="312.06" r="13.4"/><circle class="cls-1" cx="14.3" cy="342" r="13.4"/><circle class="cls-1" cx="49.34" cy="342" r="13.4"/><circle class="cls-1" cx="83.77" cy="342" r="13.4"/><circle class="cls-1" cx="118.8" cy="342" r="13.4"/><circle class="cls-1" cx="154.69" cy="342" r="13.4"/><circle class="cls-1" cx="189.73" cy="342" r="13.4"/><circle class="cls-1" cx="224.15" cy="342" r="13.4"/><circle class="cls-1" cx="259.19" cy="342" r="13.4"/><circle class="cls-1" cx="294.38" cy="342" r="13.4"/><circle class="cls-1" cx="329.42" cy="342" r="13.4"/><circle class="cls-1" cx="364.95" cy="341.76" r="13.4"/><circle class="cls-1" cx="399.99" cy="341.76" r="13.4"/><circle class="cls-1" cx="434.41" cy="341.76" r="13.4"/><circle class="cls-1" cx="467.45" cy="341.76" r="13.4"/><circle class="cls-1" cx="503.33" cy="341.76" r="13.4"/><circle class="cls-1" cx="538.37" cy="341.76" r="13.4"/><circle class="cls-1" cx="572.8" cy="341.76" r="13.4"/><circle class="cls-1" cx="607.84" cy="341.76" r="13.4"/><circle class="cls-1" cx="643.03" cy="341.76" r="13.4"/><circle class="cls-1" cx="678.06" cy="341.76" r="13.4"/><circle class="cls-1" cx="713.4" cy="342" r="13.4"/><circle class="cls-1" cx="748.44" cy="342" r="13.4"/><circle class="cls-1" cx="782.87" cy="342" r="13.4"/><circle class="cls-1" cx="817.91" cy="342" r="13.4"/><circle class="cls-1" cx="853.79" cy="342" r="13.4"/><circle class="cls-1" cx="14.26" cy="374.75" r="13.4"/><circle class="cls-1" cx="49.3" cy="374.75" r="13.4"/><circle class="cls-1" cx="83.73" cy="374.75" r="13.4"/><circle class="cls-1" cx="118.77" cy="374.75" r="13.4"/><circle class="cls-1" cx="154.65" cy="374.75" r="13.4"/><circle class="cls-1" cx="189.69" cy="374.75" r="13.4"/><circle class="cls-1" cx="224.12" cy="374.75" r="13.4"/><circle class="cls-1" cx="259.16" cy="374.75" r="13.4"/><circle class="cls-1" cx="294.34" cy="374.75" r="13.4"/><circle class="cls-1" cx="329.38" cy="374.75" r="13.4"/><circle class="cls-1" cx="364.91" cy="374.51" r="13.4"/><circle class="cls-1" cx="399.95" cy="374.51" r="13.4"/><circle class="cls-1" cx="434.38" cy="374.51" r="13.4"/><circle class="cls-1" cx="467.42" cy="374.51" r="13.4"/><circle class="cls-1" cx="503.3" cy="374.51" r="13.4"/><circle class="cls-1" cx="538.34" cy="374.51" r="13.4"/><circle class="cls-1" cx="572.77" cy="374.51" r="13.4"/><circle class="cls-1" cx="607.81" cy="374.51" r="13.4"/><circle class="cls-1" cx="642.99" cy="374.51" r="13.4"/><circle class="cls-1" cx="678.03" cy="374.51" r="13.4"/><circle class="cls-1" cx="713.36" cy="374.75" r="13.4"/><circle class="cls-1" cx="748.4" cy="374.75" r="13.4"/><circle class="cls-1" cx="782.83" cy="374.75" r="13.4"/><circle class="cls-1" cx="817.87" cy="374.75" r="13.4"/><circle class="cls-1" cx="853.75" cy="374.75" r="13.4"/><circle class="cls-1" cx="14.26" cy="404.69" r="13.4"/><circle class="cls-1" cx="49.3" cy="404.69" r="13.4"/><circle class="cls-1" cx="83.73" cy="404.69" r="13.4"/><circle class="cls-1" cx="118.77" cy="404.69" r="13.4"/><circle class="cls-1" cx="154.65" cy="404.69" r="13.4"/><circle class="cls-1" cx="189.69" cy="404.69" r="13.4"/><circle class="cls-1" cx="224.12" cy="404.69" r="13.4"/><circle class="cls-1" cx="259.16" cy="404.69" r="13.4"/><circle class="cls-1" cx="294.34" cy="404.69" r="13.4"/><circle class="cls-1" cx="329.38" cy="404.69" r="13.4"/><circle class="cls-1" cx="364.91" cy="404.45" r="13.4"/><circle class="cls-1" cx="399.95" cy="404.45" r="13.4"/><circle class="cls-1" cx="434.38" cy="404.45" r="13.4"/><circle class="cls-1" cx="467.42" cy="404.45" r="13.4"/><circle class="cls-1" cx="503.3" cy="404.45" r="13.4"/><circle class="cls-1" cx="538.34" cy="404.45" r="13.4"/><circle class="cls-1" cx="572.77" cy="404.45" r="13.4"/><circle class="cls-1" cx="607.81" cy="404.45" r="13.4"/><circle class="cls-1" cx="642.99" cy="404.45" r="13.4"/><circle class="cls-1" cx="678.03" cy="404.45" r="13.4"/><circle class="cls-1" cx="713.36" cy="404.69" r="13.4"/><circle class="cls-1" cx="748.4" cy="404.69" r="13.4"/><circle class="cls-1" cx="782.83" cy="404.69" r="13.4"/><circle class="cls-1" cx="817.87" cy="404.69" r="13.4"/><circle class="cls-1" cx="853.75" cy="404.69" r="13.4"/><circle class="cls-1" cx="13.65" cy="435.46" r="13.4"/><circle class="cls-1" cx="48.08" cy="435.46" r="13.4"/><circle class="cls-1" cx="83.12" cy="435.46" r="13.4"/><circle class="cls-1" cx="118.3" cy="435.46" r="13.4"/><circle class="cls-1" cx="153.34" cy="435.46" r="13.4"/><circle class="cls-1" cx="188.87" cy="435.22" r="13.4"/><circle class="cls-1" cx="223.91" cy="435.22" r="13.4"/><circle class="cls-1" cx="258.34" cy="435.22" r="13.4"/><circle class="cls-1" cx="293.38" cy="435.22" r="13.4"/><circle class="cls-1" cx="329.26" cy="435.22" r="13.4"/><circle class="cls-1" cx="364.3" cy="435.22" r="13.4"/><circle class="cls-1" cx="398.73" cy="435.22" r="13.4"/><circle class="cls-1" cx="433.76" cy="435.22" r="13.4"/><circle class="cls-1" cx="468.95" cy="435.22" r="13.4"/><circle class="cls-1" cx="503.99" cy="435.22" r="13.4"/><circle class="cls-1" cx="538.68" cy="435.22" r="13.4"/><circle class="cls-1" cx="573.72" cy="435.22" r="13.4"/><circle class="cls-1" cx="608.15" cy="435.22" r="13.4"/><circle class="cls-1" cx="643.19" cy="435.22" r="13.4"/><circle class="cls-1" cx="679.07" cy="435.22" r="13.4"/><circle class="cls-1" cx="714.11" cy="435.22" r="13.4"/><circle class="cls-1" cx="748.54" cy="435.22" r="13.4"/><circle class="cls-1" cx="783.58" cy="435.22" r="13.4"/><circle class="cls-1" cx="818.76" cy="435.22" r="13.4"/><circle class="cls-1" cx="853.8" cy="435.22" r="13.4"/><circle class="cls-1" cx="13.65" cy="466.06" r="13.4"/><circle class="cls-1" cx="48.08" cy="466.06" r="13.4"/><circle class="cls-1" cx="83.12" cy="466.06" r="13.4"/><circle class="cls-1" cx="118.3" cy="466.06" r="13.4"/><circle class="cls-1" cx="153.34" cy="466.06" r="13.4"/><circle class="cls-1" cx="188.87" cy="465.82" r="13.4"/><circle class="cls-1" cx="223.91" cy="465.82" r="13.4"/><circle class="cls-1" cx="258.34" cy="465.82" r="13.4"/><circle class="cls-1" cx="293.38" cy="465.82" r="13.4"/><circle class="cls-1" cx="329.26" cy="465.82" r="13.4"/><circle class="cls-1" cx="364.3" cy="465.82" r="13.4"/><circle class="cls-1" cx="398.73" cy="465.82" r="13.4"/><circle class="cls-1" cx="433.76" cy="465.82" r="13.4"/><circle class="cls-1" cx="468.95" cy="465.82" r="13.4"/><circle class="cls-1" cx="503.99" cy="465.82" r="13.4"/><circle class="cls-1" cx="538.68" cy="465.82" r="13.4"/><circle class="cls-1" cx="573.72" cy="465.82" r="13.4"/><circle class="cls-1" cx="608.15" cy="465.82" r="13.4"/><circle class="cls-1" cx="643.19" cy="465.82" r="13.4"/><circle class="cls-1" cx="679.07" cy="465.82" r="13.4"/><circle class="cls-1" cx="714.11" cy="465.82" r="13.4"/><circle class="cls-1" cx="748.54" cy="465.82" r="13.4"/><circle class="cls-1" cx="783.58" cy="465.82" r="13.4"/><circle class="cls-1" cx="818.76" cy="465.82" r="13.4"/><circle class="cls-1" cx="853.8" cy="465.82" r="13.4"/><circle class="cls-1" cx="13.65" cy="496" r="13.4"/><circle class="cls-1" cx="48.08" cy="496" r="13.4"/><circle class="cls-1" cx="83.12" cy="496" r="13.4"/><circle class="cls-1" cx="118.3" cy="496" r="13.4"/><circle class="cls-1" cx="153.34" cy="496" r="13.4"/><circle class="cls-1" cx="188.87" cy="495.76" r="13.4"/><circle class="cls-1" cx="223.91" cy="495.76" r="13.4"/><circle class="cls-1" cx="258.34" cy="495.76" r="13.4"/><circle class="cls-1" cx="293.38" cy="495.76" r="13.4"/><circle class="cls-1" cx="329.26" cy="495.76" r="13.4"/><circle class="cls-1" cx="364.3" cy="495.76" r="13.4"/><circle class="cls-1" cx="398.73" cy="495.76" r="13.4"/><circle class="cls-1" cx="433.76" cy="495.76" r="13.4"/><circle class="cls-1" cx="468.95" cy="495.76" r="13.4"/><circle class="cls-1" cx="503.99" cy="495.76" r="13.4"/><circle class="cls-1" cx="538.68" cy="495.76" r="13.4"/><circle class="cls-1" cx="573.72" cy="495.76" r="13.4"/><circle class="cls-1" cx="608.15" cy="495.76" r="13.4"/><circle class="cls-1" cx="643.19" cy="495.76" r="13.4"/><circle class="cls-1" cx="679.07" cy="495.76" r="13.4"/><circle class="cls-1" cx="714.11" cy="495.76" r="13.4"/><circle class="cls-1" cx="748.54" cy="495.76" r="13.4"/><circle class="cls-1" cx="783.58" cy="495.76" r="13.4"/><circle class="cls-1" cx="818.76" cy="495.76" r="13.4"/><circle class="cls-1" cx="853.8" cy="495.76" r="13.4"/><circle class="cls-1" cx="13.4" cy="527.43" r="13.4"/><circle class="cls-1" cx="47.83" cy="527.43" r="13.4"/><circle class="cls-1" cx="82.87" cy="527.43" r="13.4"/><circle class="cls-1" cx="118.05" cy="527.43" r="13.4"/><circle class="cls-1" cx="153.09" cy="527.43" r="13.4"/><circle class="cls-1" cx="188.62" cy="527.19" r="13.4"/><circle class="cls-1" cx="223.66" cy="527.19" r="13.4"/><circle class="cls-1" cx="258.09" cy="527.19" r="13.4"/><circle class="cls-1" cx="293.13" cy="527.19" r="13.4"/><circle class="cls-1" cx="329.01" cy="527.19" r="13.4"/><circle class="cls-1" cx="364.05" cy="527.19" r="13.4"/><circle class="cls-1" cx="398.48" cy="527.19" r="13.4"/><circle class="cls-1" cx="433.52" cy="527.19" r="13.4"/><circle class="cls-1" cx="468.7" cy="527.19" r="13.4"/><circle class="cls-1" cx="503.74" cy="527.19" r="13.4"/><circle class="cls-1" cx="538.43" cy="527.19" r="13.4"/><circle class="cls-1" cx="573.47" cy="527.19" r="13.4"/><circle class="cls-1" cx="607.9" cy="527.19" r="13.4"/><circle class="cls-1" cx="642.94" cy="527.19" r="13.4"/><circle class="cls-1" cx="678.82" cy="527.19" r="13.4"/><circle class="cls-1" cx="713.86" cy="527.19" r="13.4"/><circle class="cls-1" cx="748.29" cy="527.19" r="13.4"/><circle class="cls-1" cx="783.33" cy="527.19" r="13.4"/><circle class="cls-1" cx="818.51" cy="527.19" r="13.4"/><circle class="cls-1" cx="853.55" cy="527.19" r="13.4"/><circle class="cls-1" cx="13.4" cy="556.03" r="13.4"/><circle class="cls-1" cx="47.83" cy="556.03" r="13.4"/><circle class="cls-1" cx="82.87" cy="556.03" r="13.4"/><circle class="cls-1" cx="118.05" cy="556.03" r="13.4"/><circle class="cls-1" cx="153.09" cy="556.03" r="13.4"/><circle class="cls-1" cx="188.62" cy="555.79" r="13.4"/><circle class="cls-1" cx="223.66" cy="555.79" r="13.4"/><circle class="cls-1" cx="258.09" cy="555.79" r="13.4"/><circle class="cls-1" cx="293.13" cy="555.79" r="13.4"/><circle class="cls-1" cx="329.01" cy="555.79" r="13.4"/><circle class="cls-1" cx="364.05" cy="555.79" r="13.4"/><circle class="cls-1" cx="398.48" cy="555.79" r="13.4"/><circle class="cls-1" cx="433.52" cy="555.79" r="13.4"/><circle class="cls-1" cx="468.7" cy="555.79" r="13.4"/><circle class="cls-1" cx="503.74" cy="555.79" r="13.4"/><circle class="cls-1" cx="538.43" cy="555.79" r="13.4"/><circle class="cls-1" cx="573.47" cy="555.79" r="13.4"/><circle class="cls-1" cx="607.9" cy="555.79" r="13.4"/><circle class="cls-1" cx="642.94" cy="555.79" r="13.4"/><circle class="cls-1" cx="678.82" cy="555.79" r="13.4"/><circle class="cls-1" cx="713.86" cy="555.79" r="13.4"/><circle class="cls-1" cx="748.29" cy="555.79" r="13.4"/><circle class="cls-1" cx="783.33" cy="555.79" r="13.4"/><circle class="cls-1" cx="818.51" cy="555.79" r="13.4"/><circle class="cls-1" cx="853.55" cy="555.79" r="13.4"/><circle class="cls-1" cx="13.4" cy="585.97" r="13.4"/><circle class="cls-1" cx="47.83" cy="585.97" r="13.4"/><circle class="cls-1" cx="82.87" cy="585.97" r="13.4"/><circle class="cls-1" cx="118.05" cy="585.97" r="13.4"/><circle class="cls-1" cx="153.09" cy="585.97" r="13.4"/><circle class="cls-1" cx="188.62" cy="585.73" r="13.4"/><circle class="cls-1" cx="223.66" cy="585.73" r="13.4"/><circle class="cls-1" cx="258.09" cy="585.73" r="13.4"/><circle class="cls-1" cx="293.13" cy="585.73" r="13.4"/><circle class="cls-1" cx="329.01" cy="585.73" r="13.4"/><circle class="cls-1" cx="364.05" cy="585.73" r="13.4"/><circle class="cls-1" cx="398.48" cy="585.73" r="13.4"/><circle class="cls-1" cx="433.52" cy="585.73" r="13.4"/><circle class="cls-1" cx="468.7" cy="585.73" r="13.4"/><circle class="cls-1" cx="503.74" cy="585.73" r="13.4"/><circle class="cls-1" cx="538.43" cy="585.73" r="13.4"/><circle class="cls-1" cx="573.47" cy="585.73" r="13.4"/><circle class="cls-1" cx="607.9" cy="585.73" r="13.4"/><circle class="cls-1" cx="642.94" cy="585.73" r="13.4"/><circle class="cls-1" cx="678.82" cy="585.73" r="13.4"/><circle class="cls-1" cx="713.86" cy="585.73" r="13.4"/><circle class="cls-1" cx="748.29" cy="585.73" r="13.4"/><circle class="cls-1" cx="783.33" cy="585.73" r="13.4"/><circle class="cls-1" cx="818.51" cy="585.73" r="13.4"/><circle class="cls-1" cx="853.55" cy="585.73" r="13.4"/><circle class="cls-1" cx="14.22" cy="617.32" r="13.4"/><circle class="cls-1" cx="48.64" cy="617.32" r="13.4"/><circle class="cls-1" cx="83.68" cy="617.32" r="13.4"/><circle class="cls-1" cx="118.87" cy="617.32" r="13.4"/><circle class="cls-1" cx="153.91" cy="617.32" r="13.4"/><circle class="cls-1" cx="189.44" cy="617.08" r="13.4"/><circle class="cls-1" cx="224.48" cy="617.08" r="13.4"/><circle class="cls-1" cx="258.9" cy="617.08" r="13.4"/><circle class="cls-1" cx="293.94" cy="617.08" r="13.4"/><circle class="cls-1" cx="329.83" cy="617.08" r="13.4"/><circle class="cls-1" cx="364.86" cy="617.08" r="13.4"/><circle class="cls-1" cx="399.29" cy="617.08" r="13.4"/><circle class="cls-1" cx="434.33" cy="617.08" r="13.4"/><circle class="cls-1" cx="469.52" cy="617.08" r="13.4"/><circle class="cls-1" cx="504.56" cy="617.08" r="13.4"/><circle class="cls-1" cx="539.25" cy="617.08" r="13.4"/><circle class="cls-1" cx="574.29" cy="617.08" r="13.4"/><circle class="cls-1" cx="608.72" cy="617.08" r="13.4"/><circle class="cls-1" cx="643.76" cy="617.08" r="13.4"/><circle class="cls-1" cx="679.64" cy="617.08" r="13.4"/><circle class="cls-1" cx="714.68" cy="617.08" r="13.4"/><circle class="cls-1" cx="749.1" cy="617.08" r="13.4"/><circle class="cls-1" cx="784.14" cy="617.08" r="13.4"/><circle class="cls-1" cx="819.33" cy="617.08" r="13.4"/><circle class="cls-1" cx="854.37" cy="617.08" r="13.4"/><circle class="cls-1" cx="14.22" cy="645.92" r="13.4"/><circle class="cls-1" cx="48.64" cy="645.92" r="13.4"/><circle class="cls-1" cx="83.68" cy="645.92" r="13.4"/><circle class="cls-1" cx="118.87" cy="645.92" r="13.4"/><circle class="cls-1" cx="153.91" cy="645.92" r="13.4"/><circle class="cls-1" cx="189.44" cy="645.67" r="13.4"/><circle class="cls-1" cx="224.48" cy="645.67" r="13.4"/><circle class="cls-1" cx="258.9" cy="645.67" r="13.4"/><circle class="cls-1" cx="293.94" cy="645.67" r="13.4"/><circle class="cls-1" cx="329.83" cy="645.67" r="13.4"/><circle class="cls-1" cx="364.86" cy="645.67" r="13.4"/><circle class="cls-1" cx="399.29" cy="645.67" r="13.4"/><circle class="cls-1" cx="434.33" cy="645.67" r="13.4"/><circle class="cls-1" cx="469.52" cy="645.67" r="13.4"/><circle class="cls-1" cx="504.56" cy="645.67" r="13.4"/><circle class="cls-1" cx="539.25" cy="645.67" r="13.4"/><circle class="cls-1" cx="574.29" cy="645.67" r="13.4"/><circle class="cls-1" cx="608.72" cy="645.67" r="13.4"/><circle class="cls-1" cx="643.76" cy="645.67" r="13.4"/><circle class="cls-1" cx="679.64" cy="645.67" r="13.4"/><circle class="cls-1" cx="714.68" cy="645.67" r="13.4"/><circle class="cls-1" cx="749.1" cy="645.67" r="13.4"/><circle class="cls-1" cx="784.14" cy="645.67" r="13.4"/><circle class="cls-1" cx="819.33" cy="645.67" r="13.4"/><circle class="cls-1" cx="854.37" cy="645.67" r="13.4"/><circle class="cls-1" cx="14.22" cy="675.85" r="13.4"/><circle class="cls-1" cx="48.64" cy="675.85" r="13.4"/><circle class="cls-1" cx="83.68" cy="675.85" r="13.4"/><circle class="cls-1" cx="118.87" cy="675.85" r="13.4"/><circle class="cls-1" cx="153.91" cy="675.85" r="13.4"/><circle class="cls-1" cx="189.44" cy="675.61" r="13.4"/><circle class="cls-1" cx="224.48" cy="675.61" r="13.4"/><circle class="cls-1" cx="258.9" cy="675.61" r="13.4"/><circle class="cls-1" cx="293.94" cy="675.61" r="13.4"/><circle class="cls-1" cx="329.83" cy="675.61" r="13.4"/><circle class="cls-1" cx="364.86" cy="675.61" r="13.4"/><circle class="cls-1" cx="399.29" cy="675.61" r="13.4"/><circle class="cls-1" cx="434.33" cy="675.61" r="13.4"/><circle class="cls-1" cx="469.52" cy="675.61" r="13.4"/><circle class="cls-1" cx="504.56" cy="675.61" r="13.4"/><circle class="cls-1" cx="539.25" cy="675.61" r="13.4"/><circle class="cls-1" cx="574.29" cy="675.61" r="13.4"/><circle class="cls-1" cx="608.72" cy="675.61" r="13.4"/><circle class="cls-1" cx="643.76" cy="675.61" r="13.4"/><circle class="cls-1" cx="679.64" cy="675.61" r="13.4"/><circle class="cls-1" cx="714.68" cy="675.61" r="13.4"/><circle class="cls-1" cx="749.1" cy="675.61" r="13.4"/><circle class="cls-1" cx="784.14" cy="675.61" r="13.4"/><circle class="cls-1" cx="819.33" cy="675.61" r="13.4"/><circle class="cls-1" cx="854.37" cy="675.61" r="13.4"/><circle class="cls-1" cx="13.97" cy="707.29" r="13.4"/><circle class="cls-1" cx="48.4" cy="707.29" r="13.4"/><circle class="cls-1" cx="83.43" cy="707.29" r="13.4"/><circle class="cls-1" cx="118.62" cy="707.29" r="13.4"/><circle class="cls-1" cx="153.66" cy="707.29" r="13.4"/><circle class="cls-1" cx="189.19" cy="707.05" r="13.4"/><circle class="cls-1" cx="224.23" cy="707.05" r="13.4"/><circle class="cls-1" cx="258.66" cy="707.05" r="13.4"/><circle class="cls-1" cx="293.69" cy="707.05" r="13.4"/><circle class="cls-1" cx="329.58" cy="707.05" r="13.4"/><circle class="cls-1" cx="364.62" cy="707.05" r="13.4"/><circle class="cls-1" cx="399.04" cy="707.05" r="13.4"/><circle class="cls-1" cx="434.08" cy="707.05" r="13.4"/><circle class="cls-1" cx="469.27" cy="707.05" r="13.4"/><circle class="cls-1" cx="504.31" cy="707.05" r="13.4"/><circle class="cls-1" cx="539" cy="707.05" r="13.4"/><circle class="cls-1" cx="574.04" cy="707.05" r="13.4"/><circle class="cls-1" cx="608.47" cy="707.05" r="13.4"/><circle class="cls-1" cx="643.51" cy="707.05" r="13.4"/><circle class="cls-1" cx="679.39" cy="707.05" r="13.4"/><circle class="cls-1" cx="714.43" cy="707.05" r="13.4"/><circle class="cls-1" cx="748.85" cy="707.05" r="13.4"/><circle class="cls-1" cx="783.89" cy="707.05" r="13.4"/><circle class="cls-1" cx="819.08" cy="707.05" r="13.4"/><circle class="cls-1" cx="854.12" cy="707.05" r="13.4"/><circle class="cls-1" cx="13.97" cy="735.89" r="13.4"/><circle class="cls-1" cx="48.4" cy="735.89" r="13.4"/><circle class="cls-1" cx="83.43" cy="735.89" r="13.4"/><circle class="cls-1" cx="118.62" cy="735.89" r="13.4"/><circle class="cls-1" cx="153.66" cy="735.89" r="13.4"/><circle class="cls-1" cx="189.19" cy="735.64" r="13.4"/><circle class="cls-1" cx="224.23" cy="735.64" r="13.4"/><circle class="cls-1" cx="258.66" cy="735.64" r="13.4"/><circle class="cls-1" cx="293.69" cy="735.64" r="13.4"/><circle class="cls-1" cx="329.58" cy="735.64" r="13.4"/><circle class="cls-1" cx="364.62" cy="735.64" r="13.4"/><circle class="cls-1" cx="399.04" cy="735.64" r="13.4"/><circle class="cls-1" cx="434.08" cy="735.64" r="13.4"/><circle class="cls-1" cx="469.27" cy="735.64" r="13.4"/><circle class="cls-1" cx="504.31" cy="735.64" r="13.4"/><circle class="cls-1" cx="539" cy="735.64" r="13.4"/><circle class="cls-1" cx="574.04" cy="735.64" r="13.4"/><circle class="cls-1" cx="608.47" cy="735.64" r="13.4"/><circle class="cls-1" cx="643.51" cy="735.64" r="13.4"/><circle class="cls-1" cx="679.39" cy="735.64" r="13.4"/><circle class="cls-1" cx="714.43" cy="735.64" r="13.4"/><circle class="cls-1" cx="748.85" cy="735.64" r="13.4"/><circle class="cls-1" cx="783.89" cy="735.64" r="13.4"/><circle class="cls-1" cx="819.08" cy="735.64" r="13.4"/><circle class="cls-1" cx="854.12" cy="735.64" r="13.4"/><circle class="cls-1" cx="13.97" cy="765.82" r="13.4"/><circle class="cls-1" cx="48.4" cy="765.82" r="13.4"/><circle class="cls-1" cx="83.43" cy="765.82" r="13.4"/><circle class="cls-1" cx="118.62" cy="765.82" r="13.4"/><circle class="cls-1" cx="153.66" cy="765.82" r="13.4"/><circle class="cls-1" cx="189.19" cy="765.58" r="13.4"/><circle class="cls-1" cx="224.23" cy="765.58" r="13.4"/><circle class="cls-1" cx="258.66" cy="765.58" r="13.4"/><circle class="cls-1" cx="293.69" cy="765.58" r="13.4"/><circle class="cls-1" cx="329.58" cy="765.58" r="13.4"/><circle class="cls-1" cx="364.62" cy="765.58" r="13.4"/><circle class="cls-1" cx="399.04" cy="765.58" r="13.4"/><circle class="cls-1" cx="434.08" cy="765.58" r="13.4"/><circle class="cls-1" cx="469.27" cy="765.58" r="13.4"/><circle class="cls-1" cx="504.31" cy="765.58" r="13.4"/><circle class="cls-1" cx="539" cy="765.58" r="13.4"/><circle class="cls-1" cx="574.04" cy="765.58" r="13.4"/><circle class="cls-1" cx="608.47" cy="765.58" r="13.4"/><circle class="cls-1" cx="643.51" cy="765.58" r="13.4"/><circle class="cls-1" cx="679.39" cy="765.58" r="13.4"/><circle class="cls-1" cx="714.43" cy="765.58" r="13.4"/><circle class="cls-1" cx="748.85" cy="765.58" r="13.4"/><circle class="cls-1" cx="783.89" cy="765.58" r="13.4"/><circle class="cls-1" cx="819.08" cy="765.58" r="13.4"/><circle class="cls-1" cx="854.12" cy="765.58" r="13.4"/><circle class="cls-1" cx="13.93" cy="798.58" r="13.4"/><circle class="cls-1" cx="48.36" cy="798.58" r="13.4"/><circle class="cls-1" cx="83.4" cy="798.58" r="13.4"/><circle class="cls-1" cx="118.58" cy="798.58" r="13.4"/><circle class="cls-1" cx="153.62" cy="798.58" r="13.4"/><circle class="cls-1" cx="189.15" cy="798.33" r="13.4"/><circle class="cls-1" cx="224.19" cy="798.33" r="13.4"/><circle class="cls-1" cx="258.62" cy="798.33" r="13.4"/><circle class="cls-1" cx="293.66" cy="798.33" r="13.4"/><circle class="cls-1" cx="329.54" cy="798.33" r="13.4"/><circle class="cls-1" cx="364.58" cy="798.33" r="13.4"/><circle class="cls-1" cx="399.01" cy="798.33" r="13.4"/><circle class="cls-1" cx="434.05" cy="798.33" r="13.4"/><circle class="cls-1" cx="469.23" cy="798.33" r="13.4"/><circle class="cls-1" cx="504.27" cy="798.33" r="13.4"/><circle class="cls-1" cx="538.96" cy="798.33" r="13.4"/><circle class="cls-1" cx="574" cy="798.33" r="13.4"/><circle class="cls-1" cx="608.43" cy="798.33" r="13.4"/><circle class="cls-1" cx="643.47" cy="798.33" r="13.4"/><circle class="cls-1" cx="679.35" cy="798.33" r="13.4"/><circle class="cls-1" cx="714.39" cy="798.33" r="13.4"/><circle class="cls-1" cx="748.82" cy="798.33" r="13.4"/><circle class="cls-1" cx="783.86" cy="798.33" r="13.4"/><circle class="cls-1" cx="819.04" cy="798.33" r="13.4"/><circle class="cls-1" cx="854.08" cy="798.33" r="13.4"/><circle class="cls-1" cx="13.93" cy="828.51" r="13.4"/><circle class="cls-1" cx="48.36" cy="828.51" r="13.4"/><circle class="cls-1" cx="83.4" cy="828.51" r="13.4"/><circle class="cls-1" cx="118.58" cy="828.51" r="13.4"/><circle class="cls-1" cx="153.62" cy="828.51" r="13.4"/><circle class="cls-1" cx="189.15" cy="828.27" r="13.4"/><circle class="cls-1" cx="224.19" cy="828.27" r="13.4"/><circle class="cls-1" cx="258.62" cy="828.27" r="13.4"/><circle class="cls-1" cx="293.66" cy="828.27" r="13.4"/><circle class="cls-1" cx="329.54" cy="828.27" r="13.4"/><circle class="cls-1" cx="364.58" cy="828.27" r="13.4"/><circle class="cls-1" cx="399.01" cy="828.27" r="13.4"/><circle class="cls-1" cx="434.05" cy="828.27" r="13.4"/><circle class="cls-1" cx="469.23" cy="828.27" r="13.4"/><circle class="cls-1" cx="504.27" cy="828.27" r="13.4"/><circle class="cls-1" cx="538.96" cy="828.27" r="13.4"/><circle class="cls-1" cx="574" cy="828.27" r="13.4"/><circle class="cls-1" cx="608.43" cy="828.27" r="13.4"/><circle class="cls-1" cx="643.47" cy="828.27" r="13.4"/><circle class="cls-1" cx="679.35" cy="828.27" r="13.4"/><circle class="cls-1" cx="714.39" cy="828.27" r="13.4"/><circle class="cls-1" cx="748.82" cy="828.27" r="13.4"/><circle class="cls-1" cx="783.86" cy="828.27" r="13.4"/><circle class="cls-1" cx="819.04" cy="828.27" r="13.4"/><circle class="cls-1" cx="854.08" cy="828.27" r="13.4"/><circle class="cls-1" cx="13.93" cy="860.79" r="13.4"/><circle class="cls-1" cx="48.36" cy="860.79" r="13.4"/><circle class="cls-1" cx="83.4" cy="860.79" r="13.4"/><circle class="cls-1" cx="118.58" cy="860.79" r="13.4"/><circle class="cls-1" cx="153.62" cy="860.79" r="13.4"/><circle class="cls-1" cx="189.15" cy="860.54" r="13.4"/><circle class="cls-1" cx="224.19" cy="860.54" r="13.4"/><circle class="cls-1" cx="258.62" cy="860.54" r="13.4"/><circle class="cls-1" cx="293.66" cy="860.54" r="13.4"/><circle class="cls-1" cx="329.54" cy="860.54" r="13.4"/><circle class="cls-1" cx="364.58" cy="860.54" r="13.4"/><circle class="cls-1" cx="399.01" cy="860.54" r="13.4"/><circle class="cls-1" cx="434.05" cy="860.54" r="13.4"/><circle class="cls-1" cx="469.23" cy="860.54" r="13.4"/><circle class="cls-1" cx="504.27" cy="860.54" r="13.4"/><circle class="cls-1" cx="538.96" cy="860.54" r="13.4"/><circle class="cls-1" cx="574" cy="860.54" r="13.4"/><circle class="cls-1" cx="608.43" cy="860.54" r="13.4"/><circle class="cls-1" cx="643.47" cy="860.54" r="13.4"/><circle class="cls-1" cx="679.35" cy="860.54" r="13.4"/><circle class="cls-1" cx="714.39" cy="860.54" r="13.4"/><circle class="cls-1" cx="748.82" cy="860.54" r="13.4"/><circle class="cls-1" cx="783.86" cy="860.54" r="13.4"/><circle class="cls-1" cx="819.04" cy="860.54" r="13.4"/><circle class="cls-1" cx="854.08" cy="860.54" r="13.4"/><circle class="cls-1" cx="13.93" cy="890.72" r="13.4"/><circle class="cls-1" cx="48.36" cy="890.72" r="13.4"/><circle class="cls-1" cx="83.4" cy="890.72" r="13.4"/><circle class="cls-1" cx="118.58" cy="890.72" r="13.4"/><circle class="cls-1" cx="153.62" cy="890.72" r="13.4"/><circle class="cls-1" cx="189.15" cy="890.48" r="13.4"/><circle class="cls-1" cx="224.19" cy="890.48" r="13.4"/><circle class="cls-1" cx="258.62" cy="890.48" r="13.4"/><circle class="cls-1" cx="293.66" cy="890.48" r="13.4"/></g></g></svg>