<svg xmlns="http://www.w3.org/2000/svg" viewBox="0 0 866.95 57.64"><defs><style>.cls-1{fill:#c15353;}</style></defs><title>資產 5</title><g id="圖層_2" data-name="圖層 2"><g id="圖層_1-2" data-name="圖層 1"><circle cx="13.4" cy="13.64" r="13.4"/><circle cx="47.83" cy="13.64" r="13.4"/><circle cx="82.87" cy="13.64" r="13.4"/><circle cx="118.05" cy="13.64" r="13.4"/><circle cx="153.09" cy="13.64" r="13.4"/><circle cx="188.62" cy="13.4" r="13.4"/><circle cx="223.66" cy="13.4" r="13.4"/><circle cx="258.09" cy="13.4" r="13.4"/><circle cx="293.13" cy="13.4" r="13.4"/><circle class="cls-1" cx="329.01" cy="13.4" r="13.4"/><circle class="cls-1" cx="364.05" cy="13.4" r="13.4"/><circle class="cls-1" cx="398.48" cy="13.4" r="13.4"/><circle class="cls-1" cx="433.52" cy="13.4" r="13.4"/><circle class="cls-1" cx="468.7" cy="13.4" r="13.4"/><circle class="cls-1" cx="503.74" cy="13.4" r="13.4"/><circle class="cls-1" cx="538.43" cy="13.4" r="13.4"/><circle class="cls-1" cx="573.47" cy="13.4" r="13.4"/><circle class="cls-1" cx="607.9" cy="13.4" r="13.4"/><circle class="cls-1" cx="642.94" cy="13.4" r="13.4"/><circle class="cls-1" cx="678.82" cy="13.4" r="13.4"/><circle class="cls-1" cx="713.86" cy="13.4" r="13.4"/><circle class="cls-1" cx="748.29" cy="13.4" r="13.4"/><circle class="cls-1" cx="783.33" cy="13.4" r="13.4"/><circle class="cls-1" cx="818.51" cy="13.4" r="13.4"/><circle class="cls-1" cx="853.55" cy="13.4" r="13.4"/><circle class="cls-1" cx="13.4" cy="44.24" r="13.4"/><circle class="cls-1" cx="47.83" cy="44.24" r="13.4"/><circle class="cls-1" cx="82.87" cy="44.24" r="13.4"/><circle class="cls-1" cx="118.05" cy="44.24" r="13.4"/><circle class="cls-1" cx="153.09" cy="44.24" r="13.4"/><circle class="cls-1" cx="188.62" cy="44" r="13.4"/><circle class="cls-1" cx="223.66" cy="44" r="13.4"/><circle class="cls-1" cx="258.09" cy="44" r="13.4"/><circle class="cls-1" cx="293.13" cy="44" r="13.4"/><circle class="cls-1" cx="329.01" cy="44" r="13.4"/><circle class="cls-1" cx="364.05" cy="44" r="13.4"/><circle class="cls-1" cx="398.48" cy="44" r="13.4"/><circle class="cls-1" cx="433.52" cy="44" r="13.4"/><circle class="cls-1" cx="468.7" cy="44" r="13.4"/><circle class="cls-1" cx="503.74" cy="44" r="13.4"/><circle class="cls-1" cx="538.43" cy="44" r="13.4"/><circle class="cls-1" cx="573.47" cy="44" r="13.4"/><circle class="cls-1" cx="607.9" cy="44" r="13.4"/><circle class="cls-1" cx="642.94" cy="44" r="13.4"/><circle class="cls-1" cx="678.82" cy="44" r="13.4"/><circle class="cls-1" cx="713.86" cy="44" r="13.4"/><circle class="cls-1" cx="748.29" cy="44" r="13.4"/><circle class="cls-1" cx="783.33" cy="44" r="13.4"/><circle class="cls-1" cx="818.51" cy="44" r="13.4"/></g></g></svg>