<svg xmlns="http://www.w3.org/2000/svg" viewBox="0 0 866.54 117.01"><defs><style>.cls-1{fill:#c15353;}</style></defs><title>資產 4</title><g id="圖層_2" data-name="圖層 2"><g id="圖層_1-2" data-name="圖層 1"><circle cx="13.65" cy="13.64" r="13.4"/><circle cx="48.69" cy="13.64" r="13.4"/><circle cx="83.12" cy="13.64" r="13.4"/><circle cx="118.16" cy="13.64" r="13.4"/><circle cx="154.04" cy="13.64" r="13.4"/><circle cx="189.08" cy="13.64" r="13.4"/><circle cx="223.5" cy="13.64" r="13.4"/><circle cx="258.54" cy="13.64" r="13.4"/><circle cx="293.73" cy="13.64" r="13.4"/><circle class="cls-1" cx="328.77" cy="13.64" r="13.4"/><circle class="cls-1" cx="364.3" cy="13.4" r="13.4"/><circle class="cls-1" cx="399.34" cy="13.4" r="13.4"/><circle class="cls-1" cx="433.76" cy="13.4" r="13.4"/><circle class="cls-1" cx="466.8" cy="13.4" r="13.4"/><circle class="cls-1" cx="502.69" cy="13.4" r="13.4"/><circle class="cls-1" cx="537.73" cy="13.4" r="13.4"/><circle class="cls-1" cx="572.15" cy="13.4" r="13.4"/><circle class="cls-1" cx="607.19" cy="13.4" r="13.4"/><circle class="cls-1" cx="642.38" cy="13.4" r="13.4"/><circle class="cls-1" cx="677.42" cy="13.4" r="13.4"/><circle class="cls-1" cx="712.75" cy="13.64" r="13.4"/><circle class="cls-1" cx="747.79" cy="13.64" r="13.4"/><circle class="cls-1" cx="782.22" cy="13.64" r="13.4"/><circle class="cls-1" cx="817.26" cy="13.64" r="13.4"/><circle class="cls-1" cx="853.14" cy="13.64" r="13.4"/><circle class="cls-1" cx="13.65" cy="42.24" r="13.4"/><circle class="cls-1" cx="48.69" cy="42.24" r="13.4"/><circle class="cls-1" cx="83.12" cy="42.24" r="13.4"/><circle class="cls-1" cx="118.16" cy="42.24" r="13.4"/><circle class="cls-1" cx="154.04" cy="42.24" r="13.4"/><circle class="cls-1" cx="189.08" cy="42.24" r="13.4"/><circle class="cls-1" cx="223.5" cy="42.24" r="13.4"/><circle class="cls-1" cx="258.54" cy="42.24" r="13.4"/><circle class="cls-1" cx="293.73" cy="42.24" r="13.4"/><circle class="cls-1" cx="328.77" cy="42.24" r="13.4"/><circle class="cls-1" cx="364.3" cy="42" r="13.4"/><circle class="cls-1" cx="399.34" cy="42" r="13.4"/><circle class="cls-1" cx="433.76" cy="42" r="13.4"/><circle class="cls-1" cx="466.8" cy="42" r="13.4"/><circle class="cls-1" cx="502.69" cy="42" r="13.4"/><circle class="cls-1" cx="537.73" cy="42" r="13.4"/><circle class="cls-1" cx="572.15" cy="42" r="13.4"/><circle class="cls-1" cx="607.19" cy="42" r="13.4"/><circle class="cls-1" cx="642.38" cy="42" r="13.4"/><circle class="cls-1" cx="677.42" cy="42" r="13.4"/><circle class="cls-1" cx="712.75" cy="42.24" r="13.4"/><circle class="cls-1" cx="747.79" cy="42.24" r="13.4"/><circle class="cls-1" cx="782.22" cy="42.24" r="13.4"/><circle class="cls-1" cx="817.26" cy="42.24" r="13.4"/><circle class="cls-1" cx="853.14" cy="42.24" r="13.4"/><circle class="cls-1" cx="13.65" cy="72.18" r="13.4"/><circle class="cls-1" cx="48.69" cy="72.18" r="13.4"/><circle class="cls-1" cx="83.12" cy="72.18" r="13.4"/><circle class="cls-1" cx="118.16" cy="72.18" r="13.4"/><circle class="cls-1" cx="154.04" cy="72.18" r="13.4"/><circle class="cls-1" cx="189.08" cy="72.18" r="13.4"/><circle class="cls-1" cx="223.5" cy="72.18" r="13.4"/><circle class="cls-1" cx="258.54" cy="72.18" r="13.4"/><circle class="cls-1" cx="293.73" cy="72.18" r="13.4"/><circle class="cls-1" cx="328.77" cy="72.18" r="13.4"/><circle class="cls-1" cx="364.3" cy="71.94" r="13.4"/><circle class="cls-1" cx="399.34" cy="71.94" r="13.4"/><circle class="cls-1" cx="433.76" cy="71.94" r="13.4"/><circle class="cls-1" cx="466.8" cy="71.94" r="13.4"/><circle class="cls-1" cx="502.69" cy="71.94" r="13.4"/><circle class="cls-1" cx="537.73" cy="71.94" r="13.4"/><circle class="cls-1" cx="572.15" cy="71.94" r="13.4"/><circle class="cls-1" cx="607.19" cy="71.94" r="13.4"/><circle class="cls-1" cx="642.38" cy="71.94" r="13.4"/><circle class="cls-1" cx="677.42" cy="71.94" r="13.4"/><circle class="cls-1" cx="712.75" cy="72.18" r="13.4"/><circle class="cls-1" cx="747.79" cy="72.18" r="13.4"/><circle class="cls-1" cx="782.22" cy="72.18" r="13.4"/><circle class="cls-1" cx="817.26" cy="72.18" r="13.4"/><circle class="cls-1" cx="853.14" cy="72.18" r="13.4"/><circle class="cls-1" cx="13.4" cy="103.61" r="13.4"/><circle class="cls-1" cx="48.44" cy="103.61" r="13.4"/><circle class="cls-1" cx="82.87" cy="103.61" r="13.4"/><circle class="cls-1" cx="117.91" cy="103.61" r="13.4"/><circle class="cls-1" cx="153.79" cy="103.61" r="13.4"/><circle class="cls-1" cx="188.83" cy="103.61" r="13.4"/><circle class="cls-1" cx="223.26" cy="103.61" r="13.4"/><circle class="cls-1" cx="258.29" cy="103.61" r="13.4"/><circle class="cls-1" cx="293.48" cy="103.61" r="13.4"/><circle class="cls-1" cx="328.52" cy="103.61" r="13.4"/></g></g></svg>