<svg xmlns="http://www.w3.org/2000/svg" viewBox="0 0 1026.37 640.2"><defs><style>.cls-1{fill:#d3cdcd;}.cls-2{fill:none;stroke:#fff;stroke-linecap:round;stroke-linejoin:round;stroke-width:4px;}.cls-3{font-size:93.41px;fill:#fff;font-family:PingFangTC-Regular-B5pc-H, PingFang TC;}</style></defs><title>資產 8</title><g id="圖層_2" data-name="圖層 2"><g id="圖層_7" data-name="圖層 7"><path class="cls-1" d="M1024.37,450.76v.55l-65.95,5.5-16.5,11v22l-5.49,11-16.49-5.5-11-5.49v16.49H887l-22,33-60.46,22L766,599.72H738.55l-22-16.49,5.5-27.47-5.5-33c-5.49-16.49-33-11-33-11l-49.47,49.46-5.5-44-11-11-44,27.49c-22,16.49-44,16.49-44,16.49l-49.47-38.48-82.45-5.5-38.48-16.49-27.48-5.5-33,16.49v11l11,33-27.48,11-71.46-11L172.4,572.24l-33,33V632.7l-16.48,5.5-11-11H79V599.72l-5.49-27.48H57l-11-11H29.49l-11-11,11-16.49v-44L13,473.3,2,456.81l33-16.49,44-11h60.46l33-27.47,11-22,22,11,27.48-22-11-16.49,11-49.47-22-11-16.48-22-5.5-11-5.5-16.5-11,5.5H155.91l-16.5-71.46v-33l11-27.48h44s33,5.5,22-22L188.89,72H172.4l-16.49-22h-22s-49.48-22,0-33l93.43,5.5,16.5-11,11-5.49,11,11h27.47l11-11L312,2l3.35,15.08,22,38.47,66,38.48,49.47,22,49.46,11,27.49-5.49,49.47-11,16.49-11,33,11,38.47-5.5,11,22,11,27.49v22l33,11,22-11L788,215h49.46l38.48-5.5,49.47,44L985.9,302.9v33l38.47,66Z"/><polyline class="cls-2" points="311.96 2 315.31 17.08 337.3 55.55 403.26 94.03 452.73 116.02 502.19 127.01 529.68 121.52 579.15 110.53 595.64 99.53 628.62 110.53 667.09 105.03 678.09 127.01 689.08 154.5 689.08 176.49 722.06 187.48 744.05 176.49 788.03 214.96 837.49 214.96 875.97 209.46 925.44 253.44 985.9 302.9 985.9 335.89 1024.38 401.85 1024.38 450.76"/><path class="cls-2" d="M155.74,248l.17-.05H172.4l11-5.5,5.5,16.5,5.5,11,16.48,22,22,11-11,49.47,11,16.49-27.48,22-22-11-11,22-33,27.47H79l-44,11L2,456.81,13,473.3l16.5,16.49v44l-11,16.49,11,11H46l11,11H73.46L79,599.72v27.49h33l11,11,16.48-5.5V605.22l33-33,38.47-27.48,71.46,11,27.48-11-11-33v-11l33-16.49,27.48,5.5,38.48,16.49,82.45,5.5,49.47,38.48s22,0,44-16.49l44-27.49,11,11,5.5,44,49.47-49.46s27.48-5.5,33,11l5.5,33-5.5,27.47,22,16.49H766l38.47-38.48,60.46-22,22-33h22V489.79l11,5.49,16.49,5.5,5.49-11v-22l16.5-11,65.95-5.5"/><path class="cls-2" d="M155.91,247.94l-16.5-71.46v-33l11-27.48h44s33,5.5,22-22L188.89,72H172.4l-16.49-22h-22s-49.48-22,0-33l93.43,5.5,16.5-11,11-5.49,11,11h27.47l11-11L312,2"/><text class="cls-3" transform="translate(344.2 288.02)">湖北省<tspan x="0" y="112.09">武漢市</tspan></text></g></g></svg>